<svg xmlns="http://www.w3.org/2000/svg" xmlns:xlink="http://www.w3.org/1999/xlink" width="900" height="600" viewBox="0 0 900 600">
  <defs>
    <linearGradient id="a" data-name="New Gradient Swatch" x1="288.908" y1="683.722" x2="285.105" y2="517.673" gradientUnits="userSpaceOnUse">
      <stop offset="0" stop-color="#3900a3"/>
      <stop offset="0" stop-color="#bebad1"/>
      <stop offset="0.499" stop-color="#e8e3f8"/>
      <stop offset="1" stop-color="#f4f0ff"/>
    </linearGradient>
    <linearGradient id="b" x1="649.262" y1="726.557" x2="644.378" y2="513.296" xlink:href="#a"/>
    <linearGradient id="c" x1="442.97" y1="625.828" x2="450.901" y2="165.852" xlink:href="#a"/>
    <linearGradient id="d" data-name="New Gradient Swatch copy 3" x1="522.037" y1="374.68" x2="520.962" y2="205.791" gradientUnits="userSpaceOnUse">
      <stop offset="0" stop-color="#1194f6"/>
      <stop offset="1" stop-color="#95d0ff"/>
    </linearGradient>
    <linearGradient id="e" x1="377.309" y1="375.601" x2="376.233" y2="206.711" xlink:href="#d"/>
    <linearGradient id="f" x1="522.037" y1="511.001" x2="520.962" y2="342.111" xlink:href="#d"/>
    <linearGradient id="g" x1="377.309" y1="511.921" x2="376.233" y2="343.031" xlink:href="#d"/>
    <linearGradient id="h" x1="449.53" y1="409.927" x2="450.264" y2="279.279" xlink:href="#d"/>
    <linearGradient id="i" data-name="New Gradient Swatch copy" x1="246.608" y1="440.025" x2="246.052" y2="572.223" gradientUnits="userSpaceOnUse">
      <stop offset="0" stop-color="#ffb876"/>
      <stop offset="1" stop-color="#fdcca3"/>
    </linearGradient>
    <linearGradient id="j" data-name="New Gradient Swatch copy 4" x1="229.341" y1="424.364" x2="334.484" y2="424.364" gradientUnits="userSpaceOnUse">
      <stop offset="0" stop-color="#3900a3"/>
      <stop offset="1" stop-color="#5251de"/>
    </linearGradient>
    <linearGradient id="k" x1="253.29" y1="419.763" x2="362.347" y2="255.712" gradientUnits="userSpaceOnUse">
      <stop offset="0" stop-color="#ff4b60"/>
      <stop offset="1" stop-color="#e55ec9"/>
    </linearGradient>
    <linearGradient id="l" x1="200.74" y1="381.688" x2="224.597" y2="381.688" xlink:href="#i"/>
    <linearGradient id="m" data-name="New Gradient Swatch copy 2" x1="273.277" y1="356.433" x2="287.306" y2="233.402" gradientUnits="userSpaceOnUse">
      <stop offset="0" stop-color="#813abe"/>
      <stop offset="1" stop-color="#e55ec9"/>
    </linearGradient>
    <linearGradient id="n" x1="278.666" y1="361.837" x2="293.292" y2="233.58" xlink:href="#m"/>
    <linearGradient id="o" x1="560.305" y1="130.459" x2="615.947" y2="-8.645" xlink:href="#k"/>
    <linearGradient id="p" x1="599.412" y1="332.018" x2="723.345" y2="507.395" xlink:href="#j"/>
    <linearGradient id="q" x1="696.109" y1="295.331" x2="706.204" y2="222.98" xlink:href="#i"/>
    <linearGradient id="r" x1="618.425" y1="494.807" x2="601.188" y2="250.838" xlink:href="#d"/>
    <linearGradient id="s" x1="579.463" y1="279.055" x2="589.559" y2="206.705" xlink:href="#i"/>
    <linearGradient id="t" x1="626.51" y1="442.955" x2="620.991" y2="203.401" xlink:href="#d"/>
    <linearGradient id="u" x1="226.36" y1="196.128" x2="297.994" y2="125.462" xlink:href="#a"/>
    <linearGradient id="v" x1="711.282" y1="245.524" x2="695.793" y2="124.521" xlink:href="#m"/>
    <linearGradient id="w" x1="296.38" y1="202.401" x2="327.357" y2="90.11" xlink:href="#d"/>
    <linearGradient id="x" x1="676.177" y1="282.237" x2="708.647" y2="118.476" xlink:href="#a"/>
  </defs>
  <g>
    <path d="M164.675,527.948c-3.641,2.674-7.339,6.269-7.323,10.787.03,8.341,11.241,10.9,19.582,10.791q109.521-1.4,218.666-12.009c6.845-.665,15.042-2.354,17.385-8.821,1.985-5.478-1.8-11.7-6.937-14.448s-11.216-2.914-17.042-3.012q-66.333-1.111-132.668-2.223C225.588,508.5,190.6,508.505,164.675,527.948Z" fill="url(#a)"/>
    <path d="M565.879,549.009c17.031,2.058,34.267.512,51.352-1.036l98.692-8.941c6.77-.613,13.856-1.333,19.519-5.094s9.231-11.616,5.954-17.572c-4.848-8.813-66.425-4.919-76.646-4.7-22.493.47-44.291,4.241-66.617.426-13.109-2.241-24.933-7.048-37.387.066C540.775,523.563,541.838,546.1,565.879,549.009Z" fill="url(#b)"/>
    <g>
      <g>
        <rect x="285.585" y="112.235" width="326.772" height="330.981" rx="10.581" fill="url(#c)"/>
        <path d="M285.585,430.138v2.5a10.582,10.582,0,0,0,10.582,10.581H601.776a10.582,10.582,0,0,0,10.582-10.581v-2.5Z" fill="#cfcbdf"/>
      </g>
      <path d="M342.789,223.845H555.154a8.209,8.209,0,0,1,8.209,8.209V430.138a0,0,0,0,1,0,0H334.58a0,0,0,0,1,0,0V232.054A8.209,8.209,0,0,1,342.789,223.845Z" fill="#f4f0ff"/>
      <rect x="492.282" y="302.415" width="58.114" height="58.114" rx="6.147" fill="#95d0ff"/>
      <rect x="347.547" y="302.415" width="58.114" height="58.114" rx="6.147" fill="#95d0ff"/>
      <path d="M296.167,112.235h305.61a10.581,10.581,0,0,1,10.581,10.581v16.139a0,0,0,0,1,0,0H285.585a0,0,0,0,1,0,0V122.816a10.581,10.581,0,0,1,10.581-10.581Z" fill="#1194f6"/>
      <circle cx="365.375" cy="183.067" r="30.891" fill="#95d0ff"/>
      <circle cx="365.375" cy="176.738" r="14.157" fill="#1194f6"/>
      <path d="M365.375,213.957a30.785,30.785,0,0,0,21.761-8.97,29.767,29.767,0,0,0-43.522,0A30.785,30.785,0,0,0,365.375,213.957Z" fill="#1194f6"/>
      <g>
        <rect x="408.949" y="157.896" width="70.079" height="17.343" rx="6.147" fill="#1194f6"/>
        <path d="M452.478,203.188H415.1a6.147,6.147,0,0,1-6.146-6.147h0a6.147,6.147,0,0,1,6.146-6.147h37.383a6.147,6.147,0,0,1,6.147,6.147h0A6.147,6.147,0,0,1,452.478,203.188Z" fill="#c5c0d8"/>
      </g>
      <rect x="420.914" y="235.919" width="58.114" height="58.114" rx="6.147" fill="#95d0ff"/>
      <rect x="492.282" y="235.919" width="58.114" height="58.114" rx="6.147" fill="url(#d)"/>
      <rect x="347.547" y="235.919" width="58.114" height="58.114" rx="6.147" fill="url(#e)"/>
      <rect x="420.914" y="372.239" width="58.114" height="58.114" rx="6.147" fill="#95d0ff"/>
      <rect x="492.282" y="372.239" width="58.114" height="58.114" rx="6.147" fill="url(#f)"/>
      <rect x="347.547" y="372.239" width="58.114" height="58.114" rx="6.147" fill="url(#g)"/>
      <rect x="420.914" y="302.415" width="58.114" height="58.114" rx="6.147" fill="url(#h)"/>
      <circle cx="310.495" cy="125.595" r="5.838" fill="#ff4b60"/>
      <path d="M339.378,125.6a5.838,5.838,0,1,1-5.838-5.838A5.838,5.838,0,0,1,339.378,125.6Z" fill="#fdcca3"/>
      <circle cx="355.552" cy="125.595" r="5.838" fill="#95d0ff"/>
      <rect x="492.282" y="91.712" width="181.612" height="119.287" rx="28.747" fill="#585be9"/>
      <g>
        <g>
          <path d="M513.868,158.707a8.358,8.358,0,0,1,1.975-5.519,9.333,9.333,0,0,1,4.869-3.137,8.518,8.518,0,0,1-4.061-2.524,6.378,6.378,0,0,1-1.733-4.471q0-9.612,12.023-9.613h.052q12.021,0,12.022,9.613a6.516,6.516,0,0,1-1.72,4.484,7.994,7.994,0,0,1-4.049,2.511,9.639,9.639,0,0,1,4.82,3.15,8.251,8.251,0,0,1,2,5.506q0,5.243-3.369,7.9t-9.7,2.659q-6.333,0-9.729-2.672T513.868,158.707Zm9.013-1.156a4.732,4.732,0,0,0,1.028,3.135,3.783,3.783,0,0,0,3.082,1.233,3.7,3.7,0,0,0,3.032-1.246,4.744,4.744,0,0,0,1.028-3.122,3.4,3.4,0,0,0-1.054-2.4,3.984,3.984,0,0,0-3.006-1.092,4.08,4.08,0,0,0-3.056,1.079A3.379,3.379,0,0,0,522.881,157.551Zm1.051-13.749a2.6,2.6,0,0,0,.951,2.135,3.27,3.27,0,0,0,2.108.771,3.206,3.206,0,0,0,2.058-.771A2.6,2.6,0,0,0,530,143.8a3.143,3.143,0,0,0-.8-2.058,2.729,2.729,0,0,0-2.212-.951,2.79,2.79,0,0,0-2.263.951A3.147,3.147,0,0,0,523.932,143.8Z" fill="#fff"/>
          <path d="M543.535,164.369V138.322a4.444,4.444,0,0,1,4.444-4.444h.127a4.444,4.444,0,0,1,4.443,4.444V146.2l8.269-10.606a4.443,4.443,0,0,1,3.5-1.712h0a4.444,4.444,0,0,1,3.3,7.42l-7.031,7.791,9.383,12.6a4.489,4.489,0,0,1-3.6,7.171h0a4.491,4.491,0,0,1-3.757-2.031l-7.582-11.592L552.549,158v6.368a4.489,4.489,0,0,1-4.489,4.489h-.035A4.489,4.489,0,0,1,543.535,164.369Z" fill="#fff"/>
        </g>
        <g>
          <path d="M581.1,159.255v-15.38a2.586,2.586,0,0,1,2.587-2.586h0a2.586,2.586,0,0,1,2.586,2.586V156.94h6.709a2.212,2.212,0,0,1,2.212,2.212h0a2.213,2.213,0,0,1-2.212,2.212h-9.773A2.109,2.109,0,0,1,581.1,159.255Z" fill="#fff"/>
          <path d="M597.076,158.777v-14.9a2.586,2.586,0,0,1,2.586-2.586h0a2.586,2.586,0,0,1,2.587,2.586v14.9a2.587,2.587,0,0,1-2.587,2.587h0A2.586,2.586,0,0,1,597.076,158.777Z" fill="#fff"/>
          <path d="M605.178,158.777v-14.9a2.586,2.586,0,0,1,2.587-2.586h0a2.586,2.586,0,0,1,2.586,2.586v4.483l4.745-6.087a2.549,2.549,0,0,1,2.011-.982h0A2.55,2.55,0,0,1,619,145.547l-4.034,4.471,5.416,7.273a2.55,2.55,0,0,1-2.045,4.073h-.067a2.549,2.549,0,0,1-2.134-1.154l-4.36-6.664-1.425,1.587v3.644a2.586,2.586,0,0,1-2.586,2.587h0A2.587,2.587,0,0,1,605.178,158.777Z" fill="#fff"/>
          <path d="M622.47,159.255V143.4a2.109,2.109,0,0,1,2.109-2.109h9.773a2.109,2.109,0,0,1,2.109,2.109h0a2.109,2.109,0,0,1-2.109,2.109h-6.709v3.7h5.548a2.109,2.109,0,0,1,2.109,2.109h0a2.109,2.109,0,0,1-2.109,2.109h-5.548v3.718h6.709a2.109,2.109,0,0,1,2.109,2.109h0a2.109,2.109,0,0,1-2.109,2.109h-9.773A2.109,2.109,0,0,1,622.47,159.255Z" fill="#fff"/>
          <path d="M637.891,147.328a5.39,5.39,0,0,1,2.138-4.654,8.744,8.744,0,0,1,5.3-1.561,11.179,11.179,0,0,1,4.15.785,2.041,2.041,0,0,1,1.258,1.909v.024a2.07,2.07,0,0,1-2.625,2,7.489,7.489,0,0,0-2.034-.292,5.283,5.283,0,0,0-2.094.393,1.335,1.335,0,0,0-.918,1.295,1.116,1.116,0,0,0,.676.963,5.5,5.5,0,0,0,1.72.578,13.8,13.8,0,0,1,4.452,1.717,4.725,4.725,0,0,1,1.719,1.97,7.1,7.1,0,0,1,.676,3.243,5.157,5.157,0,0,1-2.108,4.264,8.1,8.1,0,0,1-5.122,1.64,12.678,12.678,0,0,1-5.868-1.284,2.047,2.047,0,0,1-1.083-1.827h0a2.084,2.084,0,0,1,2.867-1.917,9.067,9.067,0,0,0,3.291.6h.044a4.2,4.2,0,0,0,1.977-.436,1.363,1.363,0,0,0,.83-1.252,1.135,1.135,0,0,0-.515-.932,3.921,3.921,0,0,0-1.337-.608l-1.793-.459a12.346,12.346,0,0,1-1.962-.666,8.385,8.385,0,0,1-1.8-1.052,4.488,4.488,0,0,1-1.323-1.762A6.466,6.466,0,0,1,637.891,147.328Z" fill="#fff"/>
        </g>
      </g>
      <path d="M525.416,250.122V205.076h41l-33.13,47.52A4.325,4.325,0,0,1,525.416,250.122Z" fill="#585be9"/>
      <g>
        <path d="M302.916,448.144s-1.594,13.318,5.035,31.71,12.992,29,12.992,34.827-3.389,16.961,6.092,17.615,15.692-1.471,18.8-1.471,13.568,3.433,20.76-.163,4.9-5.722,0-6.375-24.942-5.068-29.634-9.645-15.723-70.753-15.723-70.753Z" fill="#fdcca3"/>
        <path d="M284.564,446.647s5.79,19.6-10.2,28.124C261.954,481.389,231.9,493.8,231.9,493.8s-4.289,20.4-2.558,28.676,3.109,12.727-1.854,9.948-9.375-12.981-9.926-19.047-10.2-17.35-10.2-23.427,8.287-5.8,16-7.179,14.331-9.927,27.566-15.993l13.236-6.066-4.688-19.577Z" fill="url(#i)"/>
        <path d="M339.833,524.34c-9.537-.294-19.273-4.529-19.273-4.529-.507,5.619-.632,12,6.475,12.485,9.481.654,15.692-1.471,18.8-1.471s13.568,3.433,20.76-.163,4.9-5.722,0-6.375a126.323,126.323,0,0,1-13.157-2.873h0S349.37,524.633,339.833,524.34Z" fill="#1194f6"/>
        <path d="M219.7,501.292c-2.255-5.451-1.192-17.8-1.192-17.8-5.974.819-11.149,1.655-11.149,6.455,0,6.077,9.651,17.361,10.2,23.427s4.963,16.268,9.926,19.047,3.585-1.676,1.854-9.948a24.331,24.331,0,0,1-.408-4.563h0S221.955,506.743,219.7,501.292Z" fill="#1194f6"/>
        <path d="M263.572,394.719s-9.7,11.011-17.384,20.289-20.412,16.7-15.906,23.593,13.041,7.422,17.522,6.892,10.09-3.181,15.768,5.832,15.752,3.446,21.053,0,14.58,2.35,18.026,4.886,12.195,1.741,17.761-4.091,14.58,6.628,14.05-11.928-12.989-49.042-12.989-49.042Z" fill="url(#j)"/>
        <path d="M273.141,308.788c-16.7,15.664-22.333,31.809-30.969,38.942s-24.4,21.777-24.4,21.777l7.885,9.011s18.858-13.217,28.159-19.149,24.029-26.657,24.029-26.657Z" fill="#ff4b60"/>
        <path d="M355.061,269.839S342.584,287.762,335.6,294.9s-33.907,7.922-33.907,7.922h0c-4.143-.665-9.479-.527-16.455.644-20.286,3.407-21.834,22.3-21.834,40.88s-4.645,48.623-4.645,48.623c28.183,11.769,67.2,0,67.2,0,.285-10.828-4.934-51.524-7.941-67.853,10.469-2.3,25.932-7.02,32.2-15.645,9.885-13.592,17.573-35.427,17.573-35.427Z" fill="url(#k)"/>
        <path d="M218.564,370.347s-11.126,3.462-13.595,7.811-7.4,10.46-1.292,13.4,9.755-4.349,13.046-5.877,2.468,0,2.468,2.351-.353,5.058,2.7,5,1.176-4.175,2.233-7.936a19.9,19.9,0,0,0,0-8.387Z" fill="url(#l)"/>
        <path d="M289.041,315.659c-1.425,3.456-2.994,7.1-6.042,9.262-3.088,2.194-7.225,2.452-10.907,1.563s-7.023-2.8-10.307-4.686c-3-1.723-6.052-3.491-8.346-6.078s-3.737-6.183-2.9-9.538c.889-3.545,4.183-6.646,3.4-10.217-.7-3.206-4.535-5.321-4.431-8.6.08-2.526,2.507-4.3,4.826-5.3s4.942-1.767,6.438-3.8c1.714-2.333,1.365-5.6.377-8.325s-2.533-5.265-3.047-8.115c-.788-4.376,1.047-8.947,4.076-12.2a27.171,27.171,0,0,1,11.338-6.765c8.456-2.873,17.985-3.284,26.194.232s14.777,11.344,15.492,20.246c.284,3.539-.427,7.332-2.8,9.973s-6.666,3.7-9.61,1.714Z" fill="url(#m)"/>
        <path d="M279.254,305.12a28.648,28.648,0,0,1,5.981-1.658,63.847,63.847,0,0,1,12.046-1.019c.015-.87.025-1.788.025-2.75,0-5.5.916-5.193,7.025-6.414s6.719-8.552,5.192-22.3-5.217-21.163-18.02-20.159c-31.154,2.444-13.439,32.986-12.523,40.622A89.643,89.643,0,0,1,279.254,305.12Z" fill="#fdcca3"/>
        <path d="M300.065,294.033a90.931,90.931,0,0,1-21.274-3.615,9.687,9.687,0,0,1,.189,1.028,89.643,89.643,0,0,1,.274,13.674,28.648,28.648,0,0,1,5.981-1.658,63.847,63.847,0,0,1,12.046-1.019c.015-.87.025-1.788.025-2.75,0-3.818.447-4.837,2.763-5.512Z" fill="#ffb876"/>
        <path d="M287.5,316.18c2.212-4.274,5.358-8.9,5.99-13.674,1.278-9.643-8.893-28.635-.747-33.953,4.81-3.14,15.287-1.836,17.485-7.315l-6.413-14.089-20.09-1.827-10.587,8.349-4.286,18,6.523,28.961,1.827,11.481Z" fill="url(#n)"/>
        <path d="M293.641,281.673a6.688,6.688,0,0,1-6.719-3.971c-2.138-4.581-3.345-11.748,3.359-11.3,4.582.306,4.582,7.639,4.582,7.639Z" fill="#fdcca3"/>
        <path d="M355.061,269.839s-.852-2.079-1.2-8.076-.117-9.524-1.176-12.464.588-5.408,3.763-.587.706,9.232,3.88,9.2,7.643-6.027,13.287-8.614,6.7-1.293,6.7.823,1.881,7.055,0,10.7-9.591,11.02-14.5,12.565Z" fill="#fdcca3"/>
      </g>
    </g>
    <path d="M616.325,56.884a23.5,23.5,0,0,0-33.237,0,23.5,23.5,0,1,0-33.237,33.237l33.237,33.236,33.237-33.236A23.5,23.5,0,0,0,616.325,56.884Z" fill="url(#o)"/>
    <g>
      <path d="M693.754,402.246s11.72-9.7,15.588-10.257,9.21,6.815,13.262,15.288,16.947,23.946,12.342,27.262-7.368,5.894-15.657-1.106-14.665-15.872-16.911-15.58-9.982.844-9.982.844Z" fill="#cf55b5"/>
      <path d="M657.378,367.926s3.31,17.568-2.6,34.222l5.432,15.7,33.307-17.831s.709,13.464,8.858,23.031c0,0-49.254,30.047-58.818,30.472-15.945.709-25.866-63.779-25.866-63.779l7.8-21.82Z" fill="url(#p)"/>
      <path d="M682.155,265.956s7.017-3.415,9.72-5.275,21.768-29.294,21.768-29.294l8.37,7.672s-10,23.917-17.205,31.6-18.6,15.128-18.6,15.128Z" fill="url(#q)"/>
      <path d="M650.122,277.1s21.015-9.147,29.854-13.907c0,0,11.559,12.919,11.9,28.9l-34,21.758Z" fill="#1194f6"/>
      <path d="M713.643,231.387s-2.37-2.233-2.128-8.642,1.385-10.522,1.055-12.82,3.256-3.422,4.992,3.87c.605,2.54-.242,5.09,1.088,5.992s11.61-12.643,14.876-12.643,12.305,13.723,6.99,21.252-18.5,10.663-18.5,10.663Z" fill="#fdcca3"/>
      <path d="M643.852,216c-12.881-2.693-18.88,8.483-22.164,18.333s-6.031,25.643,0,27.655,8.205.752,7.556,3.97.63,14.087.63,14.087l20.637,1.01s-2.444-19.8,1.467-23.467S674.105,222.321,643.852,216Z" fill="#fdcca3"/>
      <path d="M645.175,257.581s-12.6,5.936-17.976,5.758h0c1.813.375,2.43.71,2.045,2.617-.649,3.218.63,14.087.63,14.087l20.637,1.01s-2.261-18.331,1.055-22.979Z" fill="#ffb876"/>
      <path d="M634.3,248.322s2.84,11.641,4.286,14.822,4.194,5.929,5.784,5.35a9.442,9.442,0,0,0,3.181-2.538s1.591,4.707,3.616,4.707,3.325-6.218,4.916-8.1,15.389-10.209,14.55-21.4-7-15.111-7-15.111-1.679-11.753-12.873-16.51S636.587,196.111,634.3,197.79s-3.09,4.757-2.827,8.4c0,0-2.76-7.122-5.38-4.5s-3.83,8.867-2.217,11.084c0,0-2.217-2.821-4.635-1.612s-1.814,7.86,2.418,11.891S632.246,233.727,633,238.765,634.3,248.322,634.3,248.322Z" fill="#3b3457"/>
      <path d="M601.1,248.322s-12.919,4.327-20.058,20.306c0,0,17,27.2,22.1,35.7L624.2,273.659S607.563,256.913,601.1,248.322Z" fill="url(#r)"/>
      <path d="M587.026,210.573s2.373,29.725,11.156,40.406L583.94,265.956s-10.925-19.794-10.07-52.89Z" fill="url(#s)"/>
      <path d="M640.952,273.727c-17.153-1.153-25.229-.68-33.389,9.859s-20.738,71.053-21.078,81.592c0,0,12.754,11.9,40.714,11.219s33.786-4.419,33.786-4.419,2.086-55.075,0-70.714S652.779,274.522,640.952,273.727Z" fill="url(#t)"/>
      <path d="M587.026,210.573s3.033-2.652,5.905-9.059,7.581-9.56,5.787-12.094-6.671,4.8-9.543,6.791-2.209-18.558-7.512-18.337-15.244,2.142-15.244,12.891,7.451,22.3,7.451,22.3Z" fill="#fdcca3"/>
      <path d="M649.236,434.465s12.03-2.137,15.53-2.137,7,2.763,7,15.473,4.789,31.5,0,33.34-10.09,1.314-14-15.1c-1.842-7.737-14.206-12.512-14.206-12.512Z" fill="#e55ec9"/>
      <path d="M590.311,367.926s-10.318,35.237-13.3,59.932-6.76,42.578,19.186,39.6,51.856-5.535,51.856-5.535-3.344-17.031,1.765-28.953l-40.023,5.11,4.628-31.989s18.3-3.975,18.3-29.663Z" fill="#5251de"/>
      <path d="M631.477,251.067s4.677,1.5,7.016-1.336,4.51-12.195-1-12.195-6.014,3.508-6.014,3.508Z" fill="#fdcca3"/>
      <path d="M629.724,226.472s-4.574,19.347-1.41,19.549,7.9-11.9,7.9-11.9Z" fill="#3b3457"/>
    </g>
    <path d="M263.674,162.569h-3.337v-3.336a3.042,3.042,0,1,0-6.084,0v3.336h-3.336a3.042,3.042,0,0,0,0,6.084h3.336v3.336a3.042,3.042,0,1,0,6.084,0v-3.336h3.337a3.042,3.042,0,1,0,0-6.084Z" fill="url(#u)"/>
    <path d="M704.4,138.871h-3.336v-3.336a3.043,3.043,0,0,0-6.085,0v3.336h-3.336a3.043,3.043,0,0,0,0,6.085h3.336v3.336a3.043,3.043,0,0,0,6.085,0v-3.336H704.4a3.043,3.043,0,0,0,0-6.085Z" fill="url(#v)"/>
    <path d="M334.05,88.86a6.348,6.348,0,1,1-6.348-6.348A6.348,6.348,0,0,1,334.05,88.86Z" fill="url(#w)"/>
    <circle cx="691.671" cy="204.09" r="6.348" fill="url(#x)"/>
  </g>
</svg>
