<svg xmlns="http://www.w3.org/2000/svg" xmlns:xlink="http://www.w3.org/1999/xlink" width="900" height="600" viewBox="0 0 900 600">
  <defs>
    <linearGradient id="a" x1="484.091" y1="1121.459" x2="440.679" y2="273.978" gradientTransform="matrix(0.996, -0.091, 0.091, 0.996, -33.464, 15.065)" gradientUnits="userSpaceOnUse">
      <stop offset="0" stop-color="#3900a3"/>
      <stop offset="0" stop-color="#bebad1"/>
      <stop offset="0.46" stop-color="#e8e3f8"/>
      <stop offset="0.781" stop-color="#f4f0ff"/>
      <stop offset="1" stop-color="#fff"/>
    </linearGradient>
    <linearGradient id="b" x1="346.672" y1="184.508" x2="428.881" y2="84.381" gradientTransform="translate(35.656 -90.035) rotate(13.157)" gradientUnits="userSpaceOnUse">
      <stop offset="0" stop-color="#ffc62b"/>
      <stop offset="0.027" stop-color="#ffc92d"/>
      <stop offset="0.261" stop-color="#ffdd3e"/>
      <stop offset="0.494" stop-color="#ffe948"/>
      <stop offset="0.727" stop-color="#ffed4b"/>
      <stop offset="1" stop-color="#fff383"/>
    </linearGradient>
    <linearGradient id="c" data-name="New Gradient Swatch copy 4" x1="271.773" y1="309.671" x2="268.341" y2="546.429" gradientUnits="userSpaceOnUse">
      <stop offset="0" stop-color="#3900a3"/>
      <stop offset="1" stop-color="#5251de"/>
    </linearGradient>
    <linearGradient id="d" data-name="New Gradient Swatch" x1="286.141" y1="93.419" x2="312.5" y2="374.138" gradientUnits="userSpaceOnUse">
      <stop offset="0" stop-color="#3900a3"/>
      <stop offset="0" stop-color="#bebad1"/>
      <stop offset="0.499" stop-color="#e8e3f8"/>
      <stop offset="1" stop-color="#f4f0ff"/>
    </linearGradient>
    <clipPath id="e">
      <path d="M442.657,94.246c-46.337-6.374-95.22-2.61-136.642,19.3-39.9,21.1-70.2,57.553-92.583,97.262a398.529,398.529,0,0,0-50.9,189.8c-.322,26.35,2.062,53.134,11.338,77.768s26.04,47.077,49.1,59.1c24.52,12.778,53.275,12.761,80.777,12.458l192.9-2.125c39.54-.435,79.531-.929,117.805-10.923s75.26-30.593,97.486-63.832c34.146-51.065,27.011-118.853,18.514-180.159-5.684-41.01-12.97-85.325-42.428-113.946C657.421,149.2,615.4,150.033,578.452,134.6,534.727,116.334,489.727,100.72,442.657,94.246Z" fill="none"/>
    </clipPath>
    <linearGradient id="f" x1="601.321" y1="354.687" x2="622.071" y2="479.191" xlink:href="#c"/>
    <linearGradient id="g" data-name="New Gradient Swatch copy 2" x1="621.575" y1="297.259" x2="621.575" y2="165.099" gradientUnits="userSpaceOnUse">
      <stop offset="0" stop-color="#813abe"/>
      <stop offset="1" stop-color="#e55ec9"/>
    </linearGradient>
    <linearGradient id="h" x1="624.969" y1="297.259" x2="624.969" y2="165.099" xlink:href="#g"/>
    <linearGradient id="i" x1="665.12" y1="413.964" x2="568.155" y2="213.711" gradientTransform="translate(781.36 -357.929) rotate(77.743)" xlink:href="#b"/>
    <linearGradient id="j" x1="479.801" y1="455.91" x2="515.696" y2="684.744" xlink:href="#d"/>
    <linearGradient id="k" x1="488.943" y1="269.451" x2="477.033" y2="500.499" xlink:href="#c"/>
    <linearGradient id="l" data-name="New Gradient Swatch copy 3" x1="472.036" y1="262.654" x2="530.596" y2="262.654" gradientUnits="userSpaceOnUse">
      <stop offset="0" stop-color="#1194f6"/>
      <stop offset="1" stop-color="#95d0ff"/>
    </linearGradient>
    <linearGradient id="m" x1="285.016" y1="461.437" x2="409.384" y2="249.591" gradientTransform="translate(606.171 -88.895) rotate(77.13)" xlink:href="#b"/>
    <linearGradient id="n" x1="186.075" y1="183.858" x2="255.077" y2="115.788" xlink:href="#d"/>
    <linearGradient id="o" x1="716.792" y1="474.886" x2="701.872" y2="358.328" xlink:href="#g"/>
    <linearGradient id="p" x1="253.522" y1="189.901" x2="283.361" y2="81.735" xlink:href="#l"/>
    <linearGradient id="q" x1="682.976" y1="317.274" x2="714.254" y2="159.528" xlink:href="#d"/>
  </defs>
  <g>
    <path d="M442.657,94.246c-46.337-6.374-95.22-2.61-136.642,19.3-39.9,21.1-70.2,57.553-92.583,97.262a398.529,398.529,0,0,0-50.9,189.8c-.322,26.35,2.062,53.134,11.338,77.768s26.04,47.077,49.1,59.1c24.52,12.778,53.275,12.761,80.777,12.458l192.9-2.125c39.54-.435,79.531-.929,117.805-10.923s75.26-30.593,97.486-63.832c34.146-51.065,27.011-118.853,18.514-180.159-5.684-41.01-12.97-85.325-42.428-113.946C657.421,149.2,615.4,150.033,578.452,134.6,534.727,116.334,489.727,100.72,442.657,94.246Z" fill="url(#a)"/>
    <g>
      <path d="M397.165,177.409S386.8,209.53,366.938,220.956c-8.824,5.077-21.711,6.248-21.711,6.248V205.726s26.512-12.411,37-30.85c0,0,2.789-11.027,9.53-11.389s36.388-1.265,36.388-1.265-1.447,6.146-5.243,8.316S405.237,175.6,397.165,177.409Z" fill="#ffb876"/>
      <path d="M349.522,200.848s4.3,6.44,3.124,30.261H321.015l2.738-22.09Z" fill="#c5c0d8"/>
      <circle cx="408.193" cy="109.578" r="59.578" transform="translate(-14.227 95.788) rotate(-13.157)" fill="url(#b)"/>
      <path d="M449.48,100.638H444.5V90.384a8.665,8.665,0,1,0-17.329,0v10.254H422.2V90.384a13.643,13.643,0,1,1,27.285,0Z" fill="#3b3457"/>
      <path d="M397.9,100.638h-4.978V90.384a8.665,8.665,0,1,0-17.329,0v10.254h-4.978V90.384a13.643,13.643,0,1,1,27.285,0Z" fill="#3b3457"/>
      <path d="M391.78,114.261v18.8a18.283,18.283,0,0,0,18.283,18.283h0a18.283,18.283,0,0,0,18.284-18.283v-18.8Z" fill="#ff4b60"/>
      <path d="M441.237,119.311h15.249a4.867,4.867,0,0,0,4.867-4.867h0a4.867,4.867,0,0,0-4.867-4.866H441.237a4.867,4.867,0,0,0-4.867,4.866h0A4.867,4.867,0,0,0,441.237,119.311Z" fill="#e55ec9"/>
      <path d="M358.781,119.311H374.03a4.867,4.867,0,0,0,4.867-4.867h0a4.867,4.867,0,0,0-4.867-4.866H358.781a4.867,4.867,0,0,0-4.867,4.866h0A4.867,4.867,0,0,0,358.781,119.311Z" fill="#e55ec9"/>
      <path d="M336.9,305.069s7.786,66.287,4.721,98.974-27.579,100.1-27.579,100.1-18.1,3.162-31.524-3.782c0,0,19.163-79.151,22.534-95.4S291.2,333.051,291.2,333.051V305.87Z" fill="#3900a3"/>
      <path d="M273.538,305.069s-12.486,14.8-7.531,44.56c0,0-5.578,58.641-8.325,68.7s-34.8,61.773-34.8,61.773,6.411,11.933,20.6,14.222c0,0,35.44-31.4,50.826-71.889,8.7-22.9,23.915-115.339,23.915-115.339Z" fill="url(#c)"/>
      <path d="M311.616,140.365s6.566-1.783,9.943-12.287,2.438-17.634,0-17.821-4.878,2.626-6.566,2.626c0,0,1.653-7.71-.75-13.318-1.126-2.627-7.129,1.5-9.38,3.564a43.471,43.471,0,0,1-13.661,3.564c-8.474.938-28.374,2.814-29.3,16.882,0,0-11.946,4.162-5.807,19.509,2.251,5.628,11.81,15.382,13.47,19.322s1.537,11.63,3.6,11.442,4.063-2.626,4.063-2.626-.686,2.258,2.5,2.63,6.565-12.009,6.565-12.009Z" fill="#3b3457"/>
      <path d="M275.542,164.9s4.935,9.509,4.185,23.953l22.323-2.626V168.971Z" fill="#ffb876"/>
      <path d="M313.169,125.28s2.733,18.191,3.872,28.684-9.794,21.881-14.122,23.247-25.282-4.328-30.521-17.538L266.021,135.3Z" fill="#fdcca3"/>
      <path d="M277.224,161.843s-.938,4.877-6,4.5-12.006-10.68-8.254-15,10.88,0,10.88,0Z" fill="#fdcca3"/>
      <path d="M317.123,122.825s-.066,7.5-13.01,10.13-27.646-1.544-28.138,13.694c-.187,5.815,4.877,10.674-1.688,11.246s-11.443-21.564-11.443-21.564l3.177-6.19Z" fill="#3b3457"/>
      <path d="M288.8,180.644c-19.538,1.248-23.044,30.609-22.775,57.112s6.987,52.633,5.121,66.072c0,0,31.356,18.291,68.311,4.106,0,0-2.986-73.164-9.332-94.068S300.477,179.9,288.8,180.644Z" fill="url(#d)"/>
      <path d="M366.938,169.6s-8.17,14.113-35.5,21.374l2.247,21.105s16.362-2.517,29.578-13.845,15.1-21.355,15.1-21.355,7.866-9.482,4.4-15.775-8.5-8.506-12.586-9.76-6.608-9.435-9.126-12.9-3.776-8.811-6.922-6.293.529,7.107,1.888,13.53S366.938,169.6,366.938,169.6Z" fill="#fdcca3"/>
      <path d="M275.542,191.842c-7.529,12.968,4.932,22.4,17.624,25.384s43.674,1.866,43.674,1.866.088-19.081-2.756-33.244c0,0-22.688-.711-33.988-2.958S278.628,186.526,275.542,191.842Z" fill="#f4f0ff"/>
      <path d="M370.875,160.83s2.8-6.9,0-13.616-4.847-9.159-2.077-10.926,5.077,7.926,8.769,11.157,9.693,14.308,3.462,20.078S370.875,160.83,370.875,160.83Z" fill="#fdcca3"/>
      <path d="M224.507,482.548s-9.337,9.857-10.656,16.671,8.793,9.672,13.409,14.948,20.2,15.314,28.8,12.309c5.508-1.925,4.176-3.077-1.1-9.012s-14.417-12.514-15.012-23.952Z" fill="#1194f6"/>
      <path d="M286.523,502.107s-8.476,15.732-2.331,21.292c4.616,4.176,16.926,1.978,21.762,1.978s26.264,6.846,35.17,1.649c3.957-2.308-2.858-6.265-12.969-10A62.443,62.443,0,0,1,308.4,504.737Z" fill="#1194f6"/>
    </g>
    <g clip-path="url(#e)">
      <g>
        <path d="M614.3,445.909s19.4,59.026,28.455,91.763c2.483,8.977-5.432,14.626-18.289,18.637s-14.5,8.658.54,8.385a278.541,278.541,0,0,0,36.362-3.281c6.835-1.094-2.661-14.891-3.754-22.82s-4.3-67.749-14.144-87.26Z" fill="#fdcca3"/>
        <path d="M614.3,445.909s19.4,59.026,28.455,91.763c2.483,8.977-5.432,14.626-18.289,18.637s-14.5,8.658.54,8.385a278.541,278.541,0,0,0,36.362-3.281c6.835-1.094-2.661-14.891-3.754-22.82s-4.3-67.749-14.144-87.26Z" fill="#fdcca3"/>
        <path d="M561.277,448.526s11.829,81.324,4.731,94.927-37.556,13.9-35.486,19.222,29.132,1.383,39.626,2.556c14.787,1.654,17.466-.232,16.283-13.836a278.032,278.032,0,0,1-.5-36.627c.6-10.414,4.918-41.7,4.031-62.4l-22.179-17.448Z" fill="#fdcca3"/>
        <path d="M565.735,348.264s-18.277,20.078-21.228,57.551,3.729,52.154,10.614,53.2,4.262-10.181,8.457-9.548,15.645,23.013,27.791,9.617c5.768-6.362,7.947-7.935,33.6-.069s25.6,4.389,30.9-9.548c3.146-8.28,9.438,9.548,24.645-7.756s-14.158-22.36-22.024-40.806-26.5-44.684-26.5-44.684Z" fill="url(#f)"/>
        <path d="M669.905,281.913c12.628,15.487,28.626,57.224,2.7,79.424s-42.01,16.761-42.01,16.761Z" fill="#ff4b60"/>
        <path d="M597.527,166.01s6.676-13.4,20.634-13.4,25.275,7.847,29.032,17.865c1.675,4.467,8.933,3.908,12.841,8.933s10.608,17.531,3.07,31.8-1.4,22.08,1.4,29.617,3.629,17.308-8.1,24.845-63.183-20.936-63.183-20.936-20.842-17.587-15.817-28.753,9.77-15.353,7.258-24.845S583.592,173.268,597.527,166.01Z" fill="url(#g)"/>
        <path d="M593.62,196.371s-1.71,19.793,1.955,26.39,10.507,14.416,15.638,14.416,19.792-7.086,22.48-14.172,4.887-23.7,4.887-23.7-9.279-30.3-30.543-30.3C601.684,169.005,593.62,196.371,593.62,196.371Z" fill="#fdcca3"/>
        <path d="M631.983,220.073s4.4,4.643,10.507-.977,9.565-16.25,1.5-18.205-10.3,4.766-10.3,4.766Z" fill="#fdcca3"/>
        <path d="M633.693,223.005s-4.642,15.394-1.71,27.367l-21.992-1.222-.977-21.258Z" fill="#fdcca3"/>
        <path d="M652.411,230.824c-4.47-1.709-4.185-8.282-7.283-11.93-4.362-5.135-13.727-2.805-18.183-7.86-2.978-3.378-2.575-8.882-5.736-12.089-3.068-3.112-8.074-2.774-12.27-4-7.885-2.295-13.047-11.441-10.939-19.378l8.437-10.4,27.256,10.887,18.718,27.032Z" fill="url(#h)"/>
        <circle cx="612.7" cy="305.705" r="69.908" transform="matrix(0.212, -0.977, 0.977, 0.212, 183.887, 839.537)" fill="url(#i)"/>
        <path d="M638.615,337.123l17.621,5.356a5.879,5.879,0,0,0,7.333-3.915h0a5.878,5.878,0,0,0-3.915-7.333l-17.621-5.355a5.878,5.878,0,0,0-7.332,3.914h0A5.877,5.877,0,0,0,638.615,337.123Z" fill="#e55ec9"/>
        <path d="M552.645,307.749l14.59,4.434a4.867,4.867,0,0,0,6.072-3.241h0a4.868,4.868,0,0,0-3.241-6.072l-14.59-4.434a4.867,4.867,0,0,0-6.072,3.241h0A4.867,4.867,0,0,0,552.645,307.749Z" fill="#e55ec9"/>
        <path d="M625.008,564.694a278.541,278.541,0,0,0,36.362-3.281c3.561-.57,2.687-4.59.88-9.43a57.353,57.353,0,0,1-20.291,5.6c-9.329.88-15.241-.165-18.281-1.022C611.557,560.513,610.288,564.961,625.008,564.694Z" fill="#ff4b60"/>
        <path d="M658.843,319.668l-4.771-1.422,3.713-12.467a11.66,11.66,0,1,0-22.349-6.656l-3.714,12.467-4.771-1.421,3.713-12.468a16.639,16.639,0,0,1,31.893,9.5Z" fill="#3b3457"/>
        <path d="M595.356,300.358l-4.771-1.422,3.713-12.467a11.659,11.659,0,1,0-22.349-6.655l-3.715,12.467-4.77-1.422,3.713-12.467a16.639,16.639,0,0,1,31.893,9.5Z" fill="#3b3457"/>
        <path d="M596.366,346.707c-8.647,0-11.3-5.576-11.955-7.534-1.48-4.385-.031-9.227,3.229-10.793a14.645,14.645,0,0,1,1.894-.749,10.531,10.531,0,0,1,4.687-15.972c7.365-2.887,12.663,3.375,14.438,7.087a2.489,2.489,0,0,1-4.487,2.156c-.134-.276-3.248-6.515-8.134-4.609a5.535,5.535,0,0,0-3.492,5.752c.252,2.529,2.12,4.4,5.036,5.092.444.078.712.148.759.159a2.49,2.49,0,0,1-1.068,4.859q-.357-.064-.7-.141a11.877,11.877,0,0,0-6.778.854c-.593.285-1.46,2.362-.666,4.715,1.207,3.578,5.346,4.921,11.359,3.684a2.489,2.489,0,1,1,1,4.875A25.51,25.51,0,0,1,596.366,346.707Z" fill="#3b3457"/>
        <path d="M640.348,368.633s-1.648,6.76-9.754,10.053-24.824.7-29.637-7.5,14.313-4.3,19.7-1.946,9.595,1.875,12.222-3.019S640.728,356.553,640.348,368.633Z" fill="#fdcca3"/>
        <path d="M554.251,354.16c3.139,7.876,11.719,13.2,16.256,12.406s8.18-7.007,3.456-12.406c-5.671-6.481-9.991-6.481-14.311-5.941S553.007,351.038,554.251,354.16Z" fill="#fdcca3"/>
        <path d="M553.917,351.743a36.858,36.858,0,0,0-4.609-9.62c-2.838-3.785,3.47-2.838,5.362-.788s3.469,8.358,3.469,8.358Z" fill="#fdcca3"/>
        <path d="M542.493,556.844c-7.193,2.044-12.907,3.426-11.971,5.831,2.07,5.323,29.132,1.383,39.626,2.556,13.735,1.537,17.021.011,16.471-11.116-5.923,1.475-18.443,4.283-29.482,4.716C548.463,559.171,544.391,557.946,542.493,556.844Z" fill="#ff4b60"/>
      </g>
      <g>
        <path d="M444.307,455.9s-8.39,35.548-12.43,87.628,17.934,132.357,17.934,132.357,10.916,2.514,37.51,0c0,0-15.772-90.6-15.285-106.355s23.327-106.354,23.327-106.354Z" fill="#c5c0d8"/>
        <path d="M449.811,463.173S457.6,552.811,466.96,587.32s20.361,88.562,20.361,88.562,15.084,1.583,20.008,1.117c4.731-.447,18.612-4.768,18.612-4.768S511.96,595.744,510.992,576.7s0-62.066,0-62.066,14.595-17.624,4.075-48.059Z" fill="url(#j)"/>
        <path d="M474.025,320.732c-14.116-.506-32.067,30.879-56.3,30v24.7s26.208,6.282,48.109-10.322S474.025,320.732,474.025,320.732Z" fill="#3900a3"/>
        <path d="M505.505,328.259a66.474,66.474,0,0,1,16.426,22.469c6.231,14.095.222,62.294-3.524,82.852s-3.34,32.993-3.34,32.993-54.93,13.529-77.258-5.165c0,0,5.712-65.429,9.346-91.392s17.935-50.877,32.658-50.358A50.627,50.627,0,0,1,505.505,328.259Z" fill="url(#k)"/>
        <path d="M473.6,263.818s-3.592,8.875-6.128,24.935-1.928,20.364,7.818,20.593c4.86.115,5.072,1.805,4.86,6.031s-.845,8.453-.845,8.453-18.549,8.452-7.267,13.946,29.454.2,33.469-9.517c0,0-2.958-11.4,0-23.024,0,0,20.075-14.369,10.143-35.923S482.261,247.97,473.6,263.818Z" fill="#fdcca3"/>
        <path d="M497.883,278.825l1.917,17.406s3.381,17.456,8.875,17.879,6.128-7.819,6.128-7.819,1.479,5.266,4.649,3.055,3.169-17.846,4.648-23.974Z" fill="#813abe"/>
        <path d="M490.5,272.27s-.634,12.89,0,16.694,3.448,4.86,7.607-1.9a37.864,37.864,0,0,0,5.072-12.045Z" fill="#813abe"/>
        <path d="M472.036,258.354s3.047,11.381,20.266,18.354a136.08,136.08,0,0,0,31.8,8.664s16.06-25.78-2.324-37.191S485.771,234.687,472.036,258.354Z" fill="url(#l)"/>
        <path d="M482.276,271.194s-20.3-3.572-29.6-10.757,2.37-10.083,19.358-2.083Z" fill="#1194f6"/>
        <path d="M495.363,298.684s2.324,2.958,7.818.845,8.766-10.292,5.917-14.157-12.4-.634-12.4-.634Z" fill="#fdcca3"/>
        <circle cx="358.834" cy="335.697" r="73.043" transform="translate(-48.356 610.743) rotate(-77.13)" fill="url(#m)"/>
        <circle cx="334.006" cy="312.738" r="10.386" transform="translate(-28.049 592.527) rotate(-80.813)" fill="#3b3457"/>
        <circle cx="389.365" cy="304.626" r="10.386" fill="#3b3457"/>
        <ellipse cx="370.046" cy="348.121" rx="13.951" ry="28.471" fill="#ff4b60"/>
        <path d="M526.03,281.773A48.453,48.453,0,0,0,530,270.21c-1.508-.653-5.612-1.272-8.787,9.019Z" fill="#813abe"/>
        <path d="M510.148,344.439c14.5,1.306,17.078,36.372,5.858,60.606s-49.814,32.761-104.565,13.463c0,0-3.141-16.6,6.283-27.375,0,0,32.544,15.623,57,6.731C484.592,394.274,484.992,342.174,510.148,344.439Z" fill="#5251de"/>
        <path d="M415.705,393.819s-1.757-1.914-2.684-7.076-2.227-6.461-9.276-12.954-8.349-10.946-10.2-6.493,1.67,7.421,2.968,10.389,5.566,7.606,2.227,7.977-17.069-16.511-22.078-13.914-7.035,15.207-2.411,22.071,22.819,12.993,28.385,12.993,8.433,1.847,8.433,1.847Z" fill="#fdcca3"/>
      </g>
    </g>
    <path d="M222.017,151.532H218.8v-3.214a2.931,2.931,0,0,0-5.861,0v3.214h-3.214a2.931,2.931,0,0,0,0,5.861h3.214v3.214a2.931,2.931,0,0,0,5.861,0v-3.214h3.213a2.931,2.931,0,1,0,0-5.861Z" fill="url(#n)"/>
    <path d="M710.161,372.152h-3.214v-3.214a2.93,2.93,0,1,0-5.86,0v3.214h-3.214a2.93,2.93,0,1,0,0,5.86h3.214v3.214a2.93,2.93,0,1,0,5.86,0v-3.214h3.214a2.93,2.93,0,1,0,0-5.86Z" fill="url(#o)"/>
    <path d="M289.808,80.53a6.115,6.115,0,1,1-6.115-6.114A6.114,6.114,0,0,1,289.808,80.53Z" fill="url(#p)"/>
    <path d="M704.017,242a6.115,6.115,0,1,1-6.115-6.114A6.115,6.115,0,0,1,704.017,242Z" fill="url(#q)"/>
    <g>
      <circle cx="213.734" cy="262.195" r="35.697" transform="translate(-63.555 455.946) rotate(-85.757)" fill="#ffed4b"/>
      <path d="M207.045,251.431a6.49,6.49,0,1,1-4.118-8.2A6.489,6.489,0,0,1,207.045,251.431Z" fill="#3b3457"/>
      <circle cx="230.148" cy="259.089" r="6.49" transform="translate(-16.454 15.609) rotate(-3.75)" fill="#3b3457"/>
      <path d="M196.455,264.485h24.339a1.623,1.623,0,0,1,1.623,1.623v6.49a12.981,12.981,0,0,1-12.981,12.981h-1.623A12.981,12.981,0,0,1,194.832,272.6v-6.49a1.623,1.623,0,0,1,1.623-1.623Z" transform="translate(97.133 -51.673) rotate(18.339)" fill="#ff4b60"/>
    </g>
    <g>
      <circle cx="578.42" cy="121.795" r="22.794" transform="translate(130.66 507.689) rotate(-52.647)" fill="#1194f6"/>
      <path d="M574.27,133.892l-3.089-.361c.437-3.732,3.219-6.785,7.261-7.965l.994-.29c4.267-1.246,8.171-.178,10.446,2.856L587.4,130c-1.488-1.986-4.071-2.619-7.087-1.738l-1,.291A6.59,6.59,0,0,0,574.27,133.892Z" fill="#004387"/>
      <path d="M571.872,121.548a4.144,4.144,0,1,1-5.14-2.816A4.145,4.145,0,0,1,571.872,121.548Z" fill="#3b3457"/>
      <path d="M590.768,116.03a4.144,4.144,0,1,1-5.14-2.816A4.144,4.144,0,0,1,590.768,116.03Z" fill="#3b3457"/>
    </g>
    <g>
      <circle cx="507.907" cy="188.855" r="35.697" transform="translate(-4.902 363.965) rotate(-39.25)" fill="#fa6c69"/>
      <path d="M510.461,209.477h0a12.982,12.982,0,0,0-4.254-17.858l-1.382-.85a12.981,12.981,0,0,0-17.858,4.254h0a3.244,3.244,0,0,0,1.064,4.464L506,210.54A3.244,3.244,0,0,0,510.461,209.477Z" fill="#c73b4b"/>
      <path d="M497.466,167.041a6.473,6.473,0,1,0,5.45,10.982Z" fill="#3b3457"/>
      <path d="M530.7,187.49l-12.259.087a6.479,6.479,0,1,0,12.259-.087Z" fill="#3b3457"/>
    </g>
  </g>
</svg>
