<svg xmlns="http://www.w3.org/2000/svg" xmlns:xlink="http://www.w3.org/1999/xlink" width="900" height="600" viewBox="0 0 900 600">
  <defs>
    <linearGradient id="a" data-name="New Gradient Swatch copy 3" x1="609.438" y1="453.263" x2="607.487" y2="238.641" gradientTransform="translate(1216.625 658.988) rotate(-180)" gradientUnits="userSpaceOnUse">
      <stop offset="0" stop-color="#1194f6"/>
      <stop offset="1" stop-color="#95d0ff"/>
    </linearGradient>
    <linearGradient id="b" data-name="New Gradient Swatch copy 2" x1="628.047" y1="340.282" x2="607.514" y2="154.405" gradientUnits="userSpaceOnUse">
      <stop offset="0" stop-color="#813abe"/>
      <stop offset="1" stop-color="#e55ec9"/>
    </linearGradient>
    <linearGradient id="c" data-name="New Gradient Swatch copy" x1="541.699" y1="357.135" x2="493.73" y2="267.593" gradientUnits="userSpaceOnUse">
      <stop offset="0" stop-color="#ffb876"/>
      <stop offset="1" stop-color="#fdcca3"/>
    </linearGradient>
    <linearGradient id="d" data-name="New Gradient Swatch copy 6" x1="232.588" y1="352.484" x2="408.188" y2="110.548" gradientTransform="translate(600.903 517.969) rotate(-180)" gradientUnits="userSpaceOnUse">
      <stop offset="0" stop-color="#e55ec9"/>
      <stop offset="0.999" stop-color="#fdf2fb"/>
    </linearGradient>
    <linearGradient id="e" data-name="New Gradient Swatch copy 4" x1="163.459" y1="378.269" x2="241.759" y2="97.31" gradientUnits="userSpaceOnUse">
      <stop offset="0" stop-color="#3900a3"/>
      <stop offset="1" stop-color="#5251de"/>
    </linearGradient>
    <linearGradient id="f" x1="247.589" y1="401.715" x2="325.889" y2="120.755" xlink:href="#e"/>
    <linearGradient id="g" x1="181.336" y1="80.769" x2="235.588" y2="80.769" xlink:href="#c"/>
    <linearGradient id="h" data-name="New Gradient Swatch" x1="372.954" y1="335.593" x2="464.678" y2="566.623" gradientUnits="userSpaceOnUse">
      <stop offset="0" stop-color="#3900a3"/>
      <stop offset="0" stop-color="#bebad1"/>
      <stop offset="0.499" stop-color="#e8e3f8"/>
      <stop offset="1" stop-color="#f4f0ff"/>
    </linearGradient>
    <linearGradient id="i" x1="358.726" y1="515.628" x2="365.861" y2="419.3" xlink:href="#h"/>
    <linearGradient id="j" x1="370.67" y1="332.036" x2="375.156" y2="384.971" xlink:href="#c"/>
    <linearGradient id="k" x1="337.228" y1="334.87" x2="341.714" y2="387.805" xlink:href="#c"/>
    <linearGradient id="l" x1="266.545" y1="477.836" x2="313.289" y2="364.162" gradientTransform="translate(599.302 794.655) rotate(-180)" xlink:href="#a"/>
    <linearGradient id="m" x1="272.203" y1="391.566" x2="283.413" y2="391.566" xlink:href="#c"/>
    <linearGradient id="n" x1="617.719" y1="139.8" x2="606.708" y2="236.354" xlink:href="#c"/>
    <linearGradient id="o" x1="652.481" y1="143.764" x2="641.471" y2="240.318" xlink:href="#c"/>
    <linearGradient id="p" x1="638.722" y1="339.103" x2="618.189" y2="153.226" xlink:href="#b"/>
    <linearGradient id="q" x1="643.255" y1="371.888" x2="686.814" y2="371.888" xlink:href="#c"/>
    <linearGradient id="r" x1="547.632" y1="353.956" x2="499.663" y2="264.414" xlink:href="#c"/>
    <linearGradient id="s" x1="309.859" y1="408.071" x2="293.655" y2="136.191" xlink:href="#e"/>
    <linearGradient id="t" x1="454.396" y1="263.083" x2="531.741" y2="112.751" gradientTransform="matrix(1, 0, 0, 1, 0, 0)" xlink:href="#d"/>
    <linearGradient id="u" x1="476.591" y1="183.518" x2="530.369" y2="137.857" xlink:href="#b"/>
    <linearGradient id="v" x1="682.095" y1="528.671" x2="742.369" y2="436.585" gradientTransform="matrix(1, 0, 0, 1, 0, 0)" xlink:href="#d"/>
    <linearGradient id="w" x1="135.634" y1="551.2" x2="216.247" y2="361.651" gradientTransform="matrix(1, 0, 0, 1, 0, 0)" xlink:href="#a"/>
    <linearGradient id="x" x1="185.518" y1="455.199" x2="221.467" y2="371.317" xlink:href="#e"/>
    <linearGradient id="y" x1="185.135" y1="455.035" x2="221.084" y2="371.153" xlink:href="#e"/>
    <linearGradient id="z" x1="318.096" y1="114.864" x2="311.982" y2="163.13" xlink:href="#c"/>
    <linearGradient id="aa" x1="288.414" y1="111.104" x2="282.301" y2="159.37" xlink:href="#c"/>
    <linearGradient id="ab" x1="279.599" y1="117.705" x2="347.434" y2="117.705" gradientTransform="matrix(1, 0, 0, 1, 0, 0)" xlink:href="#a"/>
    <linearGradient id="ac" x1="301.59" y1="143.216" x2="361.875" y2="143.216" gradientTransform="matrix(1, 0, 0, 1, 0, 0)" xlink:href="#a"/>
    <linearGradient id="ad" x1="665.902" y1="246.332" x2="742.878" y2="170.395" xlink:href="#h"/>
    <linearGradient id="ae" x1="184.481" y1="379.522" x2="167.838" y2="249.494" xlink:href="#b"/>
    <linearGradient id="af" x1="359.586" y1="278.999" x2="392.874" y2="158.333" gradientTransform="matrix(1, 0, 0, 1, 0, 0)" xlink:href="#a"/>
    <linearGradient id="ag" x1="183.935" y1="558.665" x2="218.827" y2="382.688" xlink:href="#h"/>
  </defs>
  <g>
    <rect x="272.203" y="247.582" width="392.831" height="272.996" fill="#3b3457"/>
    <rect x="341.562" y="218.208" width="254.115" height="350.626" transform="translate(862.14 -75.098) rotate(90)" fill="#efe9ff"/>
    <rect x="504.294" y="264.578" width="208.037" height="129.831" rx="20.764" transform="translate(1216.625 658.988) rotate(180)" fill="url(#a)"/>
    <path d="M597.086,422.2V394.41h33l-29.317,29.316A2.16,2.16,0,0,1,597.086,422.2Z" fill="#fa6c69"/>
    <path d="M641.229,172.479c19.316,13.006,26.028,23.494,23.511,43.212s-3.356,35.659,3.776,42.372,25.172,21.122,15.522,34.894-21.088,17.127-21.088,17.127,5.985,19.3-13.313,20.138-78.032-7.971-81.388-31.465,0-33.982-10.069-41.953-4.615-24.752,0-33.981-9.649-25.172,3.356-38.177,27.269-22.236,41.953-12.167S641.229,172.479,641.229,172.479Z" fill="url(#b)"/>
    <path d="M534.429,315.839l-8.576,6.767s-7.143-19.664-13.736-38.87-8.026-29.382-8.026-29.382l-18.633,5.017s4.587,23.219,9.173,54.464,15.479,44.145,23.792,45.291,41-27.911,41-27.911Z" fill="url(#c)"/>
    <path d="M579.635,275.121c-14.957-.056-22.714,2.805-33.2,17.836a250.4,250.4,0,0,1-17.62,22.882s11.285,14.184,23.682,18.9S579.635,275.121,579.635,275.121Z" fill="#ff4b60"/>
    <path d="M608.313,280.3c-32.932-9.23-38.386-6.987-50.553,12.659s-22.235,39.362-15.522,51.948S556.5,368.818,554.4,394.41h82.647a81.446,81.446,0,0,1,0-38.177c5.035-20.977,24.752-35.241,12.586-52.022S608.313,280.3,608.313,280.3Z" fill="#fa6c69"/>
    <path d="M695.54,520.579H241.7a14.71,14.71,0,0,0-14.71,14.71h0A14.71,14.71,0,0,0,241.7,550H695.54a14.71,14.71,0,0,0,14.71-14.711h0A14.71,14.71,0,0,0,695.54,520.579Z" fill="#c5c0d8"/>
    <rect x="202.703" y="194.069" width="195.496" height="129.831" rx="20.764" transform="translate(600.903 517.969) rotate(180)" fill="url(#d)"/>
    <path d="M274.565,192.361c-31.552-7.417-59.252-4.647-68.024-27.269s0-53.554,0-53.554-14.773-.233-27.238-2.886c0,0-9.234,34.932-8.31,63s11.08,32.222,28.162,42.84,42.219,18,42.219,18Z" fill="url(#e)"/>
    <path d="M319.234,205.463c20.73,9.49,33.619,26.572,42.641,64.429s13.176,54.477,13.176,54.477H340.888l-16.62-29.085Z" fill="#3900a3"/>
    <path d="M290.972,192.985c32.908,8.652,38.836,21.044,42.991,40.435s0,90.949,0,90.949H227.317s3.693-67.866,4.616-87.718S235.516,178.4,290.972,192.985Z" fill="url(#f)"/>
    <path d="M206.541,111.538s12.777-3.6,16.206-14.224,8.331-17.159,12.008-20.428-5.631-7.763-12.008,0l-6.378,7.763s9.806-30.642,1.226-33.5-26.069,0-29.173,4.494-8.415,19.2-6.78,31.051,4.494,18.385,4.494,18.385l.078,4.792Z" fill="url(#g)"/>
    <rect x="264.756" y="368.124" width="208.037" height="129.831" rx="20.764" transform="translate(737.549 866.079) rotate(180)" fill="#813abe"/>
    <path d="M413.871,430.836c18.4,8.458,40,67.119,40,67.119H420.9Z" fill="url(#h)"/>
    <path d="M366.546,417.348c32.27-.1,67.653,13.472,58.64,52.42-4.286,18.523-4.286,28.187-4.286,28.187H304.926s-4.548-28.231-5.117-46.236S327.541,417.468,366.546,417.348Z" fill="url(#i)"/>
    <path d="M386.355,399.859s-3.557,12.746-2.964,21.935c0,0,13.339,2.668,9.485,9.485s-9.485,13.339-24.6,11.56-32.6-14.228-28.01-18.377,8.743-4.743,12.3-32.9Z" fill="#ffb876"/>
    <path d="M401.093,363.083c6.425-2.57,19.223-8.7,18.632-16.384-.321-4.176-6.746-1.927-6.746-1.927s12.207-11.894,12.207-20.4-11.565-.486-14.777,0c0,0,4.819-14.292,0-15.9s-12.529,7.067-17.026,6.746-36.955-7.224-48.187.964-10.923,17.026-10.923,17.026-8.031,5.028-5.461,16.384,11.659,27.306,11.452,35.016-3.971,13.3,0,14.136,6.879-2.327,6.879-2.327-2.577,6.483.747,6.483S358.2,391.43,358.2,391.43Z" fill="#3b3457"/>
    <path d="M404.351,343.792s0,23.389-2.648,36.628-18.043,29.567-29.322,27.8-25.841-13.68-29.372-26.919-2.647-43.92-2.647-43.92Z" fill="url(#j)"/>
    <path d="M347.143,376.254s-5.16,3.855-9.336,0-9.316-19.275-4.819-22.166,14.155,2.57,14.155,2.57Z" fill="url(#k)"/>
    <path d="M408.586,337.383s3.853,12.086-13.339,12.383-30.164-6.184-36.388-1.738-5.478,26.648-12.785,24.13c-2.807-.967-8.924-26.542-8.924-26.542V330.8Z" fill="#3b3457"/>
    <path d="M316.42,428.9h0c-22.305,10.219-39.645,42.618-44.478,69.059L268.5,507.5s9.21,4.237,16.166-2.778,37.47-38.2,37.47-38.2A31.382,31.382,0,0,0,316.42,428.9Z" fill="#f4f0ff"/>
    <path d="M299.651,433.43s-2.455,19.678-7.108,36.338S278.938,511.335,268.5,507.5s-11.343-18.518-4.419-38.136c5.474-15.509,15.54-40.7,15.54-40.7Z" fill="#ffb876"/>
    <rect x="279.618" y="361.226" width="40.067" height="72.204" rx="4.766" transform="translate(599.302 794.655) rotate(180)" fill="url(#l)"/>
    <circle cx="308.516" cy="372.158" r="4.034" fill="#1194f6"/>
    <path d="M269.423,404.494a21.551,21.551,0,0,1,11.115-9.341c9.555-3.6,18.428-6.649,17.282-2.066-1.375,5.5-9.63,9.812-9.63,9.812s9.831-6.7,9.731,0,2.651,26.162-4.916,30.531-14.445,5.231-18.228-2.594-8.148-21.454-5.435-26.2Z" fill="#fdcca3"/>
    <path d="M276.575,400.341s-1.357-4.439-3.391-9.566-.9-9.647,3.391-7.387,6.838,13.94,6.838,13.94Z" fill="url(#m)"/>
    <path d="M593.514,260.883s1.957,11.3,0,17.956l-1.36,4.625s-12.787-1.088-12.515,10.882,13.875,21.493,26.118,21.493,26.934-8.162,23.941-17.14-6.529-7.617-6.529-11.97,1.9-21.221,4.625-32.375Z" fill="#ffb876"/>
    <path d="M605.471,183.04c-17.735-1.844-31.64,18.271-32.085,44.117s8.912,37.433,23.173,40.553,33.867-9.8,38.769-19.608S661.175,188.833,605.471,183.04Z" fill="url(#n)"/>
    <path d="M635.411,232.589s10.339-7.346,14.964-2.449.816,20.405-7.482,21.493a14.58,14.58,0,0,1-12.8-4.353Z" fill="url(#o)"/>
    <path d="M598.455,172.479c-13.884,8.617-7.971,29.787,4.195,38.6s29.024,5.688,32.761,21.513,21.358,14.986,21.358,14.986,4.58-63.769-15.54-75.1S610.621,164.928,598.455,172.479Z" fill="url(#p)"/>
    <polygon points="667.014 349.366 686.814 394.41 659.263 394.41 643.255 360.347 667.014 349.366" fill="url(#q)"/>
    <path d="M637.383,292.957c18.967,9.156,27.357,43.977,32.811,57.822,0,0-8.053,12.059-22.655,15.942l-6.31,1.678s-19.562-26.733-17.407-43.212S637.383,292.957,637.383,292.957Z" fill="#fa6c69"/>
    <path d="M504.091,254.354s5.28-4.649,4.319-14.237-5.769-8.146-8.173-17.04-8.173-12.018-8.413-7.451,6.73,14.182,3.125,16.345S476.2,212.02,469.47,214.664s-10.817,20.619-6.01,25.453,22,19.254,22,19.254Z" fill="url(#r)"/>
    <path d="M321.333,351.5V323.708h-33l29.316,29.316A2.16,2.16,0,0,0,321.333,351.5Z" fill="url(#s)"/>
    <path d="M500.565,472.566H472.776v-33l29.317,29.317A2.16,2.16,0,0,1,500.565,472.566Z" fill="#813abe"/>
    <path d="M521.026,535.289H416.212a14.71,14.71,0,0,1-14.71-14.71H535.736A14.71,14.71,0,0,1,521.026,535.289Z" fill="#9d96b8"/>
    <rect x="471.041" y="133.431" width="69.48" height="59.554" rx="9.926" fill="url(#t)"/>
    <path d="M492.547,175.937V150.479a3.309,3.309,0,0,1,4.844-2.931l24.3,12.729a3.309,3.309,0,0,1,0,5.862l-24.3,12.729A3.309,3.309,0,0,1,492.547,175.937Z" fill="url(#u)"/>
    <g>
      <path d="M726.733,433.536a26.883,26.883,0,0,0-38.019,0A26.883,26.883,0,1,0,650.7,471.554l38.019,37.125,38.019-37.125A26.882,26.882,0,0,0,726.733,433.536Z" fill="#ff4b60"/>
      <path d="M735.7,467.62a14.337,14.337,0,0,0-20.274,0,14.336,14.336,0,0,0-20.274,20.274l20.274,20.274L735.7,487.894A14.337,14.337,0,0,0,735.7,467.62Z" fill="url(#v)"/>
    </g>
    <path d="M172.029,358.7h55.527a7.933,7.933,0,0,1,7.933,7.933v67.426a7.933,7.933,0,0,1-7.933,7.933H172.029a7.932,7.932,0,0,1-7.932-7.932V366.628A7.932,7.932,0,0,1,172.029,358.7Z" fill="url(#w)"/>
    <path d="M226.215,420.211l-12.692-22.563a1.983,1.983,0,0,0-3.5.085l-5.478,10.956L193.617,387.83a1.982,1.982,0,0,0-3.513,0l-17.016,32.485a3.965,3.965,0,0,0,3.513,5.806h46.157A3.966,3.966,0,0,0,226.215,420.211Z" fill="url(#x)"/>
    <path d="M227.557,374.56a7.933,7.933,0,1,1-7.933-7.932A7.933,7.933,0,0,1,227.557,374.56Z" fill="url(#y)"/>
    <path d="M289.616,155.7s-3.5,16.983-7.422,15.9-2.6-9.823-2.6-9.823-5.034,5.3-5.828-2.649,4.795-25.382,5.828-35.83l15.416,2.181-6.576,24.906Z" fill="#3b3457"/>
    <path d="M310.6,181.916s-6.093,12.179-6.623,17.406l8.213,5.492s13.248,25.435-14.572,24.905-31.264-30.734-31-37.093l7.948-.265s10.453-26.658,10.942-36.118Z" fill="#ffb876"/>
    <path d="M343.571,130.867c-.422,17.372-5.076,38.763-16.613,48.916s-18.334,8.5-24.067,3.07-20.215-16.322-16.9-36.07,5.431-32.118,15.086-36.342S344.123,108.148,343.571,130.867Z" fill="url(#z)"/>
    <path d="M289.616,155.7s-9.487,5.552-11.606-6.371,3.444-23.051,12.717-12.453Z" fill="url(#aa)"/>
    <path d="M301.59,125.746s-7.3,21.037-11.448,21.037-1.7-26.071-1.7-26.071Z" fill="#3b3457"/>
    <path d="M346.631,138.19s3.129-18.5-2.965-28.428-38.56-23.258-56.337-7.545c-5.4,4.769-7.73,21.083-7.73,21.083s12.188,6.094,21.991,6.889L328.1,140.428Z" fill="url(#ab)"/>
    <path d="M346.631,138.19s-25.261,1.165-45.041-8c0,0,5.829,14.943,26.5,21.037s36.563,7.26,33.384,0S346.631,138.19,346.631,138.19Z" fill="url(#ac)"/>
    <path d="M706,210.27h-3.585v-3.585a3.269,3.269,0,1,0-6.538,0v3.585h-3.586a3.269,3.269,0,0,0,0,6.538h3.586v3.585a3.269,3.269,0,1,0,6.538,0v-3.585H706a3.269,3.269,0,1,0,0-6.538Z" fill="url(#ad)"/>
    <path d="M177.084,264.915H173.5V261.33a3.269,3.269,0,1,0-6.538,0v3.585h-3.586a3.269,3.269,0,0,0,0,6.538h3.586v3.585a3.269,3.269,0,0,0,6.538,0v-3.585h3.585a3.269,3.269,0,1,0,0-6.538Z" fill="url(#ae)"/>
    <path d="M400.066,156.989a6.822,6.822,0,1,1-6.822-6.822A6.822,6.822,0,0,1,400.066,156.989Z" fill="url(#af)"/>
    <path d="M207.407,474.688a6.822,6.822,0,1,1-6.822-6.821A6.822,6.822,0,0,1,207.407,474.688Z" fill="url(#ag)"/>
  </g>
</svg>
