<?xml version="1.0" encoding="utf-8"?>
<svg width="1536" height="952" xmlns="http://www.w3.org/2000/svg">
  <defs>
    <linearGradient id="e" x1="49.979%" x2="49.979%" y1="116.782%" y2="16.248%">
      <stop offset="0.2" stop-color="#88CFDA"/>
      <stop offset="0.23" stop-color="#A0D3CE"/>
      <stop offset="0.28" stop-color="#C2D8BE"/>
      <stop offset="0.33" stop-color="#DDDCB1"/>
      <stop offset="0.38" stop-color="#F0DFA7"/>
      <stop offset="0.44" stop-color="#FBE0A2"/>
      <stop offset="0.49" stop-color="#FFE1A0"/>
      <stop offset="0.6" stop-color="#FFE9BB"/>
      <stop offset="0.77" stop-color="#FFF5E0"/>
      <stop offset="0.91" stop-color="#FFFCF7"/>
      <stop offset="1" stop-color="#FFF"/>
    </linearGradient>
    <linearGradient id="f" x1="50%" x2="50%" y1="0%" y2="99.961%">
      <stop offset="0" stop-color="#88AEDA"/>
      <stop offset="0.04" stop-color="#8EAED4"/>
      <stop offset="0.5" stop-color="#CBA895"/>
      <stop offset="0.83" stop-color="#F1A56D"/>
      <stop offset="1" stop-color="#FFA45E"/>
    </linearGradient>
    <linearGradient id="g" x1=".026%" x2="100.039%" y1="50%" y2="50%">
      <stop offset="0" stop-color="#88CFDA"/>
      <stop offset="0.04" stop-color="#8ED0D4"/>
      <stop offset="0.5" stop-color="#CBD995"/>
      <stop offset="0.83" stop-color="#F1DF6D"/>
      <stop offset="1" stop-color="#FFE15E"/>
    </linearGradient>
    <linearGradient id="h" x1=".088%" x2="100.022%" y1="50%" y2="50%">
      <stop offset="0" stop-color="#A1BAFF"/>
      <stop offset="0.08" stop-color="#B5C9FF"/>
      <stop offset="0.21" stop-color="#D0DDFF"/>
      <stop offset="0.35" stop-color="#E5ECFF"/>
      <stop offset="0.51" stop-color="#F4F7FF"/>
      <stop offset="0.7" stop-color="#FCFDFF"/>
      <stop offset="1" stop-color="#FFF"/>
    </linearGradient>
    <linearGradient id="i" x1="-38.332%" x2="124.337%" y1="-3.41%" y2="81.581%">
      <stop offset="0" stop-color="#3D00BA"/>
      <stop offset="0.75" stop-color="#CE00FF"/>
    </linearGradient>
    <linearGradient id="j" x1="116.655%" x2="-24.055%" y1="29.7%" y2="65.488%">
      <stop offset="0" stop-color="#3D00BA"/>
      <stop offset="0.75" stop-color="#CE00FF"/>
    </linearGradient>
    <linearGradient id="k" x1="-.266%" x2="99.778%" y1="50%" y2="50%">
      <stop offset="0" stop-color="#3D00BA"/>
      <stop offset="0.75" stop-color="#CE00FF"/>
    </linearGradient>
    <linearGradient id="l" x1="-.001%" x2="99.992%" y1="50.015%" y2="50.015%">
      <stop offset="0" stop-color="#A1BAFF"/>
      <stop offset="0.04" stop-color="#A9C0FF"/>
      <stop offset="0.37" stop-color="#E7EDFF"/>
      <stop offset="0.52" stop-color="#FFF"/>
      <stop offset="1" stop-color="#CEDBFF"/>
    </linearGradient>
    <linearGradient id="m" x1=".07%" x2="100%" y1="49.93%" y2="49.93%">
      <stop offset="0" stop-color="#7633FF"/>
      <stop offset="0.22" stop-color="#4E53FF"/>
      <stop offset="0.44" stop-color="#2C6DFF"/>
      <stop offset="0.65" stop-color="#1480FF"/>
      <stop offset="0.84" stop-color="#058CFF"/>
      <stop offset="1" stop-color="#0090FF"/>
    </linearGradient>
    <linearGradient id="n" x1="-.068%" x2="99.99%" y1="49.985%" y2="49.985%">
      <stop offset="0" stop-color="#3D00BA"/>
      <stop offset="0.75" stop-color="#CE00FF"/>
    </linearGradient>
    <linearGradient id="Z" x1="61.787%" x2="42.218%" y1="12.727%" y2="107.146%">
      <stop offset="0" stop-color="#88CFDA"/>
      <stop offset="0.01" stop-color="#89CFD9"/>
      <stop offset="0.48" stop-color="#C8D9BB"/>
      <stop offset="0.82" stop-color="#F0DFA7"/>
      <stop offset="1" stop-color="#FFE1A0"/>
    </linearGradient>
    <linearGradient id="aa" x1="-.079%" x2="100%" y1="50.733%" y2="50.733%">
      <stop offset="0" stop-color="#A1BAFF"/>
      <stop offset="0.09" stop-color="#ACC2FF"/>
      <stop offset="0.5" stop-color="#D9E3FF"/>
      <stop offset="0.82" stop-color="#F5F7FF"/>
      <stop offset="1" stop-color="#FFF"/>
    </linearGradient>
    <linearGradient id="ab" x1="-.011%" x2="99.386%" y1="50.203%" y2="50.203%">
      <stop offset="0" stop-color="#A1BAFF"/>
      <stop offset="0.09" stop-color="#ACC2FF"/>
      <stop offset="0.5" stop-color="#D9E3FF"/>
      <stop offset="0.82" stop-color="#F5F7FF"/>
      <stop offset="1" stop-color="#FFF"/>
    </linearGradient>
  </defs>
  <g fill="none">
    <path fill="#FFF" d="M791.033 610.235c-.268-3.782-3.373-6.718-7.125-6.735-2.964.016-5.604 1.898-6.613 4.714a7.043 7.043 0 0 0-5.126-2.383c-3.964 0-7.177 3.247-7.177 7.253a7.317 7.317 0 0 0 3.742 6.372 7.208 7.208 0 0 0-1.167 7.578 7.074 7.074 0 0 0 6.293 4.285 7.476 7.476 0 0 0 3.691-1.036 6.44 6.44 0 0 0 0 1.036c0 2.862 2.295 5.181 5.126 5.181 2.831 0 5.126-2.32 5.126-5.18.05-.413.05-.83 0-1.244.899.272 1.831.411 2.769.415 4.759-.874 8.267-4.99 8.415-9.877.148-4.886-3.103-9.212-7.8-10.38h-.154ZM597.068 631.03c-.257-3.648-3.224-6.487-6.823-6.53-2.877-.005-5.448 1.823-6.428 4.571a6.975 6.975 0 0 0-4.945-2.31c-3.158.02-5.902 2.208-6.671 5.32-.769 3.113.633 6.36 3.408 7.892a6.744 6.744 0 0 0-1.681 4.571c0 3.829 3.055 6.932 6.823 6.932a6.694 6.694 0 0 0 3.56-1.004 3.47 3.47 0 0 0 0 1.004c0 2.775 2.214 5.024 4.945 5.024 2.73 0 4.944-2.25 4.944-5.024a4.338 4.338 0 0 0 0-1.155c.874.219 1.77.337 2.67.352 4.59-.847 7.974-4.84 8.117-9.577.143-4.739-2.993-8.934-7.524-10.065h-.395ZM822.97 628.364a16.64 16.64 0 0 1-8.71-1.864c-1.497.016-2.797.972-3.166 2.329-.369 1.357.284 2.777 1.592 3.46a2.788 2.788 0 0 0-.787 1.962 2.892 2.892 0 0 0 .919 2.148 3.315 3.315 0 0 0 2.282.893 3.483 3.483 0 0 0 1.732-.441 1.285 1.285 0 0 0 0 .441c0 1.22 1.057 2.208 2.36 2.208 1.305 0 2.362-.988 2.362-2.208a1.652 1.652 0 0 0 0-.49 5.61 5.61 0 0 0 1.312 0c2.346-.235 4.126-2.086 4.126-4.293 0-2.206-1.78-4.057-4.126-4.292l.105.147ZM640.562 613.41a4.173 4.173 0 0 0-4.228-3.91 4.124 4.124 0 0 0-3.918 2.727 4.285 4.285 0 0 0-4.696-1.084 4.27 4.27 0 0 0-2.728 3.966 4.167 4.167 0 0 0 2.217 3.704 4.368 4.368 0 0 0-1.031 2.779 4.223 4.223 0 0 0 4.227 4.219 4.44 4.44 0 0 0 2.166-.618 2.567 2.567 0 0 0 0 .618 3.091 3.091 0 0 0 3.067 2.689 3.091 3.091 0 0 0 3.068-2.69 3.03 3.03 0 0 0 0-.72 5.786 5.786 0 0 0 1.65 0 5.974 5.974 0 0 0 5.633-5.777 5.972 5.972 0 0 0-5.273-6.108l-.154.206ZM567.693 664.526c-.088-1.517-1.211-2.765-2.693-2.99a3.163 3.163 0 0 0-3.439 2.057 3.098 3.098 0 0 0-2.35-1.089c-1.778 0-3.219 1.463-3.219 3.266a3.26 3.26 0 0 1 1.754 2.355 3.297 3.297 0 0 1-.834 2.829c0 .852.333 1.67.928 2.272.594.603 1.4.941 2.24.941a3.336 3.336 0 0 0 1.635-.466v.466c0 1.289 1.029 2.333 2.299 2.333s2.299-1.044 2.299-2.333a1.945 1.945 0 0 0 0-.57c1.343.37 2.78.087 3.889-.765a4.584 4.584 0 0 0 1.782-3.589 4.497 4.497 0 0 0-1.157-3.284 4.367 4.367 0 0 0-3.134-1.433Z"/>
    <path fill="url(#e)" d="M891.461 861.96c49.178-2.344 100.706-4.19 144.531-8.18-11.607-49.884-58.233-88.694-108.26-88.943a100.296 100.296 0 0 0-43.725 9.977c-6.704-29.93-31.518-52.179-61.284-52.328 0-1.247 0-2.445-.25-3.692.218-1.737.335-3.486.35-5.238 0-22.846-16.96-41.503-38.122-41.603a35.96 35.96 0 0 0-13.707 2.744c-1.66-15.291-11.85-28.331-26.315-33.672l-18.46-53.525H695.85l-18.61 52.378a30.099 30.099 0 0 0-7.354-.948c-18.927.704-33.716 16.543-33.069 35.418a34.82 34.82 0 0 0 .4 4.988v1.147a44.737 44.737 0 0 0-16.959-3.392c-27.015 0-49.027 23.396-49.227 52.578a35.368 35.368 0 0 0-5.003-.549c-12.619.222-23.883 7.94-28.616 19.605a101.302 101.302 0 0 0-58.883-19.355c-59.284-.3-107.61 51.43-107.91 115.53v6.685a29.267 29.267 0 0 0-22.967-15.557 29.307 29.307 0 0 0-25.661 10.569c135.526 20.701 341.641 26.438 569.469 15.364Z"/>
    <path fill="url(#f)" d="M748.521 497.5h-75.108c-15.25 17.328-22.874 39.904-21.192 62.76a101.184 101.184 0 0 1 12.493-11.787 1.385 1.385 0 0 1 1.566-.078c.487.3.73.869.609 1.421-1.315 8.405 0 33.717 44.104 76.684 44.255-42.967 45.52-68.28 44.053-76.684a1.384 1.384 0 0 1 .659-1.398 1.436 1.436 0 0 1 1.566.055 105.452 105.452 0 0 1 12.493 11.786c1.68-22.863-5.964-45.444-21.243-62.759Z"/>
    <path fill="url(#g)" d="M710.48 468.5s-48.349 37.81 0 103c48.401-65.19 0-103 0-103Z"/>
    <path fill="url(#h)" d="M711.481 491.5s-28.1 22.77 0 62c28.15-39.23 0-62 0-62Z"/>
    <path fill="#949494" stroke="#424242" stroke-width="3.46" d="m657.992 479.5 5.344 11.227c2.28 4.768 6.798 7.761 11.727 7.773h70.858c4.933 0 9.455-2.997 11.727-7.773l5.344-11.227h-105Z"/>
    <path fill="#4D4D4D" stroke="#424242" stroke-width="3.46" d="m641.992 460.5 6.965 12.987c2.973 5.535 8.884 9.01 15.334 9.013h92.402c6.45-.003 12.361-3.478 15.334-9.013l6.965-12.987h-137Z"/>
    <path fill="url(#i)" d="M775.736 356.5s117.383 40.025 109.914 157c0 0-98.862-100.064-152.658-78.5l42.744-78.5Z"/>
    <path fill="url(#j)" d="M645.298 356.5s-117.433 40.025-109.964 157c0 0 98.862-100.064 152.658-78.5l-42.694-78.5Z"/>
    <path fill="url(#k)" d="M766.992 132.5a367.579 367.579 0 0 0-56.7-97 368.184 368.184 0 0 0-56.3 95.951 240.918 240.918 0 0 1 113 1.049Z"/>
    <path fill="url(#l)" d="m768.644 137.011-1.551-3.97a230.461 230.461 0 0 0-112.767-1.055l-1.952 5.025c-51.503 133.862-28.129 279.13-20.02 320.133 1.353 6.607 7.144 11.351 13.864 11.356H774.5c6.72-.005 12.511-4.749 13.865-11.356 8.408-41.003 31.782-186.271-19.72-320.133Z"/>
    <path fill="#000" d="M754.992 240.949c.02 19.62-11.419 37.32-28.98 44.843-17.56 7.523-37.784 3.386-51.235-10.48-13.452-13.867-17.482-34.732-10.21-52.86 7.271-18.13 24.412-29.952 43.426-29.952 25.937 0 46.972 21.683 46.999 48.449Z"/>
    <path fill="#7C7C7C" stroke="#424242" stroke-width="3.46" d="M736.452 269.34c14.946-13.955 15.439-37.06 1.101-51.608-14.337-14.547-38.075-15.027-53.021-1.072-14.946 13.955-15.439 37.06-1.101 51.608 14.337 14.547 38.075 15.027 53.021 1.072Z"/>
    <path fill="url(#m)" d="M743.992 240.45a36 36 0 1 1-36-35.95c19.863 0 35.973 16.087 36 35.95Z"/>
    <path fill="#000" stroke="#424242" stroke-width="3.46" d="M711.017 210.4c14.063-.007 26.886 8.082 32.983 20.807-3.628-13.508-14.574-23.78-28.241-26.503-13.668-2.722-27.69 2.577-36.178 13.673-8.488 11.095-9.971 26.065-3.828 38.623a36.36 36.36 0 0 1-1.368-9.768c0-20.322 16.392-36.804 36.632-36.832Z" opacity=".08"/>
    <path fill="url(#n)" d="M711.504 371.5a207.831 207.831 0 0 0 0 167 208.083 208.083 0 0 0 0-167Z"/>
    <path fill="url(#Z)" d="M 849.056 231.606 C 869.576 251.876 900.556 258.034 927.527 247.204 C 954.497 236.374 972.139 210.694 972.212 182.155 C 972.285 153.616 954.775 127.85 927.86 116.888 C 900.945 105.927 869.934 111.933 849.31 132.103 C 821.279 159.553 821.165 204.017 849.056 231.606 L 849.056 231.606 Z"/>
    <path fill="url(#aa)" d="M 923.442 231.806 C 928.891 231.805 934.243 233.246 938.955 235.982 C 939.574 226.445 944.783 217.778 952.966 212.672 C 961.149 207.566 971.315 206.638 980.307 210.178 C 984.638 192.778 1001.644 181.468 1019.606 184.04 C 1037.568 186.611 1050.618 202.224 1049.763 220.122 L 1049.763 221.613 C 1069.347 221.613 1085.222 237.284 1085.222 256.616 C 1085.222 275.947 1069.347 291.618 1049.763 291.618 C 1048.555 291.695 1047.344 291.695 1046.137 291.618 L 926.767 291.618 C 925.66 291.693 924.549 291.693 923.442 291.618 C 906.752 291.618 893.222 278.262 893.222 261.786 C 893.222 245.311 906.752 231.955 923.442 231.955 L 923.442 231.805 L 923.442 231.806 Z" opacity=".6"/>
    <path fill="url(#ab)" d="M 926.642 163.004 C 922.926 163.014 919.284 164.037 916.106 165.963 C 915.374 155.039 906.38 146.556 895.531 146.555 C 893.228 146.55 890.942 146.94 888.771 147.708 C 885.656 137.519 876.328 130.566 865.761 130.557 C 864.95 130.505 864.137 130.505 863.326 130.557 C 853.386 131.188 844.856 137.924 841.856 147.507 C 839.685 146.739 837.399 146.349 835.097 146.354 C 824.238 146.354 815.229 154.831 814.472 165.762 C 806.997 161.287 797.51 162.031 790.825 167.617 C 784.118 173.204 781.605 182.437 784.544 190.697 C 787.482 198.957 795.239 204.47 803.936 204.479 L 837.93 204.479 C 838.874 204.531 839.82 204.531 840.763 204.479 L 926.642 204.479 C 934.262 204.856 941.467 200.969 945.389 194.366 C 949.31 187.753 949.31 179.528 945.389 172.916 C 941.467 166.313 934.261 162.426 926.642 162.803 L 926.642 163.004 Z" opacity=".3"/>
    <ellipse cx="704.153" cy="339.693" fill="#FFF" rx="2.5" ry="3.139" style=""/>
    <circle cx="1019.992" cy="306.5" r="3" fill="#FFF" style="" transform="matrix(1, 0, 0, 1.046275, -228.339096, -9.239636)"/>
    <ellipse cx="874.153" cy="341.785" fill="#FFF" rx="3.5" ry="2.093" style=""/>
    <circle cx="1227.492" cy="350" r="2.5" fill="#FFF" style="" transform="matrix(1, 0, 0, 1.046275, -228.339096, -9.239636)"/>
    <ellipse cx="952.653" cy="295.749" fill="#FFF" rx="3" ry="2.093" style=""/>
    <ellipse cx="1038.653" cy="225.126" fill="#FFF" rx="3" ry="2.616" style=""/>
    <circle cx="1306.992" cy="314.5" r="3" fill="#FFF" style="" transform="matrix(1, 0, 0, 1.046275, -228.339096, -9.239636)"/>
  </g>
</svg>