<svg xmlns="http://www.w3.org/2000/svg" xmlns:xlink="http://www.w3.org/1999/xlink" width="900" height="600" viewBox="0 0 900 600">
  <defs>
    <linearGradient id="a" data-name="New Gradient Swatch" x1="451.732" y1="723.5" x2="449.551" y2="468.336" gradientUnits="userSpaceOnUse">
      <stop offset="0" stop-color="#3900a3"/>
      <stop offset="0" stop-color="#bebad1"/>
      <stop offset="0.499" stop-color="#e8e3f8"/>
      <stop offset="1" stop-color="#f4f0ff"/>
    </linearGradient>
    <linearGradient id="b" data-name="New Gradient Swatch copy" x1="249.16" y1="298.528" x2="282.451" y2="298.528" gradientUnits="userSpaceOnUse">
      <stop offset="0" stop-color="#ffb876"/>
      <stop offset="1" stop-color="#fdcca3"/>
    </linearGradient>
    <linearGradient id="c" data-name="New Gradient Swatch copy 4" x1="292.642" y1="322.658" x2="290.694" y2="608.99" gradientUnits="userSpaceOnUse">
      <stop offset="0" stop-color="#3900a3"/>
      <stop offset="1" stop-color="#5251de"/>
    </linearGradient>
    <linearGradient id="d" data-name="New Gradient Swatch copy 3" x1="281.068" y1="495.662" x2="361.438" y2="500.685" gradientUnits="userSpaceOnUse">
      <stop offset="0" stop-color="#1194f6"/>
      <stop offset="1" stop-color="#95d0ff"/>
    </linearGradient>
    <linearGradient id="e" x1="415.396" y1="319.826" x2="454.687" y2="449.159" xlink:href="#a"/>
    <linearGradient id="f" x1="388.253" y1="349.303" x2="401.236" y2="154.56" xlink:href="#d"/>
    <linearGradient id="g" x1="469.804" y1="350.818" x2="625.338" y2="49.083" xlink:href="#a"/>
    <linearGradient id="h" data-name="New Gradient Swatch copy 2" x1="577.27" y1="376.253" x2="533.659" y2="240.769" gradientUnits="userSpaceOnUse">
      <stop offset="0" stop-color="#813abe"/>
      <stop offset="1" stop-color="#e55ec9"/>
    </linearGradient>
    <linearGradient id="i" x1="579.239" y1="375.62" x2="535.628" y2="240.134" xlink:href="#h"/>
    <linearGradient id="j" x1="468.659" y1="250.708" x2="492.993" y2="189.873" gradientUnits="userSpaceOnUse">
      <stop offset="0" stop-color="#ff4b60"/>
      <stop offset="1" stop-color="#e55ec9"/>
    </linearGradient>
    <linearGradient id="k" x1="512.4" y1="215.901" x2="583.832" y2="455.622" xlink:href="#d"/>
    <linearGradient id="l" x1="557.202" y1="741.592" x2="549.201" y2="410.331" xlink:href="#d"/>
    <linearGradient id="m" x1="423.025" y1="540.027" x2="600.74" y2="360.091" xlink:href="#c"/>
    <linearGradient id="n" x1="420.985" y1="400.781" x2="426.248" y2="553.397" xlink:href="#d"/>
    <linearGradient id="o" x1="493.955" y1="468.435" x2="526.792" y2="468.435" xlink:href="#d"/>
    <linearGradient id="p" x1="307.533" y1="194.738" x2="305.14" y2="221.063" xlink:href="#b"/>
    <linearGradient id="q" x1="285.415" y1="190.214" x2="313.631" y2="140.051" xlink:href="#d"/>
    <linearGradient id="r" x1="308.974" y1="137.925" x2="303.131" y2="389.197" xlink:href="#a"/>
    <linearGradient id="s" x1="346.77" y1="269.662" x2="389.514" y2="232.152" xlink:href="#b"/>
    <linearGradient id="t" x1="572.349" y1="219.206" x2="625.433" y2="50.998" xlink:href="#d"/>
    <linearGradient id="u" x1="527.188" y1="394.682" x2="559.637" y2="317.506" xlink:href="#d"/>
    <linearGradient id="v" x1="269.4" y1="110.513" x2="365.818" y2="281.923" xlink:href="#a"/>
    <linearGradient id="w" x1="253.291" y1="215.01" x2="349.709" y2="385.447" xlink:href="#c"/>
    <linearGradient id="x" x1="388.19" y1="152.306" x2="456.936" y2="84.489" xlink:href="#a"/>
    <linearGradient id="y" x1="676.467" y1="378.643" x2="661.603" y2="262.518" xlink:href="#h"/>
    <linearGradient id="z" x1="445.066" y1="190.327" x2="474.795" y2="82.562" xlink:href="#d"/>
    <linearGradient id="aa" x1="593.581" y1="445.05" x2="624.742" y2="287.889" xlink:href="#a"/>
    <linearGradient id="ab" data-name="New Gradient Swatch copy 6" x1="440.403" y1="211.729" x2="316.342" y2="24.799" gradientUnits="userSpaceOnUse">
      <stop offset="0" stop-color="#e55ec9"/>
      <stop offset="0.999" stop-color="#fdf2fb"/>
    </linearGradient>
  </defs>
  <g>
    <path d="M672.747,518.01c-.7-8.3-12.184-11.06-21.133-11.567a1478.286,1478.286,0,0,0-185.2,1.146c-24.2,1.669-48.167,6.542-71.762-.046-21.771-6.079-43.338-12.057-65.4-17.6-32.96-8.282-76.953,1.343-99.688,26.885a9.328,9.328,0,0,0,3.273,14.736c37.39,16.157,98.761,5.351,136.4,5.351,18.22,2.483,35.672,8.553,53.81,11.509,13.813,2.251,28.666,2.457,41.688-1.82,7.825-.092,15.655-.6,23.172-1.228l162.977-13.54C660.686,531.022,673.521,527.12,672.747,518.01Z" fill="url(#a)"/>
    <path d="M489.866,420.126s-14.215,2.584-14.732,15.248,21.684,77.6,21.684,77.6Z" fill="#3900a3"/>
    <path d="M255.938,263.377s-6.778,21.122-6.778,26.352,14.022,18.537,19.94,20.545a27.32,27.32,0,0,0,0,10.293c1.148,4.77-8.643,7.531-7.137,11.3s10.042,1,13.557-2.259,6.931-24.352,6.931-24.352l-17.977-17.071,7-16.934Z" fill="url(#b)"/>
    <path d="M270.223,222.748c-8.508,6.627-18.28,42.047-18.28,42.047A30.481,30.481,0,0,0,274,274.05Z" fill="#c5c0d8"/>
    <path d="M279.953,499.217s-2.517,10.977,2.684,17.745c1.573,2.047,12.491,1.8,17.027,1.311s23.5,4.015,29.4,2.263c3.642-1.081,3.037-4.761.528-6.857s-17.7-2.252-27.008-13.51Z" fill="#229af9"/>
    <path d="M276.555,316.89s-14.388,17.587,2.147,46.675c0,0,1.621,44.341,0,56.561s-6.128,41.038.72,80.3a28.231,28.231,0,0,0,24.391,0s7.518-73.511,8.354-92.307,2.088-58.475,2.088-58.475l-4.594-32.754Z" fill="url(#c)"/>
    <path d="M299.519,319.694s-10.415,28.48,10.935,43.062l13.539,44.264a189.224,189.224,0,0,0-7.672,37.917c-2.066,22.9-2.743,36.547-2.743,36.547l22.912,4.686s14.06-51.551,17.7-78.108-14.619-93.633-14.619-93.633Z" fill="#5251de"/>
    <path d="M316.123,482s-6.068,17.6-2.79,21.206,13.467,4.613,17.94,6.37c9.66,3.8,24.5,6.647,29.325,6.9,3.277.173,4.312-5,0-8.452s-16.648-7.835-24.108-21.858Z" fill="url(#d)"/>
    <path d="M436.88,384.857h0a3.193,3.193,0,0,1-4.092-1.908l-18.721-51.436a3.192,3.192,0,0,1,1.908-4.092h0a3.192,3.192,0,0,1,4.092,1.908l18.721,51.436A3.192,3.192,0,0,1,436.88,384.857Z" fill="url(#e)"/>
    <rect x="360.142" y="173.048" width="69.948" height="146.646" rx="6.945" fill="url(#f)"/>
    <circle cx="393.706" cy="286.106" r="15.938" transform="translate(24.799 603.546) rotate(-76.718)" fill="#194ad2"/>
    <path d="M430.09,178.645l24.163-1.983s19.725-22.649,45.944-38.03c9.982-5.856,22.816-43.567,22.5-48.559s.872-33.829,0-37.711,32.718-8.348,33.727,34.384c.341,14.419-12.3,51.576-5.149,58.231,0,0,83.687,2.219,92.56,7.21s14.974,18.368,8.319,29.149-3.242,13.554,2.816,22.427-7.2,22.958-16.681,35.257c-3.851,5,4.374,11.6.849,24.357s-10.967,8.839-12.533,13.54,7.892,28.264-18.8,33.562-91.794-5.554-129.18-5.554H430.09Z" fill="url(#g)"/>
    <path d="M519.447,295.608c1.309-12.228-14.692-30.317,3.561-48.5,12.031-11.987,44.235-15.374,54.5,8.826,3.083,7.269-4.109,20,2.055,28.19s19.654,19.53,16.438,29.763c-3.767,11.986,14.726,25.684-12.671,32.533s-37.238-18.492-37.238-18.492-18.944,6.849-26.64-6.507S518.581,303.7,519.447,295.608Z" fill="url(#h)"/>
    <path d="M523.354,263.137s-1.527,13.481,1.833,26.592,7.33,13.723,10.689,13.723,7.33-1.528,9.468-1.528,4.887,14.966,4.887,14.966l18.936-3.054a48.1,48.1,0,0,1-5.192-24.107c.61-14.07,4.275-29.952-7.636-36.366S527.325,246.033,523.354,263.137Z" fill="#fdcca3"/>
    <path d="M543.817,287.875s6.5,5.411,8.278-1.882-1.048-14.922-6.008-12.22c-3.255,1.774-4.044,3.351-4.044,3.351Z" fill="#fdcca3"/>
    <path d="M519.628,276.557s2.156-8.9,14.434-14.726c0,0-2.071,6.423,7.981,15.293s17.653,9.453,18,18.484-1.948,25.811,9.129,27.866,14.158-4.11,14.158-4.11a65.384,65.384,0,0,1-9.589-23.756c-2.739-14.257.343-49.53-17.122-50.9S517.231,244.366,519.628,276.557Z" fill="url(#i)"/>
    <path d="M503.2,207.067H454.05a6.144,6.144,0,0,0-6.144,6.144v35.323a6.143,6.143,0,0,0,6.144,6.143h6.143v8.579a1.536,1.536,0,0,0,2.622,1.086l9.664-9.665H503.2a6.143,6.143,0,0,0,6.143-6.143V213.211A6.144,6.144,0,0,0,503.2,207.067Z" fill="#fff"/>
    <path d="M493.158,218.531a10.277,10.277,0,0,0-14.535,0,10.279,10.279,0,0,0-14.536,14.536L478.623,247.6l14.535-14.535A10.279,10.279,0,0,0,493.158,218.531Z" fill="url(#j)"/>
    <path d="M557.467,310.976c14.989-3.962,20.737,16.54,20.244,33.821s-6.419,40.733-3.21,56.533c0,0-20,2.469-37.277,0a301.646,301.646,0,0,0-5.449-32.34c-3.7-15.8-6.1-21.961,4.2-37.03S548.1,313.451,557.467,310.976Z" fill="url(#k)"/>
    <path d="M568.624,529.649h0a7.44,7.44,0,0,1-7.439-7.44V470.278a5.624,5.624,0,0,0-5.625-5.625h-8.572a5.624,5.624,0,0,0-5.625,5.625v51.931a7.44,7.44,0,0,1-7.44,7.44h0a7.44,7.44,0,0,1-7.439-7.44V470.278a20.5,20.5,0,0,1,20.5-20.5h8.572a20.5,20.5,0,0,1,20.5,20.5v51.931A7.44,7.44,0,0,1,568.624,529.649Z" fill="url(#l)"/>
    <rect x="514.203" y="432.66" width="74.141" height="24.554" rx="6.258" fill="#585be9"/>
    <path d="M574.5,401.33s10.647,23.919,3.239,33.18-19.657,8.962-34,8.962-36.733-1.494-36.733-1.494a149.279,149.279,0,0,1,4.217,28.38c.862,16.132-1.46,30.172,0,40.329,0,0-6.308,3.884-18.257,1.793,0,0-6.458-42.088-9.56-59.15-3.585-19.717-8.364-38.238,12.248-39.433s41.513-3.884,41.513-3.884l.052-8.683Z" fill="url(#m)"/>
    <path d="M511.228,510.687s3.61,12.319,1.827,14.992-12.83,2.851-18.177,2.851-26.8,3.544-28.412-1.983c-1.247-4.277,13.988-5.879,20.5-8.911,3.01-1.4,9.854-4.664,9.854-4.664Z" fill="#e55ec9"/>
    <path d="M537.732,342.805,528.6,356.453a88.434,88.434,0,0,0-10.647,3.419c-7.314,2.709-28.987,7.856-28.987,7.856v10.294s30.836-.493,43.592-5.529,23.862-24.9,23.862-24.9Z" fill="#fdcca3"/>
    <path d="M471.27,364.305a7.574,7.574,0,0,0-8.664,1.52c-4.256,3.953-9.272,9.577-8.208,10.489s5.631-1.064,8.364-3.648S471.27,364.305,471.27,364.305Z" fill="#ffb876"/>
    <path d="M488.969,367.728s-11.594-5.916-18.044-4.841c-4.614.769-15.187,12.5-13.073,13.072s4.807,0,8.267-2.5a38.7,38.7,0,0,1,7.154-4s3.191,5.153,6.958,7.652,8.738.909,8.738.909Z" fill="#fdcca3"/>
    <path d="M432.2,381.215h0a3.194,3.194,0,0,1,3.193-3.193H490.13a3.194,3.194,0,0,1,3.193,3.193h0a3.194,3.194,0,0,1-3.193,3.193H435.393A3.194,3.194,0,0,1,432.2,381.215Z" fill="#c5c0d8"/>
    <rect x="404.971" y="384.408" width="123.632" height="16.922" rx="1.809" fill="#585be9"/>
    <path d="M413.759,535.541h0a6.977,6.977,0,0,1-6.9-8L425.514,401.33h14.105L420.661,529.584A6.978,6.978,0,0,1,413.759,535.541Z" fill="url(#n)"/>
    <path d="M519.814,535.541h0a6.977,6.977,0,0,0,6.9-8L508.06,401.33H493.955l18.958,128.254A6.977,6.977,0,0,0,519.814,535.541Z" fill="url(#o)"/>
    <path d="M325.423,161.122A70.5,70.5,0,0,1,329.5,177.7c.765,8.159.007,17.36-6.285,17.36-3,0-5.465.176-5.994,3.7s1.058,12.868,1.058,12.868l-24.68,1.587s7.31-11.972,0-21.507c-4.054-5.288-15.689-20.8-10.224-32.083S317.4,143.408,325.423,161.122Z" fill="#fdcca3"/>
    <path d="M320.273,195.27s-12.159-1.909-17-2.124a62.127,62.127,0,0,0-8.426.449c5.14,9.154-1.246,19.617-1.246,19.617l24.68-1.587s-1.587-9.343-1.058-12.869C317.564,196.491,318.707,195.612,320.273,195.27Z" fill="url(#p)"/>
    <path d="M313.556,182.106s-1.268,14.888-3.736,16.122-3.974-3-3.974-3-.08,5.994-3.958,5.994-5.522-3.783-5.522-3.783-2.059,4.135-3.292,1.667-1.411-2.724-4.936-7.444a39.825,39.825,0,0,0-5.687-6.482l28.956-7.58Z" fill="#3b3457"/>
    <path d="M312.829,173.261s-6.17-3.526-6.875,1.234,1.939,15.513,10.4,8.461Z" fill="#fdcca3"/>
    <path d="M326.224,163.349s-6.765,5.762-7.9,7.656c0,0-5.869,10.546-10.51,12.28l-6.534-6.788,9.821-9.848Z" fill="#ffb876"/>
    <path d="M280.27,172.02s-11.337,8.278-8.278,12.417,14.216,5.758,22.494,2.7,21.388-12.84,22.3-18.567Z" fill="#1194f6"/>
    <path d="M280.27,172.02s-3.779-7.738,0-19.435,22.134-16.555,32.031-12.6,15.116,17.1,15.656,21.954C327.957,161.943,312.121,177.059,280.27,172.02Z" fill="url(#q)"/>
    <path d="M287.828,168.781s10.437.72,18.9-1.98c0,0-1.844-13.5-12.777-10.961C287.828,157.264,287.108,161.583,287.828,168.781Z" fill="#3b3457"/>
    <path d="M302.219,207.067c19.6.494,45.138,7.163,43.97,28.864s-6.224,66.438-6.613,78.5c0,0-44.737,9.979-63.021,2.461,0,0-.059-24.246-5.086-45.642s-7.334-46.347,2.363-52.518C282.391,213.284,292.511,206.823,302.219,207.067Z" fill="url(#r)"/>
    <path d="M360.142,239.379s8.533,2.219,12.971-.853,18.09-23.005,18.09-23.005l8.342,4.9s-6.433,32.551-23.642,41.228c-7.37,3.715-27.847-5.721-27.847-5.721Z" fill="url(#s)"/>
    <rect x="369.336" y="145.205" width="115.166" height="47.327" rx="23.663" fill="#585be9"/>
    <g>
      <path d="M403.454,174.31V162.447a1.577,1.577,0,0,1,1.577-1.577h.716a1.577,1.577,0,0,1,1.577,1.577v10.131h5.1A1.577,1.577,0,0,1,414,174.155v.155a1.577,1.577,0,0,1-1.577,1.577h-7.389A1.577,1.577,0,0,1,403.454,174.31Z" fill="#fff"/>
      <path d="M416.954,174.31V162.447a1.577,1.577,0,0,1,1.577-1.577h.716a1.577,1.577,0,0,1,1.577,1.577V174.31a1.577,1.577,0,0,1-1.577,1.577h-.716A1.577,1.577,0,0,1,416.954,174.31Z" fill="#fff"/>
      <path d="M424.561,174.31V162.447a1.577,1.577,0,0,1,1.577-1.577h.716a1.577,1.577,0,0,1,1.577,1.577v3.711l3.649-4.68a1.576,1.576,0,0,1,1.244-.608h.9A1.578,1.578,0,0,1,435.4,163.5l-3.516,3.9,4.445,5.968a1.577,1.577,0,0,1-1.265,2.519h-.886a1.577,1.577,0,0,1-1.32-.714l-3.359-5.134-1.066,1.187v3.084a1.577,1.577,0,0,1-1.577,1.577h-.716A1.577,1.577,0,0,1,424.561,174.31Z" fill="#fff"/>
      <path d="M440.588,174.31V162.447a1.578,1.578,0,0,1,1.578-1.577h7.311a1.577,1.577,0,0,1,1.577,1.577v1.578h-6.6V166.8h4.151a1.577,1.577,0,0,1,1.577,1.577h0a1.577,1.577,0,0,1-1.577,1.577h-4.151v2.782h5.019a1.577,1.577,0,0,1,1.577,1.577h0a1.577,1.577,0,0,1-1.577,1.577h-7.311A1.578,1.578,0,0,1,440.588,174.31Z" fill="#fff"/>
    </g>
    <path d="M391.2,215.521s-5.095-5.566-3.3-12.08,3.228-11.919,3.3-14.72,5.889-.315,5.462,4.388c-.225,2.47-.9,8.423-.9,8.423s9.606-21.636,12.526-21.323,2.033,4.038-.213,9.2S405.6,197.2,405.6,197.2s7.237,2.035,7.237,7.618-1.84,6.913-5.713,10.707c-2.169,2.124-7.582,4.9-7.582,4.9Z" fill="#fdcca3"/>
    <rect x="582.672" y="82.712" width="51.558" height="44.193" rx="7.365" fill="url(#t)"/>
    <path d="M584.692,85.021l20.064,22.93a4.91,4.91,0,0,0,7.391,0l20.064-22.93a7.339,7.339,0,0,0-5.346-2.309H590.038A7.337,7.337,0,0,0,584.692,85.021Z" fill="#95d0ff"/>
    <path d="M618.681,76.984a7.234,7.234,0,0,0-10.23,0,7.233,7.233,0,1,0-10.229,10.23l10.229,10.229,10.23-10.229A7.234,7.234,0,0,0,618.681,76.984Z" fill="#e55ec9"/>
    <path d="M560.588,312.222c11.345,3.589,8.568,15.684,3.421,29.229s-5.96,15-5.96,15-18.175-6.063-23.987-13.377c0,0,8.381-13.019,12.025-20.859S555.542,310.626,560.588,312.222Z" fill="url(#u)"/>
    <path d="M322.585,213.212c-10.665,5.549-7.34,25.9,7.162,36.825s21.716,13.34,21.716,13.34,10.212-6.948,11.329-25.082c0,0-14.519-13.108-20.941-20.089S327.89,210.451,322.585,213.212Z" fill="url(#v)"/>
    <path d="M299.519,319.694s-8.624,23.606,5.945,38.839c-3.847-7.336-4.362-23.476,4.2-27.043,9.4-3.915,29.913-17.062,29.913-17.062Z" fill="url(#w)"/>
    <path d="M540.249,244.939c26.393-5.405,37.624,12.168,37.491,17.58a6.956,6.956,0,0,0,.291,2.165c.383-3.278.5-6.321-.528-8.752-10.26-24.2-42.464-20.813-54.495-8.826-8.979,8.945-9.664,17.866-8.2,26.079C514.783,272.519,514.251,250.264,540.249,244.939Z" fill="#e871cf"/>
    <path d="M424,120.1h-3.2v-3.2a2.92,2.92,0,0,0-5.839,0v3.2h-3.2a2.92,2.92,0,0,0,0,5.839h3.2v3.2a2.92,2.92,0,0,0,5.839,0v-3.2H424a2.92,2.92,0,1,0,0-5.839Z" fill="url(#x)"/>
    <path d="M669.861,276.29h-3.2v-3.2a2.92,2.92,0,1,0-5.839,0v3.2h-3.2a2.919,2.919,0,0,0,0,5.838h3.2v3.2a2.92,2.92,0,1,0,5.839,0v-3.2h3.2a2.919,2.919,0,1,0,0-5.838Z" fill="url(#y)"/>
    <path d="M481.218,81.362a6.093,6.093,0,1,1-6.092-6.092A6.093,6.093,0,0,1,481.218,81.362Z" fill="url(#z)"/>
    <path d="M614.544,370.052a6.093,6.093,0,1,1-6.093-6.092A6.093,6.093,0,0,1,614.544,370.052Z" fill="url(#aa)"/>
    <g>
      <circle cx="361.32" cy="92.57" r="31.679" fill="url(#ab)"/>
      <path d="M352.68,85.37a5.76,5.76,0,1,1-5.76-5.76A5.76,5.76,0,0,1,352.68,85.37Z" fill="#813abe"/>
      <path d="M380.039,85.37a5.76,5.76,0,1,1-5.76-5.76A5.76,5.76,0,0,1,380.039,85.37Z" fill="#813abe"/>
      <path d="M349.8,95.45h21.6a1.44,1.44,0,0,1,1.44,1.44v5.76a11.52,11.52,0,0,1-11.52,11.52h-1.44a11.52,11.52,0,0,1-11.52-11.52V96.89A1.44,1.44,0,0,1,349.8,95.45Z" fill="#e55ec9"/>
    </g>
  </g>
</svg>
