<?xml version="1.0" encoding="utf-8"?>
<svg viewBox="39.044 -2.253 513.009 460.962" xmlns="http://www.w3.org/2000/svg">
  <defs>
    <radialGradient gradientUnits="userSpaceOnUse" cx="281.711" cy="274.195" r="36.107" id="gradient-0" gradientTransform="matrix(1, 0, 0, 1, -0.858345, -1.287529)">
      <stop offset="0" style="stop-color: rgba(112, 45, 89, 1)"/>
      <stop offset="1" style="stop-color: rgba(39, 16, 31, 1)"/>
    </radialGradient>
    <radialGradient gradientUnits="userSpaceOnUse" cx="282.225" cy="275.227" r="36.107" id="gradient-1" gradientTransform="matrix(1.000001, 0, 0, 1.000001, -1.630606, -0.511827)">
      <stop offset="0" style="stop-color: rgba(46, 56, 72, 1)"/>
      <stop offset="1" style="stop-color: rgba(6, 7, 10, 1)"/>
    </radialGradient>
  </defs>
  <path d="M 427.027 188.754 C 427.027 137.534 380.454 96.011 323.007 96.011 C 265.559 96.011 218.988 137.534 218.988 188.754 C 161.541 188.754 114.969 230.277 114.969 281.498 C 114.969 332.717 161.541 374.241 218.988 374.241 C 218.989 425.462 265.56 466.985 323.007 466.985 C 380.454 466.985 427.027 425.462 427.027 374.241 C 484.475 374.241 531.045 332.717 531.045 281.498 C 531.045 230.276 484.475 188.754 427.027 188.754 Z" fill="rgba(242,242,242,1)" data-uid="o_f1d6ii15d_5" transform="matrix(-0.890301, 0.455372, -0.455372, -0.890301, 738.766796, 385.027624)"/>
  <path d="M 414.515 206.272 C 414.515 156.759 369.494 116.621 313.963 116.621 C 258.43 116.621 213.41 156.759 213.41 206.272 C 157.878 206.272 112.858 246.41 112.858 295.924 C 112.858 345.434 157.879 385.574 213.41 385.574 C 213.411 435.087 258.431 475.226 313.963 475.226 C 369.494 475.226 414.515 435.087 414.515 385.574 C 470.047 385.574 515.065 345.434 515.065 295.924 C 515.065 246.409 470.047 206.272 414.515 206.272 Z" fill="#ffffff" data-uid="o_f1d6ii15d_6" transform="matrix(-0.741466, 0.670991, -0.670991, -0.741466, 745.315136, 304.67542)"/>
  <g transform="matrix(6.954988, 0, 0, 6.954988, 62.528989, -0.274375)" data-uid="o_f1d6ii15d_7" style="">
    <g transform="matrix(0.957796, -0.28745, -0.28745, -0.957796, 13.768929, 72.563072)" style="">
      <title>Tay t</title>
      <path fill="#F03A73" d="M 3.803 16.65 C 3.503 19.75 1.903 22.25 2.103 17.05 C 1.603 20.95 -1.197 19.55 1.203 15.85 C -1.097 19.25 -2.797 18.65 0.103 14.95 C -2.497 17.35 -4.097 14.05 1.203 13.45 C -5.497 11.65 4.403 8.95 3.803 16.65 Z" data-uid="o_f1d6ii15d_8" transform="matrix(-0.858677, 0.512517, -0.512517, -0.858677, 9.491694, 28.920963)"/>
      <path fill="#702D59" d="M 7.648 46.853 C 6.848 47.153 6.148 46.153 6.748 45.453 C 15.448 34.653 7.848 26.353 1.248 24.753 C 1.848 22.853 3.448 16.653 4.048 14.753 C 18.048 17.053 14.248 43.553 7.648 46.853 L 7.648 46.853 Z" data-uid="o_f1d6ii15d_9" transform="matrix(-0.858677, 0.512517, -0.512517, -0.858677, 29.574968, 53.505602)"/>
      <path fill="rgba(46,56,72,1)" d="M 1.804 44.864 C 1.004 45.164 0.304 44.164 0.904 43.464 C 5.404 37.964 5.604 33.064 3.804 29.464 C 7.804 36.864 6.904 20.564 4.304 16.364 C 10.704 24.164 7.204 42.164 1.804 44.864 Z" data-uid="o_f1d6ii15d_10" transform="matrix(-0.858677, 0.512517, -0.512517, -0.858677, 23.537536, 54.79238)"/>
    </g>
    <g transform="matrix(0.928276, 0.371896, 0.371896, -0.928276, -13.565728, 47.955875)" style="">
      <title>Tay p</title>
      <path fill="#F03A73" d="M 63.004 16.515 C 63.304 19.615 64.904 22.115 64.704 16.915 C 65.204 20.815 68.004 19.415 65.604 15.715 C 67.904 19.115 69.604 18.515 66.704 14.815 C 69.304 17.215 70.904 13.915 65.604 13.315 C 72.304 11.515 62.404 8.815 63.004 16.515 Z" data-uid="o_f1d6ii15d_11" transform="matrix(-0.866013, -0.500022, 0.500022, -0.866013, 115.42999, 62.199185)"/>
      <path fill="#702D59" d="M 59.378 46.812 C 60.178 47.112 60.878 46.112 60.278 45.412 C 51.478 34.612 59.178 26.312 65.778 24.712 C 65.178 22.812 63.578 16.612 62.978 14.712 C 48.978 17.012 52.778 43.512 59.378 46.812 Z" data-uid="o_f1d6ii15d_12" transform="matrix(-0.866013, -0.500022, 0.500022, -0.866013, 95.847752, 87.262329)"/>
      <path fill="rgba(46,56,72,1)" d="M 65.194 44.871 C 65.994 45.171 66.694 44.171 66.094 43.471 C 61.594 37.971 61.394 33.071 63.194 29.471 C 59.294 36.771 60.094 20.571 62.694 16.271 C 56.294 24.171 59.794 42.171 65.194 44.871 Z" data-uid="o_f1d6ii15d_13" transform="matrix(-0.866013, -0.500022, 0.500022, -0.866013, 101.855018, 88.490053)"/>
    </g>
    <g>
      <title>Chan p</title>
      <path fill="rgba(46,56,72,1)" d="M 25 63.2 C 25.2 63.5 25.4 63.7 25.6 64 C 26.4 65.1 26.8 64.7 26.8 63.6 C 26.8 63.3 26.7 62.9 26.5 62.7 C 25.7 61.9 24.2 62.1 25 63.2 Z" data-uid="o_f1d6ii15d_14"/>
      <path fill="rgba(46,56,72,1)" d="M 23.6 64 C 24.3 62.5 21.5 61.2 22.3 64.2 C 22.8 65.5 23.2 65.1 23.6 64 Z" data-uid="o_f1d6ii15d_15"/>
      <path fill="rgba(46,56,72,1)" d="M 27.7 62 C 28 62.3 28.3 62.5 28.6 62.8 C 28.8 63 29.2 63.5 29.5 63.5 C 30.1 63.6 30 62.3 29.9 62 C 29.8 61.6 29.6 61.2 29.2 60.9 C 28.1 60.2 26.4 60.9 27.7 62 L 27.7 62 Z" data-uid="o_f1d6ii15d_16"/>
      <path fill="rgba(46,56,72,1)" d="M 19.4 62.9 C 19.4 62.6 19.5 62.2 19.7 62 C 19.9 61.7 20.3 61.5 20.7 61.6 C 20.9 61.6 21.2 61.7 21.3 61.9 C 21.4 62.1 21.3 62.4 21.1 62.6 C 20.9 62.9 20.7 63.1 20.6 63.4 C 20.5 63.6 20.3 64 20.1 64.1 C 19.6 64.3 19.4 63.2 19.4 62.9 L 19.4 62.9 Z" data-uid="o_f1d6ii15d_17"/>
      <path fill="#F03A73" d="M 27.1 51.4 C 27.5 53 27.9 54.6 28.5 56.1 C 32.2 65.6 19.6 65.6 19.5 60.9 C 19.5 57.7 20.1 54.5 20.4 51.3 L 27.1 51.3 L 27.1 51.4 Z" data-uid="o_f1d6ii15d_22"/>
    </g>
    <g>
      <title>Chan t</title>
      <path fill="rgba(46,56,72,1)" d="M 41 63.2 C 40.8 63.5 40.6 63.7 40.4 64 C 39.6 65.1 39.2 64.7 39.2 63.6 C 39.2 63.3 39.3 62.9 39.5 62.7 C 40.3 61.9 41.8 62.1 41 63.2 L 41 63.2 Z" data-uid="o_f1d6ii15d_18"/>
      <path fill="rgba(46,56,72,1)" d="M 42.4 64 C 41.7 62.5 44.5 61.2 43.7 64.2 C 43.2 65.5 42.8 65.1 42.4 64 Z" data-uid="o_f1d6ii15d_19"/>
      <path fill="rgba(46,56,72,1)" d="M 38.3 62 C 38 62.3 37.7 62.5 37.4 62.8 C 37.2 63 36.8 63.5 36.5 63.5 C 35.9 63.6 36 62.3 36.1 62 C 36.2 61.6 36.4 61.2 36.8 60.9 C 37.9 60.2 39.6 60.9 38.3 62 L 38.3 62 Z" data-uid="o_f1d6ii15d_20"/>
      <path fill="rgba(46,56,72,1)" d="M 46.6 62.9 C 46.6 62.6 46.5 62.2 46.3 62 C 46.1 61.7 45.7 61.5 45.3 61.6 C 45.1 61.6 44.8 61.7 44.7 61.9 C 44.6 62.1 44.7 62.4 44.9 62.6 C 45.1 62.9 45.3 63.1 45.4 63.4 C 45.5 63.6 45.7 64 45.9 64.1 C 46.4 64.3 46.6 63.2 46.6 62.9 L 46.6 62.9 Z" data-uid="o_f1d6ii15d_21"/>
      <path fill="#F03A73" d="M 38.9 51.4 L 45.5 51.4 C 45.8 54.6 46.4 57.8 46.4 61 C 46.4 65.6 33.8 65.6 37.4 56.2 C 38.1 54.6 38.5 53 38.9 51.4 L 38.9 51.4 Z" data-uid="o_f1d6ii15d_23"/>
    </g>
    <g>
      <title>Toc</title>
      <path fill="#D62766" d="M 41.5 12 C 39 12.2 36.7 13.3 35.2 14.8 C 35 12.3 35.6 9.3 37.4 6.2 C 40.6 0.6 42.7 4.2 37.6 10.2 C 47.8 1.4 45.9 8.5 38.8 10.7 C 44.7 9.6 44.1 11.8 41.5 12 L 41.5 12 Z" data-uid="o_f1d6ii15d_24"/>
      <path fill="#D62766" d="M 24.5 12 C 27 12.2 29.3 13.3 30.8 14.8 C 31 12.3 30.4 9.3 28.6 6.2 C 25.4 0.6 23.3 4.2 28.4 10.2 C 18.2 1.4 20.1 8.5 27.2 10.7 C 21.3 9.6 21.9 11.8 24.5 12 L 24.5 12 Z" data-uid="o_f1d6ii15d_25"/>
    </g>
    <g>
      <title>Sung p</title>
      <path fill="#F2F2F2" d="M 52.6 23.8 L 43.7 11.5 C 48.1 12.6 53 5.3 55.3 1.2 C 55.6 0.8 57 1 57.1 1.4 C 58.4 6.8 58.9 12.5 56.9 17.6 C 56 19.7 54.7 21.9 52.6 23.8 L 52.6 23.8 Z" data-uid="o_f1d6ii15d_26"/>
      <path fill="rgba(242,242,242,1)" d="M 52.6 23.8 L 43.7 11.5 L 44.1 11.6 C 46.1 13.9 47.8 15.4 49.5 16 C 51.2 16.6 52.9 16.4 54.3 15.4 C 55.7 14.4 56.7 12.8 57.2 10.8 C 57.7 8.8 57.8 6.5 57.5 4 C 58 6.9 58.3 9.9 57.9 13.2 C 57.7 14.9 57.2 16.6 56.4 18.4 C 55.7 20.3 54.4 22.1 52.6 23.8 L 52.6 23.8 Z" data-uid="o_f1d6ii15d_27"/>
      <path d="M 45 11.6 L 55.1 20.9 C 56.4 19.1 57.1 17.2 57.6 15.4 L 47.9 10.5 C 46.8 11.1 45.9 11.5 45 11.6 L 45 11.6 Z" fill="#702D59" data-uid="o_f1d6ii15d_28"/>
      <path d="M 49.3 9.4 L 58.1 12.8 C 58.2 11.6 58.3 10.4 58.2 9.2 L 51.3 7.3 C 50.7 8.1 50 8.8 49.3 9.4 Z" fill="#702D59" data-uid="o_f1d6ii15d_29"/>
      <path d="M 52.6 5.7 L 58 6.8 L 57.7 4.7 L 53.6 4 C 53.3 4.6 53 5.2 52.6 5.7 L 52.6 5.7 Z" fill="#702D59" data-uid="o_f1d6ii15d_30"/>
      <path fill="rgba(46,56,72,1)" d="M 55.1 20.9 L 49.9 16.1 C 52 16.8 54.1 16.1 55.6 14.4 L 57.6 15.4 C 57.1 17.2 56.4 19.1 55.1 20.9 Z" data-uid="o_f1d6ii15d_31"/>
      <path fill="rgba(46,56,72,1)" d="M 57.8 6.8 C 57.8 6.1 57.8 5.5 57.7 4.8 L 57.8 4.8 L 58.1 6.9 L 57.8 6.8 L 57.8 6.8 Z" data-uid="o_f1d6ii15d_32"/>
      <path fill="rgba(46,56,72,1)" d="M 56.8 12.3 C 57.2 11.3 57.5 10.2 57.6 9.1 L 58.1 9.2 C 58.2 10.4 58.1 11.5 58 12.8 L 56.8 12.3 L 56.8 12.3 Z" data-uid="o_f1d6ii15d_33"/>
    </g>
    <g>
      <title>Sung t</title>
      <path fill="#F2F2F2" d="M 13.4 23.8 L 22.3 11.5 C 17.9 12.6 12.9 5.2 10.7 1.2 C 10.4 0.8 9 1 8.9 1.4 C 7 9.8 7.1 17.9 13.4 23.8 Z" data-uid="o_f1d6ii15d_34"/>
      <path fill="rgba(242,242,242,1)" d="M 13.4 23.8 L 22.3 11.5 L 21.9 11.6 C 19.9 13.9 18.2 15.4 16.5 16 C 14.8 16.6 13.1 16.4 11.7 15.4 C 10.3 14.4 9.3 12.8 8.8 10.8 C 8.1 8.8 8.1 6.5 8.4 4 C 7.9 6.9 7.6 9.9 8 13.2 C 8.2 14.9 8.7 16.6 9.5 18.4 C 10.3 20.3 11.6 22.1 13.4 23.8 L 13.4 23.8 Z" data-uid="o_f1d6ii15d_35"/>
      <path d="M 21 11.6 L 10.9 20.9 C 9.6 19.1 8.9 17.2 8.4 15.4 L 18.1 10.5 C 19.2 11.1 20.1 11.5 21 11.6 L 21 11.6 Z" fill="#702D59" data-uid="o_f1d6ii15d_36"/>
      <path d="M 16.7 9.4 L 8 12.8 C 7.9 11.6 7.8 10.4 7.9 9.2 L 14.8 7.3 C 15.3 8.1 16 8.8 16.7 9.4 Z" fill="#702D59" data-uid="o_f1d6ii15d_37"/>
      <path d="M 13.4 5.7 L 8 6.8 L 8.3 4.7 L 12.4 4 C 12.7 4.6 13 5.2 13.4 5.7 L 13.4 5.7 Z" fill="#702D59" data-uid="o_f1d6ii15d_38"/>
      <path fill="rgba(46,56,72,1)" d="M 10.9 20.9 L 16.1 16.1 C 14 16.8 11.9 16.1 10.4 14.4 L 8.4 15.4 C 8.9 17.2 9.6 19.1 10.9 20.9 L 10.9 20.9 Z" data-uid="o_f1d6ii15d_39"/>
      <path fill="rgba(46,56,72,1)" d="M 8.2 6.8 C 8.2 6.1 8.2 5.5 8.3 4.8 L 8.2 4.8 C 8.1 5.4 8.1 6.1 8 6.8 L 8.2 6.8 Z" data-uid="o_f1d6ii15d_40"/>
      <path fill="rgba(46,56,72,1)" d="M 9.2 12.3 C 8.8 11.3 8.5 10.2 8.4 9.1 L 7.8 9.2 C 7.7 10.4 7.8 11.5 7.9 12.8 L 9.2 12.3 Z" data-uid="o_f1d6ii15d_41"/>
    </g>
    <g>
      <title>Than</title>
      <path fill="#F03A73" d="M 42.8 56.756 C 36.4 57.956 29.9 58.056 23.1 56.756 C 9.8 54.156 7.9 7.756 19.8 9.756 C 22.6 10.256 27.7 10.456 31.2 14.956 C 32.3 16.356 33.6 16.356 34.7 14.956 C 38.2 10.456 43.4 10.256 46.1 9.756 C 58.1 7.756 56.2 54.156 42.8 56.756 Z" data-uid="o_f1d6ii15d_42" style=""/>
      <path fill="rgba(214,39,102,1)" d="M 42.8 56.9 C 36.4 58.1 29.9 58.2 23.1 56.9 C 15.2 55.3 11.3 38.1 12 25 C 12.5 36.2 16.4 48.7 23 51.1 C 29.8 53.6 36.4 53.6 42.9 51.2 C 49.5 48.7 53.5 36.2 54 25.1 C 54.7 38.2 50.8 55.3 42.8 56.9 L 42.8 56.9 Z" data-uid="o_f1d6ii15d_43" style=""/>
      <path fill="rgba(214,39,102,1)" d="M 43.7 56.4 C 42 57.1 40.2 57.4 38.4 57.6 C 35.2 58 31.2 58.1 27.6 57.6 C 25.8 57.4 24 57.1 22.3 56.3 C 23.2 56.5 24.7 56.9 27.6 57.1 C 31.1 57.3 33.6 57.4 38.3 57.1 C 40 57 41.9 56.8 43.7 56.4 Z" data-uid="o_f1d6ii15d_44" style=""/>
    </g>
    <g>
      <title>Kinh</title>
      <path class="cls-4" d="M 32.354 26.914 C 31.718 27.671 30.975 28.356 30.145 28.949 C 28.223 30.306 26.039 31.013 23.584 30.879 C 20.784 30.731 18.599 29.542 16.907 27.611 C 16.189 26.795 15.627 25.88 15.245 24.901 C 15.174 24.72 15.077 24.669 14.861 24.662 C 14.052 24.635 13.366 24.26 12.504 24.592 C 12.352 24.651 11.816 24.871 11.818 24.714 C 11.836 23.341 11.996 21.66 12.239 20.313 C 12.292 20.019 12.312 19.872 12.449 19.81 C 12.981 19.57 13.639 19.608 14.281 19.648 C 14.596 19.67 14.737 19.56 14.807 19.271 C 15.451 16.589 16.898 14.376 19.679 12.988 C 21.397 12.131 23.265 11.878 25.212 11.985 C 27.004 12.083 28.679 12.488 30.189 13.356 C 31.13 13.897 31.931 14.605 32.543 15.436 C 33.021 15 33.49 14.568 34.009 14.183 C 35.435 13.128 37.001 12.335 38.861 12.057 C 40.62 11.794 42.289 12.07 43.861 12.736 C 46.682 13.931 48.632 15.824 49.546 18.503 C 49.606 18.678 49.697 18.735 49.887 18.767 C 51.264 18.984 52.048 19.083 53.326 19.583 C 53.514 19.658 53.629 19.836 53.665 20.179 C 53.811 21.575 54.107 23.008 54.111 24.41 C 54.108 24.681 54.02 24.695 53.764 24.646 C 52.444 24.392 51.109 24.201 49.765 24.073 C 49.428 24.041 49.371 24.167 49.298 24.39 C 48.772 25.977 47.907 27.399 46.555 28.563 C 44.964 29.934 43.03 30.629 40.845 30.841 C 37.244 31.189 34.681 29.712 32.646 27.284 C 32.556 27.178 32.471 27.061 32.354 26.914 Z" style="fill: rgb(1, 1, 1);" transform="matrix(0.999974, -0.007269, 0.007269, 0.999974, -0.15488, 0.240185)"/>
      <path class="cls-8" d="M 32.549 25.216 C 32.087 26.064 31.483 26.843 30.76 27.526 C 29.283 28.92 27.55 29.899 25.384 30.18 C 22.791 30.519 20.517 29.869 18.628 28.249 C 16.252 26.211 15.169 23.674 15.33 20.751 C 15.456 18.5 16.255 16.458 18.013 14.792 C 19.47 13.41 21.294 12.707 23.399 12.572 C 24.919 12.471 26.42 12.579 27.857 13.063 C 29.977 13.777 31.571 14.998 32.361 16.974 C 32.603 16.832 32.712 16.604 32.874 16.419 C 34.305 14.787 36.007 13.474 38.252 12.823 C 39.963 12.327 41.655 12.472 43.29 13.09 C 46.263 14.222 48.299 16.141 49.106 18.973 C 49.617 20.756 49.365 22.539 48.816 24.285 C 48.326 25.837 47.498 27.218 46.156 28.316 C 44.316 29.818 42.093 30.359 39.656 30.242 C 37.52 30.138 35.887 29.125 34.491 27.757 C 33.823 27.112 33.262 26.384 32.825 25.595 C 32.755 25.472 32.705 25.33 32.549 25.216 Z" style="fill: rgb(156, 156, 156);" transform="matrix(0.999944, -0.010624, 0.010624, 0.999944, -0.225485, 0.344883)"/>
    </g>
    <g>
      <title>Mat t</title>
      <path fill="rgba(242,242,242,1)" d="M 31.763 19.876 C 30.707 14.692 22.939 10.753 18.382 15.837 C 12.976 21.918 18.909 31.151 26.497 28.407 C 29.433 27.345 32.317 22.967 31.763 19.876 Z" data-uid="o_f1d6ii15d_46" style="" transform="matrix(1, -0.000053, 0.000053, 1, -0.001123, 0.001275)"/>
      <path fill="rgba(72,212,255,1)" data-type="circle" data-cx="26.7" data-cy="24.2" data-r="3.3" d="M 22.21 22.653 C 22.21 25.194 24.96 26.781 27.16 25.511 C 28.181 24.922 28.81 23.832 28.81 22.653 C 28.81 20.113 26.06 18.525 23.86 19.796 C 22.839 20.385 22.21 21.474 22.21 22.653" data-uid="o_f1d6ii15d_48" style=""/>
      <path fill="rgba(46,56,72,1)" data-type="circle" data-cx="26.7" data-cy="24.2" data-r="1.6" d="M 23.91 22.653 C 23.91 23.885 25.244 24.655 26.31 24.039 C 26.805 23.753 27.11 23.225 27.11 22.653 C 27.11 21.422 25.777 20.652 24.71 21.268 C 24.215 21.554 23.91 22.082 23.91 22.653" data-uid="o_f1d6ii15d_49"/>
      <path fill="rgba(242,242,242,1)" data-type="circle" data-cx="27.8" data-cy="23.2" data-r="0.6" d="M 26.01 21.653 C 26.01 22.115 26.51 22.404 26.91 22.173 C 27.096 22.066 27.21 21.868 27.21 21.653 C 27.21 21.192 26.71 20.903 26.31 21.134 C 26.125 21.241 26.01 21.439 26.01 21.653" data-uid="o_f1d6ii15d_50"/>
      <path fill="rgba(242,242,242,1)" data-type="circle" data-cx="26.3" data-cy="24.6" data-r="0.3" d="M 24.81 23.053 C 24.81 23.284 25.06 23.429 25.26 23.313 C 25.353 23.26 25.41 23.161 25.41 23.053 C 25.41 22.822 25.16 22.678 24.96 22.794 C 24.868 22.847 24.81 22.946 24.81 23.053" data-uid="o_f1d6ii15d_51"/>
    </g>
    <circle style="stroke: rgb(0, 0, 0); fill-rule: evenodd; paint-order: fill; fill: rgba(187, 218, 85, 0); stroke-miterlimit: 3; stroke-linejoin: round; stroke-linecap: round; stroke-width: 0.431341px;" cx="40.23" cy="21.207" r="7.62" transform="matrix(1, 0, 0, 1.000017, -16.055042, -0.051683)"/>
    <g>
      <title>Mat p</title>
      <path d="M 32.969 19.606 C 34.15 14.378 41.98 10.831 46.28 15.931 C 51.38 22.031 47.215 30.448 38.267 28.479 C 33.838 27.505 32.269 22.706 32.969 19.606 Z" data-uid="o_f1d6ii15d_53" fill="rgba(242,242,242,1)"/>
      <path fill="rgba(72,212,255,1)" data-type="circle" data-cx="39.3" data-cy="24.2" data-r="3.3" d="M 35.822 22.594 C 35.822 25.134 38.572 26.722 40.772 25.452 C 41.793 24.862 42.422 23.773 42.422 22.594 C 42.422 20.054 39.672 18.466 37.472 19.736 C 36.451 20.326 35.822 21.415 35.822 22.594" data-uid="o_f1d6ii15d_55"/>
      <path fill="rgba(46,56,72,1)" data-type="circle" data-cx="39.3" data-cy="24.2" data-r="1.6" d="M 37.522 22.594 C 37.522 23.826 38.855 24.595 39.922 23.98 C 40.417 23.694 40.722 23.166 40.722 22.594 C 40.722 21.362 39.388 20.592 38.322 21.208 C 37.827 21.494 37.522 22.022 37.522 22.594" data-uid="o_f1d6ii15d_56"/>
      <path fill="rgba(242,242,242,1)" data-type="circle" data-cx="40.5" data-cy="23.2" data-r="0.6" d="M 39.722 21.594 C 39.722 22.056 40.222 22.345 40.622 22.114 C 40.807 22.006 40.922 21.808 40.922 21.594 C 40.922 21.132 40.422 20.843 40.022 21.074 C 39.836 21.182 39.722 21.38 39.722 21.594" data-uid="o_f1d6ii15d_57"/>
      <path fill="rgba(242,242,242,1)" data-type="circle" data-cx="39" data-cy="24.6" data-r="0.3" d="M 38.522 22.994 C 38.522 23.225 38.772 23.369 38.972 23.254 C 39.064 23.2 39.122 23.101 39.122 22.994 C 39.122 22.763 38.872 22.619 38.672 22.734 C 38.579 22.788 38.522 22.887 38.522 22.994" data-uid="o_f1d6ii15d_58" style="opacity: 1;"/>
    </g>
    <circle style="stroke: rgb(0, 0, 0); fill-rule: evenodd; paint-order: fill; fill: rgba(187, 218, 85, 0); stroke-miterlimit: 3; stroke-linejoin: round; stroke-linecap: round; stroke-width: 0.431341px;" cx="40.23" cy="21.207" r="7.62" transform="matrix(1, 0, 0, 1.000017, 0.442088, 0.032857)"/>
    <g style="visibility: hidden;">
      <title>Cuoi</title>
      <g>
        <title>Mom</title>
        <path fill="#702D59" d="M 47.041 41.326 C 39.341 47.626 26.541 47.626 18.841 41.326 C 16.541 39.426 16.241 36.126 18.141 33.826 C 20.041 31.526 23.341 31.226 25.641 33.126 C 29.341 36.126 36.541 36.126 40.241 33.126 C 42.541 31.226 45.841 31.626 47.741 33.826 C 49.641 36.126 49.241 39.426 47.041 41.326 Z" data-uid="o_f1d6ii15d_59"/>
        <path fill="rgba(46,56,72,1)" d="M 36.841 45.726 C 34.241 46.126 31.541 46.126 28.941 45.726 C 27.341 45.426 26.241 43.926 26.641 42.326 C 27.541 38.626 32.541 36.226 31.841 40.026 C 31.241 42.926 35.341 42.026 34.141 40.026 C 32.241 36.826 37.841 38.626 39.141 42.126 C 39.741 43.626 38.541 45.426 36.841 45.726 Z" data-uid="o_f1d6ii15d_60"/>
        <path fill="#F2F2F2" d="M 24.641 42.426 C 24.841 42.926 24.041 44.426 24.041 44.426 C 22.841 43.926 21.741 43.326 20.741 42.726 C 20.741 42.726 20.441 40.626 20.941 40.426 C 22.241 39.726 24.041 41.126 24.641 42.426 Z" data-uid="o_f1d6ii15d_61"/>
        <path fill="rgba(242,242,242,1)" d="M 24.541 42.626 C 23.841 43.626 22.341 43.126 21.541 42.526 C 21.041 42.126 20.841 41.626 20.741 41.026 L 20.741 40.526 C 20.541 41.226 20.741 42.526 20.741 42.526 C 21.841 43.226 22.941 43.726 24.041 44.226 C 24.041 44.226 24.841 42.826 24.641 42.326 C 24.641 42.526 24.541 42.626 24.541 42.626 Z" data-uid="o_f1d6ii15d_62"/>
        <path fill="#F2F2F2" d="M 29.941 43.826 C 30.241 44.226 29.641 45.826 29.641 45.826 C 28.341 45.626 27.141 45.426 25.941 45.026 C 25.941 45.026 25.941 43.326 26.341 43.026 C 27.441 42.426 29.241 42.826 29.941 43.826 Z" data-uid="o_f1d6ii15d_63"/>
        <path fill="rgba(242,242,242,1)" d="M 29.641 45.826 C 28.341 45.626 27.141 45.426 25.941 45.026 C 25.941 45.026 25.941 43.726 26.241 43.226 C 26.041 44.926 29.541 45.526 30.041 43.926 C 30.141 44.426 29.641 45.826 29.641 45.826 Z" data-uid="o_f1d6ii15d_64"/>
        <path fill="#F2F2F2" d="M 26.041 35.826 C 25.841 35.326 26.541 33.726 26.541 33.726 C 27.541 34.326 28.741 34.826 30.041 35.126 C 30.041 35.126 30.141 36.926 29.741 37.126 C 28.641 37.826 26.541 37.026 26.041 35.826 Z" data-uid="o_f1d6ii15d_65"/>
        <path fill="rgba(242,242,242,1)" d="M 29.741 37.026 C 29.241 34.326 26.741 34.526 26.041 35.326 L 26.041 35.426 C 26.041 34.726 26.541 33.626 26.541 33.626 C 27.541 34.226 28.741 34.726 30.041 35.026 C 30.041 35.026 30.041 36.726 29.741 37.026 Z" data-uid="o_f1d6ii15d_66"/>
        <path fill="#F2F2F2" d="M 36.341 43.726 C 36.741 44.026 36.741 45.726 36.741 45.726 C 34.741 46.026 32.741 46.126 30.741 45.926 C 30.741 45.926 30.541 44.226 30.941 43.926 C 32.241 42.726 34.841 42.726 36.341 43.726 Z" data-uid="o_f1d6ii15d_67"/>
        <path fill="rgba(242,242,242,1)" d="M 36.741 45.726 C 34.741 46.026 32.741 46.126 30.741 45.926 C 30.741 45.926 30.641 45.126 30.741 44.526 C 31.641 46.526 36.041 45.526 36.541 43.926 C 36.741 44.526 36.741 45.726 36.741 45.726 Z" data-uid="o_f1d6ii15d_68"/>
        <path fill="#F2F2F2" d="M 30.741 37.326 C 30.441 36.926 30.841 35.226 30.841 35.226 C 32.641 35.426 34.541 35.426 36.241 34.926 C 36.241 34.926 36.941 36.526 36.641 36.926 C 35.641 38.626 32.041 38.826 30.741 37.326 Z" data-uid="o_f1d6ii15d_69"/>
        <path fill="#F2F2F2" d="M 41.741 44.426 C 40.841 44.826 39.841 45.126 38.841 45.326 C 38.841 45.326 37.941 43.826 38.241 43.326 C 38.741 42.426 40.141 42.126 40.941 42.426 C 41.441 42.726 41.741 44.426 41.741 44.426 Z" data-uid="o_f1d6ii15d_71"/>
        <path fill="rgba(242,242,242,1)" d="M 36.669 37.002 C 36.669 36.802 36.569 36.602 36.369 36.402 C 35.369 35.302 31.069 35.402 30.569 37.102 C 30.469 36.502 30.869 35.202 30.869 35.202 C 32.669 35.402 34.569 35.402 36.269 34.902 C 36.169 34.902 36.969 36.502 36.669 37.002 Z" data-uid="o_f1d6ii15d_70"/>
        <path fill="rgba(242,242,242,1)" d="M 41.141 42.626 C 41.341 44.426 38.941 45.026 38.141 43.526 C 38.141 44.126 38.841 45.326 38.841 45.326 C 39.841 45.126 40.841 44.726 41.741 44.426 C 41.741 44.426 41.441 43.126 41.141 42.626 Z" data-uid="o_f1d6ii15d_72"/>
        <path fill="#F2F2F2" d="M 44.941 40.326 C 45.441 40.526 45.141 42.626 45.141 42.626 C 44.441 43.126 43.641 43.526 42.841 43.926 C 42.841 43.926 41.741 42.626 41.841 42.126 C 42.241 40.926 43.841 39.826 44.941 40.326 Z" data-uid="o_f1d6ii15d_73"/>
        <path fill="rgba(242,242,242,1)" d="M 45.141 42.626 C 44.441 43.126 43.641 43.526 42.841 43.926 C 42.841 43.926 41.941 42.926 41.841 42.326 C 42.241 43.226 45.241 43.526 44.941 40.426 C 45.441 40.826 45.141 42.626 45.141 42.626 Z" data-uid="o_f1d6ii15d_74"/>
        <path fill="#F2F2F2" d="M 44.941 40.326 C 45.441 40.526 45.141 42.626 45.141 42.626 C 44.441 43.126 43.641 43.526 42.841 43.926 C 42.841 43.926 41.741 42.626 41.841 42.126 C 42.241 41.026 43.841 39.826 44.941 40.326 Z" data-uid="o_f1d6ii15d_75"/>
        <path fill="rgba(242,242,242,1)" d="M 45.141 42.626 C 44.441 43.126 43.641 43.526 42.841 43.926 C 42.841 43.926 41.941 42.926 41.841 42.326 C 42.241 43.226 45.241 43.526 44.941 40.426 C 45.441 40.826 45.141 42.626 45.141 42.626 Z" data-uid="o_f1d6ii15d_76"/>
        <path fill="#F2F2F2" d="M 38.041 34.426 C 38.841 34.126 39.641 33.626 40.241 33.126 C 40.341 33.126 40.341 33.026 40.441 33.026 C 40.441 33.026 41.441 34.426 41.241 34.926 C 41.041 35.926 39.541 36.826 38.641 36.426 C 38.141 36.126 38.041 34.426 38.041 34.426 Z" data-uid="o_f1d6ii15d_77"/>
        <path fill="rgba(242,242,242,1)" d="M 41.293 34.726 C 40.893 34.326 40.293 34.026 39.693 34.226 C 38.893 34.426 38.393 35.326 38.493 36.326 C 38.093 35.926 37.893 34.426 37.893 34.426 C 38.693 34.126 39.493 33.626 40.093 33.126 C 40.193 33.126 40.193 33.026 40.293 33.026 C 40.393 32.926 41.193 34.126 41.293 34.726 Z" data-uid="o_f1d6ii15d_78"/>
        <path fill="#F2F2F2" d="M 41.241 32.426 C 42.441 31.826 43.741 31.726 44.941 32.026 C 44.941 32.026 45.641 34.026 45.141 34.326 C 44.241 34.926 43.141 34.626 42.141 34.226 C 41.741 34.126 41.241 32.426 41.241 32.426 Z" data-uid="o_f1d6ii15d_79"/>
        <path fill="rgba(242,242,242,1)" d="M 44.893 31.978 C 43.693 31.678 42.393 31.778 41.193 32.378 C 41.193 32.378 41.593 33.878 42.093 34.178 C 41.093 32.078 44.593 31.578 45.293 34.078 C 45.493 33.578 44.893 31.978 44.893 31.978 Z" data-uid="o_f1d6ii15d_80"/>
        <path fill="#F2F2F2" d="M 25.041 32.726 C 25.041 32.726 24.841 34.626 24.341 34.726 C 22.941 35.126 21.641 35.126 20.641 34.426 C 20.141 34.126 20.841 32.126 20.841 32.126 C 22.241 31.726 23.741 31.926 25.041 32.726 Z" data-uid="o_f1d6ii15d_81"/>
        <path fill="rgba(242,242,242,1)" d="M 24.569 34.478 C 24.869 33.978 24.969 32.678 24.969 32.678 C 23.669 31.878 22.169 31.678 20.869 32.078 C 20.869 32.078 20.469 33.178 20.469 33.878 C 20.969 31.778 24.469 32.378 24.569 34.478 Z" data-uid="o_f1d6ii15d_82"/>
        <path fill="rgba(242,242,242,1)" d="M 34.341 37.826 C 33.441 38.426 30.941 37.526 32.441 37.626 C 33.641 37.726 34.741 37.526 34.341 37.826 Z" data-uid="o_f1d6ii15d_83"/>
        <path fill="rgba(242,242,242,1)" d="M 39.541 36.226 C 39.341 36.226 39.341 36.226 40.041 35.726 C 41.341 34.826 40.141 36.026 39.541 36.226 Z" data-uid="o_f1d6ii15d_84"/>
      </g>
    </g>
    <g transform="matrix(0.143782, 0, 0, 0.143782, -15.24242, 0.850575)" style="visibility: hidden;">
      <title>Ngac nhien</title>
      <g>
        <title>Mom</title>
        <circle style="stroke-miterlimit: 5; stroke: rgb(0, 0, 0); stroke-width: 0px; fill: rgb(214, 39, 102);" cx="278.788" cy="275.92" r="43.548"/>
        <circle style="fill: rgb(240, 58, 115); stroke-miterlimit: 5; stroke: rgb(0, 0, 0); stroke-width: 0px;" cx="278.101" cy="273.679" r="43.548" transform="matrix(0.952626, 0, 0, 0.923017, 17.30094, 21.326492)"/>
        <circle style="stroke: rgb(0, 0, 0); fill: url(#gradient-0);" cx="280.852" cy="272.907" r="36.107"/>
        <path d="M 281.233 246.614 C 271.899 254.955 285.929 258.573 288.407 249.729 C 293.168 232.736 290.804 240.728 303.21 245.413 C 312.826 254.574 316.702 262.182 316.702 273.562 C 316.702 293.503 300.536 309.669 280.595 309.669 C 260.654 309.669 244.488 293.503 244.488 273.562 C 244.488 258.17 254.983 245.91 268.548 240.715 C 272.729 238.721 296.316 233.136 281.233 246.614 Z" data-uid="o_f1d6ii15d_60" style="fill: url(#gradient-1);" transform="matrix(0.996125, -0.087951, 0.087951, 0.996125, -22.99058, 25.739502)"/>
      </g>
    </g>
    <g>
      <title>Buon</title>
      <path class="cls-4" d="M 25.89 42.446 C 25.929 42.448 27.836 42.593 29.611 41.94 C 30.986 41.433 32.356 40.431 32.52 39.685 C 32.577 39.427 32.43 39.303 32.181 39.205 C 31.814 39.061 30.993 40.447 29.351 41.123 C 27.848 41.742 26.084 41.53 25.738 41.981 C 25.618 42.138 25.784 42.435 25.89 42.446 Z" style="fill: rgb(214, 39, 102);" transform="matrix(-0.966288, -0.257463, 0.257463, -0.966288, 46.735299, 87.775103)"/>
      <path class="cls-4" d="M 26.176 42.252 C 27.745 42.175 29.213 41.881 30.521 41.119 C 31.279 40.682 31.949 40.039 32.35 39.326 C 32.4 39.236 32.367 39.183 32.253 39.119 C 32.152 39.06 32.069 39.104 31.992 39.174 C 30.749 40.309 30.277 40.864 28.589 41.364 C 28.139 41.5 26.636 41.797 26.169 41.876 C 26.117 41.885 26.065 41.896 26.015 41.911 C 25.92 41.932 25.859 42.013 25.875 42.098 C 25.887 42.19 25.959 42.24 26.061 42.253 C 26.099 42.255 26.138 42.255 26.176 42.252 Z" style="fill: rgb(1, 1, 1);" transform="matrix(-0.954029, -0.299715, 0.299715, -0.954029, 44.716017, 88.204544)"/>
    </g>
    <g transform="matrix(1, 0, 0, 1, -1.308865, 1.611919)" style="">
      <title>Long may buon</title>
      <path class="cls-4" d="M 42.971 6.621 C 44.54 6.698 46.008 6.992 47.316 7.754 C 48.074 8.191 48.684 8.797 49.085 9.51 C 49.135 9.6 49.162 9.69 49.048 9.754 C 48.947 9.813 48.864 9.769 48.787 9.699 C 47.544 8.564 46.029 7.819 44.341 7.319 C 43.891 7.183 43.431 7.076 42.964 6.997 C 42.912 6.988 42.86 6.977 42.81 6.962 C 42.715 6.941 42.654 6.86 42.67 6.775 C 42.682 6.683 42.754 6.633 42.856 6.62 C 42.894 6.618 42.933 6.618 42.971 6.621 Z" style="fill: rgb(1, 1, 1);" transform="matrix(-0.990236, 0.139398, -0.139398, -0.990236, 92.490457, 9.922015)"/>
      <path class="cls-4" d="M 17.464 9.452 C 19.033 9.375 20.501 9.081 21.809 8.319 C 22.567 7.882 23.177 7.276 23.578 6.563 C 23.628 6.473 23.655 6.383 23.541 6.319 C 23.44 6.26 23.357 6.304 23.28 6.374 C 22.037 7.509 20.522 8.254 18.834 8.754 C 18.384 8.89 17.924 8.997 17.457 9.076 C 17.405 9.085 17.353 9.096 17.303 9.111 C 17.208 9.132 17.147 9.213 17.163 9.298 C 17.175 9.39 17.247 9.44 17.349 9.453 C 17.387 9.455 17.426 9.455 17.464 9.452 Z" style="fill: rgb(1, 1, 1);" transform="matrix(0.990236, 0.139398, -0.139398, 0.990236, 1.296558, -2.765565)"/>
    </g>
    <g transform="matrix(1, 0, 0, 1, -1.814739, 0.719908)" style="visibility: hidden;">
      <title>Long may vui</title>
      <path class="cls-4" d="M 42.971 9.779 C 44.54 9.702 46.008 9.408 47.316 8.646 C 48.074 8.209 48.684 7.603 49.085 6.89 C 49.135 6.8 49.162 6.71 49.048 6.646 C 48.947 6.587 48.864 6.631 48.787 6.701 C 47.544 7.836 46.029 8.581 44.341 9.081 C 43.891 9.217 43.431 9.324 42.964 9.403 C 42.912 9.412 42.86 9.423 42.81 9.438 C 42.715 9.459 42.654 9.54 42.67 9.625 C 42.682 9.717 42.754 9.767 42.856 9.78 C 42.894 9.782 42.933 9.782 42.971 9.779 Z" style="fill: rgb(1, 1, 1);" transform="matrix(-0.71749, -0.696569, 0.696569, -0.71749, 73.117118, 46.054245)"/>
      <path class="cls-4" d="M 17.464 6.294 C 19.033 6.371 20.501 6.665 21.809 7.427 C 22.567 7.864 23.177 8.47 23.578 9.183 C 23.628 9.273 23.655 9.363 23.541 9.427 C 23.44 9.486 23.357 9.442 23.28 9.372 C 22.037 8.237 20.522 7.492 18.834 6.992 C 18.384 6.856 17.924 6.749 17.457 6.67 C 17.405 6.661 17.353 6.65 17.303 6.635 C 17.208 6.614 17.147 6.533 17.163 6.448 C 17.175 6.356 17.247 6.306 17.349 6.293 C 17.387 6.291 17.426 6.291 17.464 6.294 Z" style="fill: rgb(1, 1, 1);" transform="matrix(0.669054, -0.743214, 0.743214, 0.669054, 0.896872, 17.760264)"/>
    </g>
  </g>
</svg>