<?xml version="1.0" encoding="utf-8"?>
<svg viewBox="-24.145 -113.482 678.674 656.942" xmlns="http://www.w3.org/2000/svg" xmlns:xlink="http://www.w3.org/1999/xlink">
  <defs>
    <linearGradient id="a" x1="410.35" y1="735.139" x2="745.172" y2="303.556" gradientUnits="userSpaceOnUse">
      <stop offset="0" stop-color="#3900a3"/>
      <stop offset="0" stop-color="#bebad1"/>
      <stop offset="0.499" stop-color="#e8e3f8"/>
      <stop offset="0.735" stop-color="#eee9fb"/>
      <stop offset="1" stop-color="#fff"/>
    </linearGradient>
    <linearGradient id="b" x1="392.279" y1="614.763" x2="552.012" y2="398.202" gradientUnits="userSpaceOnUse">
      <stop offset="0" stop-color="#3900a3"/>
      <stop offset="0" stop-color="#bebad1"/>
      <stop offset="0.383" stop-color="#e8e3f8"/>
      <stop offset="1" stop-color="#f4f0ff"/>
    </linearGradient>
    <linearGradient id="c" x1="88.426" y1="750.107" x2="445.237" y2="365.127" gradientUnits="userSpaceOnUse">
      <stop offset="0" stop-color="#3900a3"/>
      <stop offset="0" stop-color="#bebad1"/>
      <stop offset="0.615" stop-color="#e8e3f8"/>
      <stop offset="1" stop-color="#f4f0ff"/>
    </linearGradient>
    <linearGradient id="d" data-name="New Gradient Swatch copy 3" x1="235.156" y1="331.552" x2="714.888" y2="331.552" gradientUnits="userSpaceOnUse">
      <stop offset="0" stop-color="#1194f6"/>
      <stop offset="1" stop-color="#95d0ff"/>
    </linearGradient>
    <linearGradient id="e" x1="272.939" y1="385.16" x2="718.522" y2="200.599" xlink:href="#d"/>
    <linearGradient id="f" x1="137.477" y1="394.294" x2="242.312" y2="268.492" gradientUnits="userSpaceOnUse">
      <stop offset="0" stop-color="#1194f6"/>
      <stop offset="1" stop-color="#f3effe"/>
    </linearGradient>
    <linearGradient id="g" x1="498.534" y1="238.235" x2="598.127" y2="118.723" xlink:href="#f"/>
    <linearGradient id="h" data-name="New Gradient Swatch copy 6" x1="214.238" y1="263.894" x2="352.692" y2="119.548" gradientTransform="matrix(-1, 0, 0, -1, 3.35662, -1.678351)" gradientUnits="userSpaceOnUse">
      <stop offset="0" stop-color="#e55ec9"/>
      <stop offset="0.999" stop-color="#fdf2fb"/>
    </linearGradient>
    <linearGradient id="i" x1="186.493" y1="147.057" x2="210.919" y2="83.044" gradientTransform="translate(31.829 -42.83) rotate(13.351)" xlink:href="#d"/>
    <linearGradient id="j" x1="196.927" y1="151.038" x2="221.353" y2="87.026" xlink:href="#d"/>
    <linearGradient id="k" x1="362.843" y1="226.261" x2="391.617" y2="52.024" gradientTransform="matrix(0.71793, 0, 0, 0.71793, 63.192143, 135.617256)" xlink:href="#h"/>
    <linearGradient id="l" x1="177.528" y1="392.712" x2="352.6" y2="392.712" gradientUnits="userSpaceOnUse">
      <stop offset="0" stop-color="#e55ec9"/>
      <stop offset="0.329" stop-color="#f96b6e"/>
      <stop offset="0.999" stop-color="#fdf2fb"/>
    </linearGradient>
    <linearGradient id="m" data-name="New Gradient Swatch copy 2" x1="414.48" y1="350.139" x2="364.061" y2="427.168" gradientUnits="userSpaceOnUse">
      <stop offset="0" stop-color="#813abe"/>
      <stop offset="1" stop-color="#e55ec9"/>
    </linearGradient>
    <linearGradient id="n" x1="366.577" y1="301.267" x2="270.64" y2="300.567" xlink:href="#m"/>
    <linearGradient id="o" data-name="New Gradient Swatch" x1="344.861" y1="452.234" x2="568.641" y2="169.055" gradientUnits="userSpaceOnUse">
      <stop offset="0" stop-color="#3900a3"/>
      <stop offset="0" stop-color="#bebad1"/>
      <stop offset="0.499" stop-color="#e8e3f8"/>
      <stop offset="1" stop-color="#f4f0ff"/>
    </linearGradient>
    <linearGradient id="p" x1="504.459" y1="307.11" x2="585.959" y2="222.847" xlink:href="#m"/>
    <linearGradient id="q" x1="454.085" y1="350.572" x2="517.81" y2="243.432" xlink:href="#m"/>
    <linearGradient id="r" data-name="New Gradient Swatch copy" x1="464.347" y1="154.462" x2="491.43" y2="129.291" gradientUnits="userSpaceOnUse">
      <stop offset="0" stop-color="#ffb876"/>
      <stop offset="1" stop-color="#fdcca3"/>
    </linearGradient>
    <linearGradient id="s" data-name="New Gradient Swatch copy 4" x1="383.528" y1="324.483" x2="476.554" y2="225.255" gradientUnits="userSpaceOnUse">
      <stop offset="0" stop-color="#3900a3"/>
      <stop offset="1" stop-color="#5251de"/>
    </linearGradient>
    <linearGradient id="t" x1="433.201" y1="127.012" x2="432.407" y2="256.405" xlink:href="#o"/>
    <linearGradient id="u" x1="413.7" y1="190.851" x2="360.49" y2="278.153" xlink:href="#r"/>
    <linearGradient id="v" x1="420.326" y1="194.889" x2="367.116" y2="282.192" xlink:href="#r"/>
    <linearGradient id="w" x1="428.624" y1="178.402" x2="447.439" y2="135.959" xlink:href="#r"/>
    <linearGradient id="x" x1="428.065" y1="291.637" x2="324.426" y2="371.467" xlink:href="#m"/>
    <linearGradient id="y" x1="490.098" y1="214.247" x2="566.826" y2="138.556" xlink:href="#o"/>
    <linearGradient id="z" x1="651.447" y1="217.616" x2="686.227" y2="42.207" xlink:href="#o"/>
    <linearGradient gradientUnits="userSpaceOnUse" x1="367.833" y1="-8.392" x2="367.833" y2="413.987" id="gradient-0" gradientTransform="matrix(1.029996, 0, 0, 1.362147, 0, 0)">
      <stop offset="0" style="stop-color: rgba(130, 137, 232, 1)"/>
      <stop offset="1" style="stop-color: rgba(44, 55, 216, 1)"/>
    </linearGradient>
  </defs>
  <path d="M 1.007 -14.331 L 360.018 -112.034 L 607.429 -112.034 L 649.652 43.113 L 649.652 405.411 L 614.635 414.941 L 597.238 539.882 L -19.452 539.882 L 38.523 123.522 L 1.007 -14.331 Z" style="paint-order: fill; fill-rule: nonzero; stroke-width: 0px; stroke: rgb(176, 160, 160); fill: url(#gradient-0);"/>
  <g transform="matrix(1, 0, 0, 1, -111.35984, -57.832165)">
    <g>
      <path d="M708.979,197.191,551.038,383.382V550H664.3a44.684,44.684,0,0,0,44.684-44.683Z" fill="url(#a)"/>
      <polygon points="551.038 383.382 393.097 463.178 393.097 550 551.038 550 551.038 383.382" fill="url(#b)"/>
      <path d="M393.1,463.178H235.156v42.139A44.683,44.683,0,0,0,279.839,550H393.1Z" fill="url(#c)"/>
      <polygon points="394.943 470.927 235.156 470.927 235.156 455.428 391.25 455.428 546.143 377.173 703.069 192.178 714.888 202.204 555.932 389.591 554.532 390.299 394.943 470.927" fill="url(#d)"/>
      <path d="M713.736,232.949l-43.3-36.116a6.649,6.649,0,0,1,2.075-11.387L724.1,167.51a6.65,6.65,0,0,1,8.756,7.289l-8.289,54.051A6.65,6.65,0,0,1,713.736,232.949Z" fill="url(#e)"/>
      <circle cx="235.156" cy="463.178" r="15.621" fill="#1194f6"/>
      <circle cx="393.278" cy="463.178" r="15.621" fill="#1194f6"/>
      <circle cx="551.038" cy="383.382" r="15.621" fill="#1194f6"/>
    </g>
    <path d="M247.68,286.713A19.679,19.679,0,0,0,221.1,272.388a19.7,19.7,0,0,0-38.708,5.165v9.264a19.7,19.7,0,0,0,4.379,38.909H243.7a19.709,19.709,0,0,0,3.977-39.013Z" fill="url(#f)"/>
    <path d="M600.752,130.782a12.137,12.137,0,0,0-16.392-8.834,12.147,12.147,0,0,0-23.871,3.185v5.713a12.149,12.149,0,0,0,2.7,24H598.3a12.155,12.155,0,0,0,2.453-24.059Z" fill="url(#g)"/>
    <rect x="-361.533" y="-211.539" width="162.606" height="97.787" rx="19.012" transform="matrix(-1, 0, 0, -1, 0, 0)" style="paint-order: fill; fill: rgb(197, 197, 197);"/>
    <circle cx="198.892" cy="123.482" r="31.809" transform="translate(-23.268 49.652) rotate(-13.451)" fill="#95d0ff"/>
    <circle cx="198.892" cy="114.563" r="12.965" transform="translate(-21.079 49.022) rotate(-13.351)" fill="url(#i)"/>
    <path d="M198.892,155.291a31.7,31.7,0,0,1-22.573-9.4,25.693,25.693,0,0,1,45.146,0A31.7,31.7,0,0,1,198.892,155.291Z" fill="url(#j)"/>
    <path d="M 356.867 213.337 L 321.843 197.589 C 320.643 197.05 319.307 198.013 319.441 199.322 C 319.459 199.505 319.507 199.684 319.582 199.85 L 335.33 234.873 C 335.869 236.073 337.507 236.24 338.276 235.172 C 338.414 234.982 338.511 234.765 338.561 234.536 L 340.583 225.238 L 348.717 233.372 C 349.384 234.04 350.468 234.04 351.136 233.372 L 355.365 229.142 C 356.034 228.475 356.034 227.391 355.365 226.724 L 347.231 218.59 L 356.529 216.567 C 357.814 216.288 358.316 214.721 357.432 213.747 C 357.274 213.573 357.081 213.433 356.867 213.337 Z" fill="url(#k)" style=""/>
    <g>
      <path d="M331,342s-8.859-3.564-28.1,0-46.679,22.527-71.634,36.491-34.974,26.789-14.534,20.778,32.864-5.21,5.61,11.622-47.693,24.849-44.486,32.864,77.351-24.848,102.2-35.268,25.249-7.615,12.424,3.206-7.214,16.833,8.016,10.42,51.718-38.18,52.1-49.7Z" fill="url(#l)"/>
      <path d="M431.754,362.42s-10.537,35.27-14.69,39.423-83.157,36.194-89.046,29.074,28.526-27.887,39.206-38.567,19.58-32.634,19.58-32.634Z" fill="url(#m)"/>
      <path d="M392.864,296.721s-30.379-20.787-36.22-21.4-87.409,24.18-87.507,33.42,39.717,3.731,54.737,5.314,35.75,13.048,35.75,13.048Z" fill="url(#n)"/>
      <path d="M408.514,227.283s-11.349,16.411-6.256,33.694l1.826,6.2L398.768,301.2l33.974-12.663,4.565-47.5Z" fill="#3900a3"/>
      <path d="M612.631,211.868c14.693,17.841-20,87.98-118.847,130.135-58.343,24.88-137.574,35.685-137.574,35.685s-24.49-9.364-25.21-41.057c0,0,80.5-66.754,133.888-95.682S601.827,198.749,612.631,211.868Z" fill="url(#o)"/>
      <path d="M340.775,328.671c1.933,9.579,7.893,28.955,25.882,47.411-6.607,1.082-10.447,1.606-10.447,1.606s-24.49-9.364-25.21-41.057C331,336.631,334.6,333.644,340.775,328.671Z" fill="#813abe"/>
      <path d="M612.631,211.868c9.328,11.326-1.257,43.732-35.517,76.673-35.914-29.2-38.916-58.926-37.21-74.822C575.28,205.546,606.33,204.216,612.631,211.868Z" fill="url(#p)"/>
      <circle cx="497.776" cy="277.115" r="25.848" fill="url(#q)"/>
      <circle cx="497.776" cy="277.115" r="16.138" transform="translate(-50.155 433.146) rotate(-45)" fill="#95d0ff"/>
      <path d="M500.76,109.731l-39,37.917,8.835,11.893s31.168-33.172,37.957-43.566Z" fill="url(#r)"/>
      <path d="M443.44,156.272s14.334-10.228,18.86-15.172c0,0,12.573,8.886,13.579,20.956,0,0-17.649,22.884-22.278,24.141S443.44,156.272,443.44,156.272Z" fill="#c5c0d8"/>
      <path d="M439.689,314.781s-7.935,6.534-7.935,9.389,6.116,6.422,12.742,12.13c4.681,4.034,17.074,10.466,22.171,7.612s-7.645-11.893-10.449-17.364-2.663-7.356-2.663-7.356Z" fill="#1194f6"/>
      <path d="M408.514,227.283s-12.6,22.006,2.789,30.915,37.588,12.455,37.588,12.455-6.9,21.26-12.542,43.972c0,0,5.978,5.129,17.751,5.129,0,0,19.845-41.656,27.537-59.24s-38.2-25.524-38.2-25.524l2.768-6.547Z" fill="url(#s)"/>
      <path d="M443.44,156.272c12.434,1.866,17.351,14.585,13.328,34.2s-8.547,34.2-10.56,37.971c0,0-19.781,9.183-37.694-1.16a2.3,2.3,0,0,1-.991-2.888,100.8,100.8,0,0,0,7.25-26.882C416.533,181.922,423.323,153.255,443.44,156.272Z" fill="url(#t)"/>
      <g>
        <path d="M407.342,188.746a132.027,132.027,0,0,0-20.78,27.726c-6.092,11.272-8.2,24.348-11.3,35.942l10.895,2.788a129.635,129.635,0,0,1,11.279-27.919c6.75-12.234,17.876-24.963,20.922-30.081Z" fill="url(#u)"/>
        <path d="M386.154,255.2s2.986,8.748,0,11.891-1.938,7.964-4.663,7.964.309-4.383,0-9.012c-.21-3.143-8.174,12.366-10.479,12.366s-5.239-6.233-4.4-11.605,8.648-14.392,8.648-14.392Z" fill="url(#v)"/>
      </g>
      <path d="M510.955,96.274c3.481-1.684,11.822-1.22,10.277,6.348s-6.178,7.109-6.178,7.109Z" fill="#ffb876"/>
      <path d="M500.76,109.731c6.771-8.748,12.554-16.04,16.075-22.83s5.783-5.281,3.52,2.515-5.783,11.819-4.275,14.082,5.281-2.012,6.79,1.006-1.006,8.8-3.269,7.922-5.494,5.968-11.046,3.549A17.4,17.4,0,0,1,500.76,109.731Z" fill="#fdcca3"/>
      <path d="M461.763,118.058c2.143,7.854,5.805,22.335,0,29.59-2.367,2.959-8.253,1.184-10.324,2.663s-2.072,10.949-2.072,10.949,7.694,8.877,2.072,10.356-20.256-6.051-18.97-11.836c.592-2.663,5.622-6.617,5.622-14.849s-10.061-23.322-.888-30.424S459.59,110.09,461.763,118.058Z" fill="url(#w)"/>
      <path d="M428.394,128.7s-5.11-14.3,2.649-20.162,15.138-3.217,20.058-6.055,12.247-10.407,13.787-8.894,1.866,4.542,0,8.894c0,0,5.324-2.649,6.46-.946s2.743,16.25-8.658,20.046-18.393,6.446-18.208,9.662-3.247,18.008-6.735,17.236-3.487-7.382-3.487-7.382-4.542,3.072-4.92-.174S428.864,130.242,428.394,128.7Z" fill="#3b3457"/>
      <path d="M418.374,169.052c-7.632,8.555-14.1,18.847-17,21.75,0,0,12.5,11.36,19.028,13.916,0,0,18.824-19.879,19.92-25.275.392-1.929-.868-5.074-2.648-8.319A11.9,11.9,0,0,0,418.374,169.052Z" fill="#f4f0ff"/>
      <path d="M400.976,319.754c8.356,8.5-26.039,30.469-47.993,41.149s-50.433,20.516-53.993,16.785,22.547-20.765,44.5-35.685S392.6,311.239,400.976,319.754Z" fill="url(#x)"/>
      <path d="M448.639,140.329s-6.054,2.649-7.757-3.217.755-9.461,3.879-8.136S448.639,140.329,448.639,140.329Z" fill="#fdcca3"/>
      <path d="M448.639,123.205s2.844,11.438.8,12.422-7.206-9.1-7.206-9.1Z" fill="#3b3457"/>
    </g>
    <path d="M530.064,178.3h-3.573v-3.574a3.259,3.259,0,0,0-6.517,0V178.3H516.4a3.259,3.259,0,0,0,0,6.517h3.574v3.574a3.259,3.259,0,0,0,6.517,0v-3.574h3.573a3.259,3.259,0,1,0,0-6.517Z" fill="url(#y)"/>
    <path d="M455.471,503.331H451.9v-3.574a3.259,3.259,0,1,0-6.517,0v3.574h-3.574a3.258,3.258,0,0,0,0,6.516h3.574v3.574a3.259,3.259,0,0,0,6.517,0v-3.574h3.574a3.258,3.258,0,1,0,0-6.516Z" fill="#fff"/>
    <path d="M617.285,384.52h-3.574v-3.574a3.259,3.259,0,0,0-6.517,0v3.574h-3.573a3.258,3.258,0,1,0,0,6.516h3.573v3.574a3.259,3.259,0,1,0,6.517,0v-3.574h3.574a3.258,3.258,0,0,0,0-6.516Z" fill="#fff"/>
    <path d="M684.232,470.01h-3.573v-3.574a3.259,3.259,0,0,0-6.517,0v3.574h-3.574a3.259,3.259,0,0,0,0,6.517h3.574V480.1a3.259,3.259,0,0,0,6.517,0v-3.574h3.573a3.259,3.259,0,1,0,0-6.517Z" fill="#fff"/>
    <path d="M668.044,334.555a6.8,6.8,0,1,1-6.8-6.8A6.8,6.8,0,0,1,668.044,334.555Z" fill="#fff"/>
    <path d="M326.216,516.642a6.8,6.8,0,1,1-6.8-6.8A6.8,6.8,0,0,1,326.216,516.642Z" fill="#fff"/>
    <path d="M607.162,506.589a6.8,6.8,0,1,1-6.8-6.8A6.8,6.8,0,0,1,607.162,506.589Z" fill="#fff"/>
    <path d="M527.513,455.789a6.8,6.8,0,1,1-6.8-6.8A6.8,6.8,0,0,1,527.513,455.789Z" fill="#fff"/>
    <path d="M674.844,133.91a6.8,6.8,0,1,1-6.8-6.8A6.8,6.8,0,0,1,674.844,133.91Z" fill="url(#z)"/>
    <path d="M 302.935 163.537 C 302.935 155.187 295.344 148.418 285.978 148.418 C 276.612 148.418 269.021 155.187 269.021 163.537 C 259.654 163.537 252.063 170.306 252.063 178.657 C 252.063 187.007 259.654 193.777 269.021 193.777 C 269.021 202.127 276.612 208.895 285.978 208.895 C 295.344 208.895 302.935 202.127 302.935 193.777 C 312.302 193.777 319.893 187.007 319.893 178.657 C 319.893 170.306 312.302 163.537 302.935 163.537 Z" fill="rgba(242,242,242,1)" data-uid="o_f1d6ii15d_5" style="" transform="matrix(-0.890301, 0.455372, -0.455372, -0.890301, 621.939757, 207.488182)"/>
    <path d="M 295.417 160.263 C 295.417 152.191 288.076 145.648 279.023 145.648 C 269.971 145.648 262.63 152.191 262.63 160.263 C 253.577 160.263 246.239 166.807 246.239 174.879 C 246.239 182.95 253.577 189.494 262.63 189.494 C 262.63 197.566 269.971 204.109 279.023 204.109 C 288.076 204.109 295.417 197.566 295.417 189.494 C 304.469 189.494 311.807 182.95 311.807 174.879 C 311.807 166.805 304.469 160.263 295.417 160.263 Z" fill="#ffffff" data-uid="o_f1d6ii15d_6" style="" transform="matrix(-0.823484, 0.567339, -0.567339, -0.823484, 608.009463, 160.587501)"/>
    <g transform="matrix(1.133828, 0, 0, 1.133828, 244.577179, 122.455643)" data-uid="o_f1d6ii15d_7" style="">
      <path fill="#F03A73" d="M56.3 57.2c-.3 3.1-1.9 5.6-1.7.4-.5 3.9-3.3 2.5-.9-1.2-2.3 3.4-4 2.8-1.1-.9-2.6 2.4-4.2-.9 1.1-1.5-6.7-1.8 3.2-4.5 2.6 3.2z" transform="matrix(-0.8586771488189697, 0.5125168561935425, -0.5125168561935425, -0.8586771488189697, 75.35260009765625, 36.83482360839844)" data-uid="o_f1d6ii15d_8"/>
      <path fill="#702D59" d="M55.5 56c-.8.3-1.5-.7-.9-1.4 8.7-10.8 1.1-19.1-5.5-20.7.6-1.9 2.2-8.1 2.8-10 14 2.3 10.2 28.8 3.6 32.1z" transform="matrix(-0.8586771488189697, 0.5125168561935425, -0.5125168561935425, -0.8586771488189697, 75.35260009765625, 36.83482360839844)" data-uid="o_f1d6ii15d_9"/>
      <path fill="rgba(46,56,72,1)" d="M55.5 56c-.8.3-1.5-.7-.9-1.4 4.5-5.5 4.7-10.4 2.9-14 4 7.4 3.1-8.9.5-13.1 6.4 7.8 2.9 25.8-2.5 28.5z" transform="matrix(-0.8586771488189697, 0.5125168561935425, -0.5125168561935425, -0.8586771488189697, 75.35260009765625, 36.83482360839844)" data-uid="o_f1d6ii15d_10"/>
      <path fill="#F03A73" d="M9.7 57.2c.3 3.1 1.9 5.6 1.7.4.5 3.9 3.3 2.5.9-1.2 2.3 3.4 4 2.8 1.1-.9 2.6 2.4 4.2-.9-1.1-1.5 6.7-1.8-3.2-4.5-2.6 3.2z" transform="matrix(-0.8660127520561218, -0.5000221729278564, 0.5000221729278564, -0.8660127520561218, 48.92463684082031, 70.77935791015625)" data-uid="o_f1d6ii15d_11"/>
      <path fill="#702D59" d="M10.5 56c.8.3 1.5-.7.9-1.4-8.8-10.8-1.1-19.1 5.5-20.7-.6-1.9-2.2-8.1-2.8-10C.1 26.2 3.9 52.7 10.5 56z" transform="matrix(-0.8660127520561218, -0.5000221729278564, 0.5000221729278564, -0.8660127520561218, 48.92463684082031, 70.77935791015625)" data-uid="o_f1d6ii15d_12"/>
      <path fill="rgba(46,56,72,1)" d="M10.5 56c.8.3 1.5-.7.9-1.4-4.5-5.5-4.7-10.4-2.9-14-3.9 7.3-3.1-8.9-.5-13.2-6.4 7.9-2.9 25.9 2.5 28.6z" data-uid="o_f1d6ii15d_13" transform="matrix(-0.8660127520561218, -0.5000221729278564, 0.5000221729278564, -0.8660127520561218, 48.92463684082031, 70.77935791015625)"/>
      <path fill="rgba(46,56,72,1)" d="M25 63.2c.2.3.4.5.6.8.8 1.1 1.2.7 1.2-.4 0-.3-.1-.7-.3-.9-.8-.8-2.3-.6-1.5.5z" transform="matrix(1, 0, 0, 1, 0, 0)" data-uid="o_f1d6ii15d_14"/>
      <path fill="rgba(46,56,72,1)" d="M23.6 64c.7-1.5-2.1-2.8-1.3.2.5 1.3.9.9 1.3-.2z" transform="matrix(1, 0, 0, 1, 0, 0)" data-uid="o_f1d6ii15d_15"/>
      <path fill="rgba(46,56,72,1)" d="M27.7 62c.3.3.6.5.9.8.2.2.6.7.9.7.6.1.5-1.2.4-1.5-.1-.4-.3-.8-.7-1.1-1.1-.7-2.8 0-1.5 1.1z" transform="matrix(1, 0, 0, 1, 0, 0)" data-uid="o_f1d6ii15d_16"/>
      <path fill="rgba(46,56,72,1)" d="M19.4 62.9c0-.3.1-.7.3-.9.2-.3.6-.5 1-.4.2 0 .5.1.6.3.1.2 0 .5-.2.7-.2.3-.4.5-.5.8-.1.2-.3.6-.5.7-.5.2-.7-.9-.7-1.2z" transform="matrix(1, 0, 0, 1, 0, 0)" data-uid="o_f1d6ii15d_17"/>
      <path fill="rgba(46,56,72,1)" d="M41 63.2c-.2.3-.4.5-.6.8-.8 1.1-1.2.7-1.2-.4 0-.3.1-.7.3-.9.8-.8 2.3-.6 1.5.5z" transform="matrix(1, 0, 0, 1, 0, 0)" data-uid="o_f1d6ii15d_18"/>
      <path fill="rgba(46,56,72,1)" d="M42.4 64c-.7-1.5 2.1-2.8 1.3.2-.5 1.3-.9.9-1.3-.2z" transform="matrix(1, 0, 0, 1, 0, 0)" data-uid="o_f1d6ii15d_19"/>
      <path fill="rgba(46,56,72,1)" d="M38.3 62c-.3.3-.6.5-.9.8-.2.2-.6.7-.9.7-.6.1-.5-1.2-.4-1.5.1-.4.3-.8.7-1.1 1.1-.7 2.8 0 1.5 1.1z" transform="matrix(1, 0, 0, 1, 0, 0)" data-uid="o_f1d6ii15d_20"/>
      <path fill="rgba(46,56,72,1)" d="M46.6 62.9c0-.3-.1-.7-.3-.9-.2-.3-.6-.5-1-.4-.2 0-.5.1-.6.3-.1.2 0 .5.2.7.2.3.4.5.5.8.1.2.3.6.5.7.5.2.7-.9.7-1.2z" transform="matrix(1, 0, 0, 1, 0, 0)" data-uid="o_f1d6ii15d_21"/>
      <path fill="#F03A73" d="M27.1 51.4c.4 1.6.8 3.2 1.4 4.7 3.7 9.5-8.9 9.5-9 4.8 0-3.2.6-6.4.9-9.6h6.7z" transform="matrix(1, 0, 0, 1, 0, 0)" data-uid="o_f1d6ii15d_22"/>
      <path fill="#F03A73" d="M38.9 51.4h6.6c.3 3.2.9 6.4.9 9.6 0 4.6-12.6 4.6-9-4.8.7-1.6 1.1-3.2 1.5-4.8z" transform="matrix(1, 0, 0, 1, 0, 0)" data-uid="o_f1d6ii15d_23"/>
      <path fill="#D62766" d="M41.5 12c-2.5.2-4.8 1.3-6.3 2.8-.2-2.5.4-5.5 2.2-8.6 3.2-5.6 5.3-2 .2 4 10.2-8.8 8.3-1.7 1.2.5 5.9-1.1 5.3 1.1 2.7 1.3z" transform="matrix(1, 0, 0, 1, 0, 0)" data-uid="o_f1d6ii15d_24"/>
      <path fill="#D62766" d="M24.5 12c2.5.2 4.8 1.3 6.3 2.8.2-2.5-.4-5.5-2.2-8.6-3.2-5.6-5.3-2-.2 4-10.2-8.8-8.3-1.7-1.2.5-5.9-1.1-5.3 1.1-2.7 1.3z" transform="matrix(1, 0, 0, 1, 0, 0)" data-uid="o_f1d6ii15d_25"/>
      <path fill="#F2F2F2" d="M52.6 23.8l-8.9-12.3c4.4 1.1 9.3-6.2 11.6-10.3.3-.4 1.7-.2 1.8.2 1.3 5.4 1.8 11.1-.2 16.2-.9 2.1-2.2 4.3-4.3 6.2z" transform="matrix(1, 0, 0, 1, 0, 0)" data-uid="o_f1d6ii15d_26"/>
      <path fill="rgba(242,242,242,1)" d="M52.6 23.8l-8.9-12.3.4.1c2 2.3 3.7 3.8 5.4 4.4 1.7.6 3.4.4 4.8-.6s2.4-2.6 2.9-4.6c.5-2 .6-4.3.3-6.8.5 2.9.8 5.9.4 9.2-.2 1.7-.7 3.4-1.5 5.2-.7 1.9-2 3.7-3.8 5.4z" transform="matrix(1, 0, 0, 1, 0, 0)" data-uid="o_f1d6ii15d_27"/>
      <path d="M45 11.6l10.1 9.3c1.3-1.8 2-3.7 2.5-5.5l-9.7-4.9c-1.1.6-2 1-2.9 1.1z" fill="#702D59" transform="matrix(1, 0, 0, 1, 0, 0)" data-uid="o_f1d6ii15d_28"/>
      <path d="M49.3 9.4l8.8 3.4c.1-1.2.2-2.4.1-3.6l-6.9-1.9c-.6.8-1.3 1.5-2 2.1z" fill="#702D59" transform="matrix(1, 0, 0, 1, 0, 0)" data-uid="o_f1d6ii15d_29"/>
      <path d="M52.6 5.7L58 6.8l-.3-2.1-4.1-.7c-.3.6-.6 1.2-1 1.7z" fill="#702D59" transform="matrix(1, 0, 0, 1, 0, 0)" data-uid="o_f1d6ii15d_30"/>
      <path fill="rgba(46,56,72,1)" d="M55.1 20.9l-5.2-4.8c2.1.7 4.2 0 5.7-1.7l2 1c-.5 1.8-1.2 3.7-2.5 5.5z" transform="matrix(1, 0, 0, 1, 0, 0)" data-uid="o_f1d6ii15d_31"/>
      <path fill="rgba(46,56,72,1)" d="M57.8 6.8c0-.7 0-1.3-.1-2h.1l.3 2.1-.3-.1z" transform="matrix(1, 0, 0, 1, 0, 0)" data-uid="o_f1d6ii15d_32"/>
      <path fill="rgba(46,56,72,1)" d="M56.8 12.3c.4-1 .7-2.1.8-3.2l.5.1c.1 1.2 0 2.3-.1 3.6l-1.2-.5z" transform="matrix(1, 0, 0, 1, 0, 0)" data-uid="o_f1d6ii15d_33"/>
      <path fill="#F2F2F2" d="M13.4 23.8l8.9-12.3c-4.4 1.1-9.4-6.3-11.6-10.3-.3-.4-1.7-.2-1.8.2C7 9.8 7.1 17.9 13.4 23.8z" transform="matrix(1, 0, 0, 1, 0, 0)" data-uid="o_f1d6ii15d_34"/>
      <path fill="rgba(242,242,242,1)" d="M13.4 23.8l8.9-12.3-.4.1c-2 2.3-3.7 3.8-5.4 4.4-1.7.6-3.4.4-4.8-.6s-2.4-2.6-2.9-4.6c-.7-2-.7-4.3-.4-6.8-.5 2.9-.8 5.9-.4 9.2.2 1.7.7 3.4 1.5 5.2.8 1.9 2.1 3.7 3.9 5.4z" transform="matrix(1, 0, 0, 1, 0, 0)" data-uid="o_f1d6ii15d_35"/>
      <path d="M21 11.6l-10.1 9.3c-1.3-1.8-2-3.7-2.5-5.5l9.7-4.9c1.1.6 2 1 2.9 1.1z" fill="#702D59" transform="matrix(1, 0, 0, 1, 0, 0)" data-uid="o_f1d6ii15d_36"/>
      <path d="M16.7 9.4L8 12.8c-.1-1.2-.2-2.4-.1-3.6l6.9-1.9c.5.8 1.2 1.5 1.9 2.1z" fill="#702D59" data-uid="o_f1d6ii15d_37" transform="matrix(1, 0, 0, 1, 0, 0)"/>
      <path d="M13.4 5.7L8 6.8l.3-2.1 4.1-.7c.3.6.6 1.2 1 1.7z" fill="#702D59" transform="matrix(1, 0, 0, 1, 0, 0)" data-uid="o_f1d6ii15d_38"/>
      <path fill="rgba(46,56,72,1)" d="M10.9 20.9l5.2-4.8c-2.1.7-4.2 0-5.7-1.7l-2 1c.5 1.8 1.2 3.7 2.5 5.5z" transform="matrix(1, 0, 0, 1, 0, 0)" data-uid="o_f1d6ii15d_39"/>
      <path fill="rgba(46,56,72,1)" d="M8.2 6.8c0-.7 0-1.3.1-2h-.1c-.1.6-.1 1.3-.2 2h.2z" transform="matrix(1, 0, 0, 1, 0, 0)" data-uid="o_f1d6ii15d_40"/>
      <path fill="rgba(46,56,72,1)" d="M9.2 12.3c-.4-1-.7-2.1-.8-3.2l-.6.1c-.1 1.2 0 2.3.1 3.6l1.3-.5z" transform="matrix(1, 0, 0, 1, 0, 0)" data-uid="o_f1d6ii15d_41"/>
      <path fill="#F03A73" d="M 42.8 56.756 C 36.4 57.956 29.9 58.056 23.1 56.756 C 9.8 54.156 7.9 7.756 19.8 9.756 C 22.6 10.256 27.7 10.456 31.2 14.956 C 32.3 16.356 33.6 16.356 34.7 14.956 C 38.2 10.456 43.4 10.256 46.1 9.756 C 58.1 7.756 56.2 54.156 42.8 56.756 Z" data-uid="o_f1d6ii15d_42"/>
      <path fill="rgba(214,39,102,1)" d="M42.8 56.9c-6.4 1.2-12.9 1.3-19.7 0C15.2 55.3 11.3 38.1 12 25c.5 11.2 4.4 23.7 11 26.1 6.8 2.5 13.4 2.5 19.9.1 6.6-2.5 10.6-15 11.1-26.1.7 13.1-3.2 30.2-11.2 31.8z" transform="matrix(1, 0, 0, 1, 0, 0)" data-uid="o_f1d6ii15d_43"/>
      <path fill="rgba(214,39,102,1)" d="M43.7 56.4c-1.7.7-3.5 1-5.3 1.2-3.2.4-7.2.5-10.8 0-1.8-.2-3.6-.5-5.3-1.3.9.2 2.4.6 5.3.8 3.5.2 6 .3 10.7 0 1.7-.1 3.6-.3 5.4-.7z" transform="matrix(1, 0, 0, 1, 0, 0)" data-uid="o_f1d6ii15d_44"/>
      <path fill="#D62766" d="M 31.9 22 C 30.4 15.9 24.7 11.4 19.7 17.3 C 13.7 24.4 20.3 31.5 27.1 30.1 C 30.7 29.4 32.8 25.7 31.9 22 L 31.9 22 Z" data-uid="o_f1d6ii15d_45"/>
      <path class="cls-4" d="M 32.354 26.912 C 31.718 27.669 30.975 28.354 30.145 28.947 C 28.223 30.304 26.039 31.011 23.584 30.877 C 20.784 30.729 18.599 29.54 16.907 27.609 C 16.189 26.793 15.627 25.878 15.245 24.899 C 15.174 24.718 15.077 24.667 14.861 24.66 C 14.052 24.633 13.366 24.258 12.504 24.59 C 12.352 24.649 11.816 24.869 11.818 24.712 C 11.836 23.339 11.996 21.658 12.239 20.311 C 12.292 20.017 12.312 19.87 12.449 19.808 C 12.981 19.568 13.639 19.606 14.281 19.646 C 14.596 19.668 14.737 19.558 14.807 19.269 C 15.451 16.587 16.898 14.374 19.679 12.986 C 21.397 12.129 23.265 11.876 25.212 11.983 C 27.004 12.081 28.679 12.486 30.189 13.354 C 31.13 13.895 31.931 14.603 32.543 15.434 C 33.021 14.998 33.49 14.566 34.009 14.181 C 35.435 13.126 37.001 12.333 38.861 12.055 C 40.62 11.792 42.289 12.068 43.861 12.734 C 46.682 13.929 48.632 15.822 49.546 18.501 C 49.606 18.676 49.697 18.733 49.887 18.765 C 51.264 18.982 52.048 19.081 53.326 19.581 C 53.514 19.656 53.629 19.834 53.665 20.177 C 53.811 21.573 54.107 23.006 54.111 24.408 C 54.108 24.679 54.02 24.693 53.764 24.644 C 52.444 24.39 51.109 24.199 49.765 24.071 C 49.428 24.039 49.371 24.165 49.298 24.388 C 48.772 25.975 47.907 27.397 46.555 28.561 C 44.964 29.932 43.03 30.627 40.845 30.839 C 37.244 31.187 34.681 29.71 32.646 27.282 C 32.556 27.176 32.471 27.059 32.354 26.912 Z" style="fill: rgb(1, 1, 1);" transform="matrix(0.999974, -0.007269, 0.007269, 0.999974, -0.15486, 0.241719)"/>
      <path class="cls-8" d="M 32.543 25.216 C 32.081 26.064 31.477 26.843 30.754 27.526 C 29.277 28.92 27.544 29.899 25.378 30.18 C 22.785 30.519 20.511 29.869 18.622 28.249 C 16.246 26.211 15.163 23.674 15.324 20.751 C 15.45 18.5 16.249 16.458 18.007 14.792 C 19.464 13.41 21.288 12.707 23.393 12.572 C 24.913 12.471 26.414 12.579 27.851 13.063 C 29.971 13.777 31.565 14.998 32.355 16.974 C 32.597 16.832 32.706 16.604 32.868 16.419 C 34.299 14.787 36.001 13.474 38.246 12.823 C 39.957 12.327 41.649 12.472 43.284 13.09 C 46.257 14.222 48.293 16.141 49.1 18.973 C 49.611 20.756 49.359 22.539 48.81 24.285 C 48.32 25.837 47.492 27.218 46.15 28.316 C 44.31 29.818 42.087 30.359 39.65 30.242 C 37.514 30.138 35.881 29.125 34.485 27.757 C 33.817 27.112 33.256 26.384 32.819 25.595 C 32.749 25.472 32.699 25.33 32.543 25.216 Z" style="fill: rgb(156, 156, 156);" transform="matrix(0.999944, -0.010624, 0.010624, 0.999944, -0.219453, 0.344787)"/>
      <path fill="rgba(242,242,242,1)" d="M 31.763 19.876 C 30.707 14.692 22.939 10.753 18.382 15.837 C 12.976 21.918 18.909 31.151 26.497 28.407 C 29.433 27.345 32.317 22.967 31.763 19.876 Z" data-uid="o_f1d6ii15d_46" style="" transform="matrix(1, -0.000053, 0.000053, 1, -0.001113, 0.001283)"/>
      <path fill="#F2F2F2" d="M 30.01 19.553 C 28.41 14.953 23.91 11.953 19.91 16.653 C 17.51 19.453 17.51 22.253 18.71 24.353 C 18.21 22.453 18.61 20.153 20.51 17.953 C 24.11 13.753 28.11 15.753 30.01 19.553 Z" data-uid="o_f1d6ii15d_47"/>
      <path fill="rgba(72,212,255,1)" data-type="circle" data-cx="26.7" data-cy="24.2" data-r="3.3" d="M 22.21 22.653 C 22.21 25.194 24.96 26.781 27.16 25.511 C 28.181 24.922 28.81 23.832 28.81 22.653 C 28.81 20.113 26.06 18.525 23.86 19.796 C 22.839 20.385 22.21 21.474 22.21 22.653" data-uid="o_f1d6ii15d_48" style=""/>
      <path fill="rgba(46,56,72,1)" data-type="circle" data-cx="26.7" data-cy="24.2" data-r="1.6" d="M 23.91 22.653 C 23.91 23.885 25.244 24.655 26.31 24.039 C 26.805 23.753 27.11 23.225 27.11 22.653 C 27.11 21.422 25.777 20.652 24.71 21.268 C 24.215 21.554 23.91 22.082 23.91 22.653" data-uid="o_f1d6ii15d_49"/>
      <path fill="rgba(242,242,242,1)" data-type="circle" data-cx="27.8" data-cy="23.2" data-r="0.6" d="M 26.01 21.653 C 26.01 22.115 26.51 22.404 26.91 22.173 C 27.096 22.066 27.21 21.868 27.21 21.653 C 27.21 21.192 26.71 20.903 26.31 21.134 C 26.125 21.241 26.01 21.439 26.01 21.653" data-uid="o_f1d6ii15d_50"/>
      <path fill="rgba(242,242,242,1)" data-type="circle" data-cx="26.3" data-cy="24.6" data-r="0.3" d="M 24.81 23.053 C 24.81 23.284 25.06 23.429 25.26 23.313 C 25.353 23.26 25.41 23.161 25.41 23.053 C 25.41 22.822 25.16 22.678 24.96 22.794 C 24.868 22.847 24.81 22.946 24.81 23.053" data-uid="o_f1d6ii15d_51"/>
      <path fill="rgba(242,242,242,1)" d="M 32.969 19.606 C 34.15 14.378 41.98 10.831 46.28 15.931 C 51.38 22.031 47.215 30.448 38.267 28.479 C 33.838 27.505 32.269 22.706 32.969 19.606 Z" data-uid="o_f1d6ii15d_53"/>
      <path fill="#F2F2F2" d="M 34.622 19.782 C 36.222 15.182 40.722 12.182 44.722 16.882 C 47.122 19.682 47.122 22.482 45.922 24.582 C 46.422 22.682 46.022 20.382 44.122 18.182 C 40.522 13.982 36.522 15.982 34.622 19.782 Z" data-uid="o_f1d6ii15d_54"/>
      <path fill="rgba(72,212,255,1)" data-type="circle" data-cx="39.3" data-cy="24.2" data-r="3.3" d="M 35.822 22.594 C 35.822 25.134 38.572 26.722 40.772 25.452 C 41.793 24.862 42.422 23.773 42.422 22.594 C 42.422 20.054 39.672 18.466 37.472 19.736 C 36.451 20.326 35.822 21.415 35.822 22.594" data-uid="o_f1d6ii15d_55"/>
      <path fill="rgba(46,56,72,1)" data-type="circle" data-cx="39.3" data-cy="24.2" data-r="1.6" d="M 37.522 22.594 C 37.522 23.826 38.855 24.595 39.922 23.98 C 40.417 23.694 40.722 23.166 40.722 22.594 C 40.722 21.362 39.388 20.592 38.322 21.208 C 37.827 21.494 37.522 22.022 37.522 22.594" data-uid="o_f1d6ii15d_56"/>
      <path fill="rgba(242,242,242,1)" data-type="circle" data-cx="40.5" data-cy="23.2" data-r="0.6" d="M 39.722 21.594 C 39.722 22.056 40.222 22.345 40.622 22.114 C 40.807 22.006 40.922 21.808 40.922 21.594 C 40.922 21.132 40.422 20.843 40.022 21.074 C 39.836 21.182 39.722 21.38 39.722 21.594" data-uid="o_f1d6ii15d_57"/>
      <path fill="rgba(242,242,242,1)" data-type="circle" data-cx="39" data-cy="24.6" data-r="0.3" d="M 38.522 22.994 C 38.522 23.225 38.772 23.369 38.972 23.254 C 39.064 23.2 39.122 23.101 39.122 22.994 C 39.122 22.763 38.872 22.619 38.672 22.734 C 38.579 22.788 38.522 22.887 38.522 22.994" data-uid="o_f1d6ii15d_58" style="opacity: 1;"/>
      <path fill="#702D59" d="M 47.041 41.326 C 39.341 47.626 26.541 47.626 18.841 41.326 C 16.541 39.426 16.241 36.126 18.141 33.826 C 20.041 31.526 23.341 31.226 25.641 33.126 C 29.341 36.126 36.541 36.126 40.241 33.126 C 42.541 31.226 45.841 31.626 47.741 33.826 C 49.641 36.126 49.241 39.426 47.041 41.326 Z" data-uid="o_f1d6ii15d_59"/>
      <path fill="rgba(46,56,72,1)" d="M 36.841 45.726 C 34.241 46.126 31.541 46.126 28.941 45.726 C 27.341 45.426 26.241 43.926 26.641 42.326 C 27.541 38.626 32.541 36.226 31.841 40.026 C 31.241 42.926 35.341 42.026 34.141 40.026 C 32.241 36.826 37.841 38.626 39.141 42.126 C 39.741 43.626 38.541 45.426 36.841 45.726 Z" data-uid="o_f1d6ii15d_60"/>
      <path fill="#F2F2F2" d="M 24.641 42.426 C 24.841 42.926 24.041 44.426 24.041 44.426 C 22.841 43.926 21.741 43.326 20.741 42.726 C 20.741 42.726 20.441 40.626 20.941 40.426 C 22.241 39.726 24.041 41.126 24.641 42.426 Z" data-uid="o_f1d6ii15d_61"/>
      <path fill="rgba(242,242,242,1)" d="M 24.541 42.626 C 23.841 43.626 22.341 43.126 21.541 42.526 C 21.041 42.126 20.841 41.626 20.741 41.026 L 20.741 40.526 C 20.541 41.226 20.741 42.526 20.741 42.526 C 21.841 43.226 22.941 43.726 24.041 44.226 C 24.041 44.226 24.841 42.826 24.641 42.326 C 24.641 42.526 24.541 42.626 24.541 42.626 Z" data-uid="o_f1d6ii15d_62"/>
      <path fill="#F2F2F2" d="M 29.941 43.826 C 30.241 44.226 29.641 45.826 29.641 45.826 C 28.341 45.626 27.141 45.426 25.941 45.026 C 25.941 45.026 25.941 43.326 26.341 43.026 C 27.441 42.426 29.241 42.826 29.941 43.826 Z" data-uid="o_f1d6ii15d_63"/>
      <path fill="rgba(242,242,242,1)" d="M 29.641 45.826 C 28.341 45.626 27.141 45.426 25.941 45.026 C 25.941 45.026 25.941 43.726 26.241 43.226 C 26.041 44.926 29.541 45.526 30.041 43.926 C 30.141 44.426 29.641 45.826 29.641 45.826 Z" data-uid="o_f1d6ii15d_64"/>
      <path fill="#F2F2F2" d="M 26.041 35.826 C 25.841 35.326 26.541 33.726 26.541 33.726 C 27.541 34.326 28.741 34.826 30.041 35.126 C 30.041 35.126 30.141 36.926 29.741 37.126 C 28.641 37.826 26.541 37.026 26.041 35.826 Z" data-uid="o_f1d6ii15d_65"/>
      <path fill="rgba(242,242,242,1)" d="M 29.741 37.026 C 29.241 34.326 26.741 34.526 26.041 35.326 L 26.041 35.426 C 26.041 34.726 26.541 33.626 26.541 33.626 C 27.541 34.226 28.741 34.726 30.041 35.026 C 30.041 35.026 30.041 36.726 29.741 37.026 Z" data-uid="o_f1d6ii15d_66"/>
      <path fill="#F2F2F2" d="M 36.341 43.726 C 36.741 44.026 36.741 45.726 36.741 45.726 C 34.741 46.026 32.741 46.126 30.741 45.926 C 30.741 45.926 30.541 44.226 30.941 43.926 C 32.241 42.726 34.841 42.726 36.341 43.726 Z" data-uid="o_f1d6ii15d_67"/>
      <path fill="rgba(242,242,242,1)" d="M 36.741 45.726 C 34.741 46.026 32.741 46.126 30.741 45.926 C 30.741 45.926 30.641 45.126 30.741 44.526 C 31.641 46.526 36.041 45.526 36.541 43.926 C 36.741 44.526 36.741 45.726 36.741 45.726 Z" data-uid="o_f1d6ii15d_68"/>
      <path fill="#F2F2F2" d="M 30.741 37.326 C 30.441 36.926 30.841 35.226 30.841 35.226 C 32.641 35.426 34.541 35.426 36.241 34.926 C 36.241 34.926 36.941 36.526 36.641 36.926 C 35.641 38.626 32.041 38.826 30.741 37.326 Z" data-uid="o_f1d6ii15d_69"/>
      <path fill="#F2F2F2" d="M 41.741 44.426 C 40.841 44.826 39.841 45.126 38.841 45.326 C 38.841 45.326 37.941 43.826 38.241 43.326 C 38.741 42.426 40.141 42.126 40.941 42.426 C 41.441 42.726 41.741 44.426 41.741 44.426 Z" data-uid="o_f1d6ii15d_71"/>
      <path fill="rgba(242,242,242,1)" d="M 36.669 37.002 C 36.669 36.802 36.569 36.602 36.369 36.402 C 35.369 35.302 31.069 35.402 30.569 37.102 C 30.469 36.502 30.869 35.202 30.869 35.202 C 32.669 35.402 34.569 35.402 36.269 34.902 C 36.169 34.902 36.969 36.502 36.669 37.002 Z" data-uid="o_f1d6ii15d_70"/>
      <path fill="rgba(242,242,242,1)" d="M 41.141 42.626 C 41.341 44.426 38.941 45.026 38.141 43.526 C 38.141 44.126 38.841 45.326 38.841 45.326 C 39.841 45.126 40.841 44.726 41.741 44.426 C 41.741 44.426 41.441 43.126 41.141 42.626 Z" data-uid="o_f1d6ii15d_72"/>
      <path fill="#F2F2F2" d="M 44.941 40.326 C 45.441 40.526 45.141 42.626 45.141 42.626 C 44.441 43.126 43.641 43.526 42.841 43.926 C 42.841 43.926 41.741 42.626 41.841 42.126 C 42.241 40.926 43.841 39.826 44.941 40.326 Z" data-uid="o_f1d6ii15d_73"/>
      <path fill="rgba(242,242,242,1)" d="M 45.141 42.626 C 44.441 43.126 43.641 43.526 42.841 43.926 C 42.841 43.926 41.941 42.926 41.841 42.326 C 42.241 43.226 45.241 43.526 44.941 40.426 C 45.441 40.826 45.141 42.626 45.141 42.626 Z" data-uid="o_f1d6ii15d_74"/>
      <path fill="#F2F2F2" d="M 44.941 40.326 C 45.441 40.526 45.141 42.626 45.141 42.626 C 44.441 43.126 43.641 43.526 42.841 43.926 C 42.841 43.926 41.741 42.626 41.841 42.126 C 42.241 41.026 43.841 39.826 44.941 40.326 Z" data-uid="o_f1d6ii15d_75"/>
      <path fill="rgba(242,242,242,1)" d="M 45.141 42.626 C 44.441 43.126 43.641 43.526 42.841 43.926 C 42.841 43.926 41.941 42.926 41.841 42.326 C 42.241 43.226 45.241 43.526 44.941 40.426 C 45.441 40.826 45.141 42.626 45.141 42.626 Z" data-uid="o_f1d6ii15d_76"/>
      <path fill="#F2F2F2" d="M 38.041 34.426 C 38.841 34.126 39.641 33.626 40.241 33.126 C 40.341 33.126 40.341 33.026 40.441 33.026 C 40.441 33.026 41.441 34.426 41.241 34.926 C 41.041 35.926 39.541 36.826 38.641 36.426 C 38.141 36.126 38.041 34.426 38.041 34.426 Z" data-uid="o_f1d6ii15d_77"/>
      <path fill="rgba(242,242,242,1)" d="M 41.293 34.726 C 40.893 34.326 40.293 34.026 39.693 34.226 C 38.893 34.426 38.393 35.326 38.493 36.326 C 38.093 35.926 37.893 34.426 37.893 34.426 C 38.693 34.126 39.493 33.626 40.093 33.126 C 40.193 33.126 40.193 33.026 40.293 33.026 C 40.393 32.926 41.193 34.126 41.293 34.726 Z" data-uid="o_f1d6ii15d_78"/>
      <path fill="#F2F2F2" d="M 41.241 32.426 C 42.441 31.826 43.741 31.726 44.941 32.026 C 44.941 32.026 45.641 34.026 45.141 34.326 C 44.241 34.926 43.141 34.626 42.141 34.226 C 41.741 34.126 41.241 32.426 41.241 32.426 Z" data-uid="o_f1d6ii15d_79"/>
      <path fill="rgba(242,242,242,1)" d="M 44.893 31.978 C 43.693 31.678 42.393 31.778 41.193 32.378 C 41.193 32.378 41.593 33.878 42.093 34.178 C 41.093 32.078 44.593 31.578 45.293 34.078 C 45.493 33.578 44.893 31.978 44.893 31.978 Z" data-uid="o_f1d6ii15d_80"/>
      <path fill="#F2F2F2" d="M 25.041 32.726 C 25.041 32.726 24.841 34.626 24.341 34.726 C 22.941 35.126 21.641 35.126 20.641 34.426 C 20.141 34.126 20.841 32.126 20.841 32.126 C 22.241 31.726 23.741 31.926 25.041 32.726 Z" data-uid="o_f1d6ii15d_81"/>
      <path fill="rgba(242,242,242,1)" d="M 24.569 34.478 C 24.869 33.978 24.969 32.678 24.969 32.678 C 23.669 31.878 22.169 31.678 20.869 32.078 C 20.869 32.078 20.469 33.178 20.469 33.878 C 20.969 31.778 24.469 32.378 24.569 34.478 Z" data-uid="o_f1d6ii15d_82"/>
      <path fill="rgba(242,242,242,1)" d="M 34.341 37.826 C 33.441 38.426 30.941 37.526 32.441 37.626 C 33.641 37.726 34.741 37.526 34.341 37.826 Z" data-uid="o_f1d6ii15d_83"/>
      <path fill="rgba(242,242,242,1)" d="M 39.541 36.226 C 39.341 36.226 39.341 36.226 40.041 35.726 C 41.341 34.826 40.141 36.026 39.541 36.226 Z" data-uid="o_f1d6ii15d_84"/>
      <circle style="stroke: rgb(0, 0, 0); fill-rule: evenodd; paint-order: fill; fill: rgba(187, 218, 85, 0); stroke-miterlimit: 3; stroke-linejoin: round; stroke-linecap: round; stroke-width: 0.575122px;" cx="40.23" cy="21.207" r="7.62" transform="matrix(1, 0, 0, 1.000017, 0.442088, 0.032857)"/>
      <circle style="stroke: rgb(0, 0, 0); fill-rule: evenodd; paint-order: fill; fill: rgba(187, 218, 85, 0); stroke-miterlimit: 3; stroke-linejoin: round; stroke-linecap: round; stroke-width: 0.575122px;" cx="40.23" cy="21.207" r="7.62" transform="matrix(1, 0, 0, 1.000017, -16.055042, -0.051683)"/>
      <path class="cls-4" d="M 41.716 7.733 C 43.699 7.844 45.555 8.269 47.208 9.371 C 48.166 10.003 48.938 10.879 49.444 11.909 C 49.508 12.039 49.541 12.169 49.398 12.262 C 49.27 12.347 49.165 12.284 49.068 12.182 C 47.497 10.542 45.582 9.465 43.448 8.742 C 42.879 8.546 42.297 8.391 41.707 8.276 C 41.641 8.263 41.576 8.247 41.512 8.226 C 41.392 8.196 41.315 8.078 41.336 7.956 C 41.351 7.822 41.442 7.75 41.571 7.732 C 41.619 7.729 41.668 7.729 41.716 7.733 Z" style="fill: rgb(1, 1, 1);"/>
      <path class="cls-5" d="M 21.493 7.603 L 21.968 7.603 C 22.038 7.603 22.133 7.585 22.149 7.679 C 22.169 7.794 22.071 7.822 21.995 7.848 C 21.391 8.053 20.795 8.282 20.21 8.553 C 18.035 9.56 16.062 10.977 14.229 12.68 C 14.156 12.749 14.071 12.895 13.99 12.817 C 13.884 12.716 13.97 12.572 14.032 12.456 C 15.333 10.009 17.178 8.475 19.566 7.855 C 20.199 7.687 20.845 7.603 21.493 7.603 Z" style="fill: rgb(1, 2, 1);"/>
    </g>
    <circle cx="234.847" cy="151.144" r="20.131" transform="matrix(0.707107, -0.707107, 0.707107, 0.707107, -52.075734, 198.582729)" fill="#1194f6"/>
    <path d="M 231.288 135.369 L 224.888 135.369 L 224.888 128.969 C 224.888 128.057 224.148 127.317 223.236 127.317 L 218.488 127.317 C 217.576 127.317 216.836 128.057 216.836 128.969 L 216.836 135.369 L 210.436 135.369 C 209.524 135.37 208.785 136.109 208.785 137.021 L 208.785 141.77 C 208.785 142.682 209.524 143.421 210.436 143.422 L 216.836 143.422 L 216.836 149.822 C 216.835 150.735 217.575 151.475 218.488 151.474 L 223.236 151.474 C 224.149 151.475 224.889 150.735 224.888 149.822 L 224.888 143.422 L 231.288 143.422 C 232.2 143.422 232.94 142.682 232.94 141.77 L 232.94 137.021 C 232.94 136.109 232.2 135.369 231.288 135.369 Z" fill="#95d0ff"/>
  </g>
</svg>